<svg aria-hidden="true" style="position: absolute; width: 0; height: 0; overflow: hidden;" version="1.1" xmlns="http://www.w3.org/2000/svg" xmlns:xlink="http://www.w3.org/1999/xlink">
<defs>
<symbol id="icon-eiffel" viewBox="0 0 12 32">
<path d="M6.183 0.017v0.095c0.052 0.004 0.105 0.027 0.107-0.056l0.019 0.111-0.122 0.012c-0.002 0.025-0.006 0.049-0.006 0.073-0 0.364-0.004 0.728 0.003 1.091 0.001 0.062 0.047 0.122 0.066 0.184 0.011 0.038 0.017 0.081 0.013 0.121-0.007 0.056 0.037 0.128-0.043 0.168-0.006 0.003-0.003 0.039 0.007 0.052 0.054 0.075 0.054 0.221 0.002 0.291-0.011 0.014-0.010 0.050 0.001 0.065 0.048 0.065 0.050 0.227 0.002 0.287-0.011 0.014-0.015 0.056-0.011 0.057 0.075 0.030 0.033 0.095 0.045 0.143 0.006 0.025 0.010 0.062 0.027 0.070 0.201 0.099 0.309 0.272 0.387 0.47 0.008 0.021 0.017 0.041 0.028 0.068h0.158v0.24l-0.098 0.046 0.086 0.052v0.267l-0.079 0.012c-0.027 0.068 0.017 0.068 0.062 0.067 0.041-0.001 0.083-0 0.137-0l0.031 0.437c-0.068 0.060-0.122 0.094-0.159 0.142-0.119 0.152-0.153 0.338-0.175 0.522-0.016 0.131-0.019 0.266-0.014 0.398 0.042 1.152 0.081 2.303 0.132 3.455 0.058 1.29 0.12 2.58 0.193 3.869 0.056 1.003 0.126 2.006 0.2 3.009 0.054 0.742 0.112 1.484 0.192 2.224 0.073 0.673 0.178 1.342 0.269 2.013 0.013 0.096 0.029 0.192 0.044 0.295h0.363c0.013 0.072 0.028 0.135 0.035 0.199 0.002 0.014-0.018 0.044-0.031 0.045-0.073 0.008-0.108 0.058-0.127 0.117-0.057 0.175-0.090 0.353-0.044 0.538 0.267 1.057 0.524 2.116 0.803 3.169 0.114 0.428 0.276 0.843 0.413 1.264 0.016 0.048 0.042 0.056 0.086 0.055 0.146-0.002 0.293-0.001 0.439-0.001v0.752l0.16 0.015c-0.117 0.155-0.175 0.424-0.123 0.566l-0.053 0.031c0.183 0.375 0.363 0.746 0.544 1.118 0.527 1.080 1.054 2.159 1.58 3.239 0.030 0.062 0.070 0.103 0.136 0.133 0.102 0.047 0.194 0.117 0.291 0.178-0.024 0.11 0.060 0.156 0.123 0.215-0.022 0.006-0.044 0.016-0.067 0.016-0.817 0.001-1.633 0.001-2.45 0.001 0.019-0.067 0.053-0.135-0.013-0.199-0.010-0.009-0.006-0.048 0.005-0.060 0.054-0.061 0.076-0.131 0.076-0.211 0.001-0.517-0.173-0.983-0.415-1.431-0.515-0.95-1.718-1.791-2.928-1.873-1.012-0.069-1.91 0.191-2.702 0.822-0.692 0.551-1.136 1.253-1.294 2.127-0.035 0.193-0.089 0.399 0.056 0.581 0.007 0.009 0.005 0.039-0.004 0.046-0.070 0.063-0.029 0.131-0.014 0.198-0.817 0-1.633 0-2.45-0.001-0.022-0-0.044-0.010-0.067-0.016 0.060-0.057 0.141-0.102 0.123-0.221 0.106-0.060 0.223-0.122 0.336-0.192 0.035-0.022 0.065-0.061 0.083-0.099 0.499-1.019 0.996-2.040 1.493-3.060 0.19-0.389 0.379-0.778 0.569-1.167 0.024-0.049 0.040-0.091 0.028-0.151-0.015-0.078 0.006-0.163-0.002-0.243-0.012-0.12-0.034-0.24-0.14-0.345l0.167-0.015v-0.753h0.37c0.137-0 0.133-0.002 0.183-0.129 0.337-0.852 0.535-1.744 0.756-2.628 0.147-0.589 0.3-1.177 0.442-1.768 0.043-0.178 0.010-0.359-0.064-0.526-0.017-0.038-0.073-0.058-0.109-0.090-0.015-0.013-0.036-0.035-0.035-0.051 0.007-0.061 0.022-0.122 0.036-0.192h0.362c0.045-0.303 0.095-0.599 0.132-0.895 0.090-0.719 0.183-1.437 0.258-2.157 0.056-0.538 0.088-1.079 0.127-1.619 0.051-0.695 0.101-1.39 0.145-2.086 0.035-0.554 0.061-1.109 0.089-1.664 0.043-0.854 0.087-1.709 0.127-2.563 0.037-0.774 0.074-1.548 0.104-2.322 0.023-0.588 0.041-1.177 0.050-1.766 0.003-0.228-0.041-0.454-0.154-0.658-0.041-0.074-0.087-0.15-0.199-0.165l0.033-0.461c0.072-0.009 0.138-0.017 0.204-0.027 0.003-0 0-0.030 0-0.050l-0.084-0.008v-0.275l0.085-0.046-0.096-0.047v-0.239h0.158c0.062-0.171 0.136-0.329 0.274-0.446 0.013-0.011 0.023-0.027 0.038-0.033 0.101-0.040 0.152-0.108 0.131-0.221-0.002-0.011 0.024-0.025 0.029-0.039 0.007-0.021 0.018-0.050 0.009-0.065-0.056-0.089-0.056-0.197 0.003-0.297 0.008-0.014 0.008-0.041 0-0.055-0.059-0.098-0.060-0.212-0.003-0.296 0.009-0.013 0.012-0.047 0.004-0.053-0.095-0.075-0.027-0.174-0.039-0.26-0.005-0.033 0.035-0.071 0.045-0.109 0.016-0.059 0.032-0.119 0.032-0.179 0.003-0.331 0.001-0.661 0.002-0.992v-0.093l-0.124-0.012 0.013-0.099 0.109 0.067v-0.119h0.067zM5.407 22.134c-0.199 1.212-0.378 2.419-0.636 3.613h2.753l-0.643-3.613h-1.475z"></path>
</symbol>
</defs>
</svg>
