<svg aria-hidden="true" style="position: absolute; width: 0; height: 0; overflow: hidden;" version="1.1" xmlns="http://www.w3.org/2000/svg" xmlns:xlink="http://www.w3.org/1999/xlink">
<defs>
<symbol id="icon-vivaro" viewBox="0 0 49 32">
<path d="M30.317 4.812c-0.245 0.126-0.514 0.277-0.593 0.348-0.095 0.087-0.174 0.103-0.277 0.047-0.229-0.134-5.239-0.182-8.115-0.079-2.773 0.095-5.602 0.269-6.432 0.395-0.261 0.040-0.893 0.119-1.391 0.166-0.695 0.071-0.988 0.142-1.241 0.284-0.743 0.427-2.434 2.141-3.445 3.5-0.395 0.545-0.964 1.233-1.248 1.541-0.727 0.782-1.075 1.288-0.956 1.406 0.055 0.055 0.616 0.119 1.43 0.158 1.114 0.055 1.406 0.040 1.683-0.055 0.411-0.142 1.019-0.158 1.154-0.024 0.063 0.063 0.545 0.103 1.462 0.126 1.209 0.032 1.43 0.016 1.975-0.134 0.601-0.166 1.541-0.229 1.201-0.087-0.087 0.040-0.308 0.071-0.49 0.071-0.182 0.008-0.356 0.040-0.379 0.087-0.111 0.182 7.514 0.071 8.834-0.126 0.316-0.047 0.371-0.032 0.371 0.079 0 0.071 0.040 0.126 0.079 0.126 0.047 0 0.079-0.063 0.079-0.15 0-0.103 0.134-0.213 0.419-0.348 0.221-0.119 0.593-0.371 0.806-0.569 0.221-0.19 0.419-0.356 0.442-0.356s0.198-0.245 0.387-0.545c0.277-0.442 0.371-0.529 0.506-0.498 0.095 0.024 0.142 0.008 0.111-0.024-0.047-0.055 0.506-0.964 0.656-1.067 0.024-0.024 0.126-0.198 0.221-0.395s0.363-0.601 0.601-0.901c0.237-0.3 0.435-0.577 0.435-0.616s0.087-0.174 0.19-0.284c0.103-0.119 0.466-0.545 0.798-0.948 0.332-0.395 0.806-0.869 1.043-1.043 0.529-0.371 0.363-0.419-0.316-0.087zM25.798 5.681c0.672 0.055 0.514 0.063-1.043 0.079-1.051 0-1.849-0.024-1.881-0.063-0.024-0.040 0.040-0.087 0.134-0.103 0.245-0.040 1.817 0.016 2.789 0.087zM29.053 5.926c-0.158 0.166-0.356 0.442-0.442 0.608s-0.277 0.403-0.411 0.537c-0.142 0.126-0.221 0.182-0.182 0.119 0.237-0.403 1.185-1.58 1.272-1.58 0.024 0-0.087 0.142-0.237 0.316zM17.572 5.76c0.024 0.032-0.245 0.087-0.601 0.111-0.379 0.032-0.695 0.095-0.766 0.166-0.071 0.063-0.371 0.142-0.68 0.174-0.529 0.055-0.537 0.063-0.292 0.134 0.474 0.142 0.529 0.324 0.419 1.383-0.111 1.13-0.245 1.92-0.348 2.046-0.040 0.055-0.213 0.103-0.379 0.103-0.403 0-0.695 0.119-1.003 0.419-0.245 0.237-0.292 0.253-0.774 0.237-0.442-0.024-0.506-0.008-0.49 0.111 0.016 0.095-0.047 0.15-0.213 0.19-1.643 0.395-3.010 0.553-3.089 0.363-0.063-0.182 0.095-0.743 0.316-1.098 0.442-0.711 1.77-2.276 1.936-2.276 0.087 0 0.095 0.087 0.055 0.411-0.032 0.229-0.119 0.901-0.198 1.485s-0.134 1.075-0.126 1.090c0.008 0.008 0.079 0 0.15-0.032 0.079-0.032 0.126-0.142 0.126-0.3 0-0.134 0.055-0.545 0.119-0.917s0.166-1.027 0.237-1.454c0.095-0.656 0.15-0.822 0.332-1.011 0.119-0.119 0.253-0.221 0.292-0.221 0.047 0 0.198-0.087 0.324-0.198 0.205-0.158 0.213-0.182 0.063-0.142-0.095 0.024-0.213 0.087-0.261 0.142-0.047 0.063-0.134 0.095-0.19 0.071-0.063-0.024-0.126 0.016-0.15 0.079-0.055 0.134-0.411 0.174-0.482 0.063-0.024-0.040 0.174-0.277 0.435-0.537l0.466-0.466 1.090-0.079c1.383-0.103 3.635-0.134 3.682-0.047zM18.805 6.882c0 0.047-0.055 0.071-0.119 0.040-0.063-0.024-0.119-0.008-0.119 0.032 0 0.047 0.055 0.079 0.119 0.079 0.174 0 0.142 0.134-0.040 0.237-0.363 0.198-0.735-0.016-0.608-0.348 0.047-0.126 0.766-0.166 0.766-0.040zM11.891 6.953c0.047 0.079-0.442 0.324-0.514 0.261-0.040-0.040 0.324-0.332 0.411-0.34 0.032 0 0.079 0.032 0.103 0.079zM16.269 7.324c-0.008 0.126-0.032 0.324-0.063 0.458l-0.055 0.237-0.063-0.245c-0.063-0.269 0.008-0.664 0.119-0.664 0.040 0 0.063 0.095 0.063 0.213zM23.206 7.941c0.324 0.071 0.356 0.269 0.261 1.485-0.047 0.616-0.103 1.201-0.126 1.296-0.055 0.261-0.332 0.237-0.427-0.040-0.142-0.387-0.205-0.45-0.561-0.514-0.19-0.040-0.379-0.095-0.419-0.134-0.032-0.040-0.071-0.419-0.079-0.845-0.008-0.458-0.055-0.853-0.119-0.956-0.174-0.324-0.079-0.379 0.632-0.348 0.363 0.008 0.743 0.040 0.838 0.055zM26.374 7.98c0.838 0 0.877 0.047 0.506 0.593-0.205 0.292-0.253 0.316-0.601 0.324-0.213 0.008-0.521 0.040-0.687 0.063l-0.3 0.047-0.047-0.435c-0.071-0.545-0.016-0.703 0.221-0.64 0.095 0.024 0.506 0.047 0.909 0.047zM10.074 9.086c-0.024 0.040-0.087 0.079-0.126 0.079-0.047 0-0.055-0.040-0.032-0.079 0.024-0.047 0.087-0.079 0.126-0.079 0.047 0 0.055 0.032 0.032 0.079zM9.726 9.458c-0.079 0.134-0.079 0.126-0.087-0.024 0-0.182 0.103-0.324 0.142-0.198 0.016 0.047-0.008 0.142-0.055 0.221zM9.513 9.553c0.024 0.040-0.008 0.111-0.063 0.158-0.095 0.079-0.103 0.063-0.071-0.063 0.047-0.182 0.071-0.198 0.134-0.095zM15.723 11.678l0.435 0.166-0.316 0.008c-0.174 0-0.735 0.024-1.248 0.047-0.514 0.032-1.13 0.024-1.383-0.008l-0.45-0.055 0.514-0.19c0.435-0.158 0.624-0.182 1.264-0.158 0.498 0.024 0.901 0.087 1.185 0.19zM13.551 12.168c0.032 0.047-0.111 0.079-0.371 0.071-0.332-0.008-0.379-0.024-0.221-0.071 0.284-0.095 0.537-0.095 0.593 0zM12.326 12.326c-0.158 0.103-0.656 0.103-0.593 0 0.024-0.047 0.198-0.079 0.379-0.079 0.245 0 0.3 0.024 0.213 0.079zM31.526 5.586c-0.529 0.198-0.83 0.395-1.122 0.751-0.19 0.221-0.419 0.482-0.514 0.577-0.103 0.095-0.182 0.198-0.182 0.229 0 0.024-0.15 0.269-0.332 0.529-0.561 0.79-0.774 1.13-0.774 1.233 0 0.055-0.047 0.126-0.103 0.158-0.174 0.103-0.514 0.751-0.569 1.090-0.087 0.521-0.103 0.545-0.245 0.427-0.19-0.158-0.395 0.134-0.474 0.656-0.063 0.45-0.071 3.998-0.008 4.069 0.024 0.016 0.198-0.032 0.387-0.119 0.182-0.087 0.435-0.174 0.545-0.205 0.119-0.024 0.292-0.111 0.395-0.198l0.19-0.15-0.174-0.19c-0.213-0.221-0.229-0.324-0.063-0.458 0.063-0.055 0.119-0.063 0.119-0.024 0 0.047 0.079 0.119 0.182 0.174 0.166 0.087 0.166 0.087-0.040 0.063-0.237-0.040-0.3 0.055-0.095 0.134 0.261 0.103 0.687 0.040 1.082-0.158 0.229-0.119 0.435-0.245 0.458-0.284 0.032-0.040 0.142-0.063 0.253-0.047 0.111 0.008 0.261-0.040 0.348-0.111 0.079-0.071 0.356-0.198 0.616-0.284 1.193-0.403 2.41-1.122 2.552-1.501 0.253-0.711 0.324-2.402 0.158-4.314l-0.087-1.106-0.277-0.237c-0.15-0.134-0.371-0.284-0.482-0.34-0.174-0.079-0.182-0.095-0.047-0.095 0.245-0.016-0.008-0.142-0.395-0.198l-0.316-0.047 0.277 0.095c0.229 0.079 0.245 0.095 0.111 0.119-0.245 0.047-0.703-0.095-0.679-0.205 0.016-0.087-0.466-0.111-0.695-0.032zM31.581 5.815c-0.024 0.024-0.095 0.032-0.15 0.008-0.063-0.024-0.040-0.047 0.047-0.047 0.087-0.008 0.134 0.016 0.103 0.040zM30.436 7.072c-0.047 0.269-0.095 0.253-0.095-0.047 0-0.126 0.032-0.221 0.071-0.198 0.032 0.024 0.047 0.134 0.024 0.245zM30.199 10.272c0.45 0.182 0.521 0.316 0.64 1.185 0.063 0.498 0.087 0.988 0.055 1.225-0.032 0.221-0.063 0.3-0.071 0.174-0.008-0.166-0.047-0.213-0.205-0.229-0.774-0.055-0.774-0.055-0.98 0.348-0.063 0.119-0.158 0.229-0.221 0.253-0.079 0.032-0.071-0.032 0.047-0.221 0.229-0.363 0.221-0.545-0.008-0.482-0.419 0.126-1.011 0.482-1.059 0.632-0.063 0.182-0.19 0.284-0.284 0.229-0.134-0.087-0.047-0.308 0.221-0.553 0.356-0.332 0.34-0.553-0.071-0.766-0.245-0.126-0.3-0.19-0.277-0.363 0.024-0.19 0.055-0.205 0.419-0.229 0.45-0.032 0.632-0.142 0.419-0.261-0.174-0.095-0.19-0.49-0.032-0.616 0.134-0.111 0.909-0.395 1.090-0.403 0.071 0 0.213 0.032 0.316 0.079zM28.5 11.267c-0.024 0.024-0.095 0.032-0.15 0.008-0.063-0.024-0.040-0.047 0.047-0.047 0.087-0.008 0.134 0.016 0.103 0.040zM27.52 12.452c-0.055 0.158-0.142 0.134-0.158-0.040-0.008-0.103 0.024-0.142 0.095-0.119 0.063 0.024 0.087 0.095 0.063 0.158zM27.512 13.179c-0.166 0.126-0.229-0.008-0.079-0.174 0.071-0.079 0.119-0.087 0.158-0.016 0.032 0.047 0 0.134-0.079 0.19zM33.501 5.879c0 0.016 0.055 0.047 0.119 0.079 0.063 0.024 0.119 0.008 0.119-0.032 0-0.047-0.055-0.079-0.119-0.079s-0.119 0.016-0.119 0.032z"></path>
<path d="M35.303 6.598c-0.261 0.237-0.269 0.387-0.103 1.509 0.063 0.427 0.166 1.383 0.237 2.125 0.134 1.564 0.142 1.588 0.49 2.228 0.277 0.506 0.292 0.79 0.055 0.79-0.071 0-0.213-0.087-0.316-0.182-0.166-0.174-0.19-0.316-0.308-1.707-0.063-0.83-0.142-1.533-0.166-1.557-0.016-0.024-0.016 0.774 0 1.778 0.032 1.422 0.024 1.738-0.047 1.47-0.055-0.229-0.119-0.324-0.19-0.3-0.055 0.024-0.126 0.008-0.15-0.032-0.095-0.15-0.442-0.079-0.624 0.119-0.126 0.134-0.269 0.198-0.435 0.198-0.174 0-0.237 0.032-0.198 0.095 0.032 0.047 0.024 0.063-0.032 0.032-0.047-0.024-0.221 0.008-0.387 0.079-0.348 0.158-1.351 0.64-1.525 0.743-0.063 0.032-0.269 0.111-0.45 0.166-0.19 0.055-0.34 0.126-0.34 0.166 0 0.032-0.047 0.063-0.111 0.063-0.221 0-0.917 0.356-0.917 0.466 0 0.087-0.032 0.079-0.111-0.032-0.103-0.142-0.119-0.142-0.545 0.032-0.545 0.221-0.632 0.324-0.577 0.656 0.040 0.261 0.040 0.261-0.047 0.040-0.111-0.245-0.198-0.261-0.585-0.095-0.229 0.095-0.277 0.15-0.245 0.277 0.047 0.19-0.063 0.213-0.134 0.032-0.047-0.119-0.071-0.119-0.229 0.016-0.095 0.087-0.277 0.205-0.411 0.269-0.126 0.063-0.292 0.174-0.356 0.237s-0.15 0.126-0.198 0.134c-0.356 0.071-0.948 0.356-0.996 0.474-0.032 0.079-0.063 0.095-0.063 0.040-0.008-0.071-0.103-0.047-0.332 0.063-0.182 0.095-0.308 0.182-0.292 0.198 0.008 0.016 0.205-0.008 0.435-0.040 0.632-0.103 1.28 0.024 1.841 0.348 0.269 0.158 0.498 0.284 0.506 0.284 0.016 0 0.142 0.103 0.284 0.237 0.134 0.126 0.379 0.253 0.537 0.284s1.375 0.032 2.702 0.008c1.327-0.032 2.592-0.055 2.813-0.055 0.458 0 0.356 0.158 0.885-1.327 0.237-0.656 0.332-0.845 0.332-0.64 0 0.19-0.3 1.209-0.427 1.454-0.213 0.403-0.174 0.514 0.213 0.521 0.182 0.008 0.363 0.008 0.403 0s1.485-0.071 3.2-0.126c4.543-0.166 4.030-0.111 4.441-0.498 0.861-0.83 1.478-0.924 2.228-0.348 0.253 0.198 0.514 0.332 0.632 0.332 0.19 0 0.213-0.032 0.213-0.269 0-0.15-0.039-0.371-0.095-0.498-0.047-0.119-0.095-0.269-0.111-0.332-0.008-0.063-0.063-0.134-0.111-0.166-0.047-0.024-0.095-0.158-0.103-0.292s-0.039-0.229-0.071-0.205c-0.032 0.016-0.15-0.047-0.253-0.15s-0.245-0.221-0.324-0.261c-0.277-0.166-0.142-0.237 0.632-0.324 0.632-0.071 0.822-0.063 0.964 0.016 0.237 0.142 0.363-0.024 0.371-0.506l0.008-0.371-1.857 0.024c-1.019 0.016-2.204 0.040-2.631 0.047-0.664 0.016-0.766 0-0.751-0.103 0.024-0.111 0.3-0.126 2.52-0.095l2.497 0.032 0.032-0.19c0.103-0.545-0.182-4.132-0.45-5.721-0.158-0.988-0.166-0.996-0.387-0.94-0.111 0.024-0.632 0.008-1.161-0.040-0.537-0.047-1.185-0.111-1.446-0.126-0.261-0.024-0.743-0.079-1.067-0.119s-1.391-0.142-2.37-0.237c-1.612-0.142-2.536-0.229-3.793-0.356-0.387-0.040-0.458-0.024-0.648 0.158zM37.634 7.633c0.379 0.032 0.703 0.079 0.727 0.103 0.016 0.032-0.261 0.024-0.616-0.008s-0.909-0.063-1.217-0.071c-0.356-0.008-0.553-0.040-0.529-0.087 0.032-0.047 0.237-0.063 0.498-0.032 0.245 0.024 0.751 0.063 1.138 0.095zM45.005 7.964c0.205 0.134 0.427 0.751 0.537 1.525 0.142 0.98 0.3 3.066 0.237 3.168-0.024 0.040-0.103 0.047-0.182 0.016-0.071-0.032-0.3-0.119-0.521-0.19-0.474-0.158-0.435-0.016-0.711-2.449-0.111-0.98-0.221-1.857-0.245-1.96-0.032-0.166-0.008-0.174 0.379-0.174 0.229 0 0.458 0.032 0.506 0.063zM38.503 8.273c0.024 0.166 0.071 0.553 0.103 0.861l0.047 0.561-0.261 0.047c-0.15 0.032-0.442 0.024-0.664-0.008-0.387-0.055-0.395-0.063-0.474-0.395-0.103-0.411-0.205-0.49-0.672-0.49-0.45 0-0.553-0.095-0.553-0.529v-0.34h2.426l0.047 0.292zM40.375 8.051c0 0.040-0.15 0.19-0.332 0.348-0.19 0.15-0.474 0.403-0.648 0.561-0.316 0.292-0.553 0.363-0.624 0.182-0.024-0.063-0.063-0.348-0.095-0.632l-0.055-0.529h0.877c0.482 0 0.877 0.032 0.877 0.071zM43.694 8.217c0 0.142-0.087 0.332-0.237 0.498-0.308 0.356-0.308 0.466 0 0.174 0.126-0.126 0.253-0.213 0.269-0.19 0.016 0.016 0.039 0.869 0.055 1.888l0.032 1.849-0.277 0.071c-0.3 0.071-0.593 0.158-0.798 0.245-0.111 0.047-0.142-0.111-0.229-1.335-0.055-0.759-0.079-1.406-0.047-1.438 0.024-0.024 0.008-0.087-0.032-0.142-0.103-0.119-0.277-1.557-0.213-1.722 0.039-0.111 0.166-0.134 0.766-0.134h0.711v0.237zM40.794 8.668c-0.008 0.166-0.016 0.324-0.016 0.356-0.008 0.103-0.719 0.071-0.719-0.024 0-0.15 0.593-0.766 0.672-0.703 0.047 0.040 0.071 0.205 0.063 0.371zM38.7 11.552c0.111 0.111 0.126 0.3 0.032 0.3-0.039 0-0.111-0.087-0.158-0.198-0.095-0.205-0.032-0.261 0.126-0.103zM36.251 13.369c0.008 0.055 0.032 0.332 0.055 0.616l0.032 0.514-0.111-0.435c-0.063-0.237-0.166-0.474-0.229-0.521-0.174-0.119-0.158-0.174 0.055-0.213 0.095-0.016 0.174-0.040 0.182-0.047 0 0 0.008 0.040 0.016 0.087zM34.671 13.487c0.079 0.15 0.19 0.893 0.142 0.893-0.024 0-0.079-0.134-0.134-0.3-0.047-0.158-0.158-0.387-0.245-0.514-0.15-0.213-0.15-0.213 0.008-0.213 0.087 0 0.19 0.063 0.229 0.134zM42.627 14.617c-0.024 0.040-0.103 0.079-0.166 0.079s-0.111-0.040-0.111-0.079c0-0.047 0.071-0.079 0.166-0.079 0.087 0 0.134 0.032 0.111 0.079zM41.071 14.759c0.047 0.008 0.095 0.047 0.095 0.079 0 0.19-0.442 0.229-2.054 0.198-1.572-0.032-2.007-0.095-1.762-0.245 0.079-0.047 3.39-0.071 3.721-0.032zM36.282 15.502c-0.055 0.055-0.095 0.063-0.095 0.016 0-0.111 0.095-0.205 0.15-0.15 0.016 0.024-0.008 0.087-0.055 0.134z"></path>
<path d="M42.904 9.347l-0.182 0.253 0.229-0.213c0.119-0.119 0.205-0.237 0.182-0.261-0.024-0.016-0.126 0.079-0.229 0.221zM35.097 9.481c0 0.15 0.016 0.213 0.039 0.134 0.016-0.071 0.016-0.198 0-0.277-0.024-0.071-0.039-0.008-0.039 0.142zM26.366 10.327c-0.032 0.024-0.055 0.087-0.055 0.134s0.040 0.040 0.095-0.016c0.047-0.047 0.071-0.111 0.055-0.134-0.024-0.024-0.071-0.016-0.095 0.016zM6.898 10.761c-0.158 0.198-0.387 1.169-0.277 1.169 0.095 0 0.324-0.435 0.316-0.601-0.008-0.079 0.016-0.269 0.047-0.411 0.063-0.269 0.040-0.316-0.087-0.158zM7.467 10.746c0.032 0.047 0.087 0.063 0.126 0.040 0.111-0.071 0.087-0.119-0.055-0.119-0.063 0-0.095 0.040-0.071 0.079zM7.609 13.306c-0.103 0.079-0.182 0.158-0.166 0.174 0.016 0.008 0.972 0.040 2.125 0.063 1.936 0.032 2.102 0.024 2.283-0.111l0.19-0.142-0.348-0.047c-0.198-0.024-1.154-0.055-2.125-0.063-1.628-0.024-1.794-0.008-1.96 0.126zM20.82 14.515c-0.553 0.024-1.636 0.19-1.778 0.269-0.071 0.040 0.071 0.047 0.34 0.024 0.308-0.040 0.45-0.024 0.45 0.040 0 0.119 0.419 0.111 0.545-0.016 0.087-0.079 0.111-0.079 0.142 0 0.024 0.055 0.103 0.103 0.19 0.103 0.095 0 0.126-0.040 0.103-0.119-0.063-0.158 0.261-0.158 0.672 0.008 0.205 0.079 0.34 0.198 0.403 0.356 0.126 0.292 0.055 1.043-0.119 1.304-0.15 0.237-0.040 0.253 0.166 0.024 0.229-0.253 0.213-1.13-0.024-1.462-0.269-0.379-0.624-0.545-1.090-0.529zM5.373 14.862c0 0.063-0.071 0.253-0.158 0.427-0.166 0.324-0.158 0.435 0.032 0.284 0.182-0.15 0.324-0.632 0.213-0.743-0.063-0.063-0.087-0.055-0.087 0.032zM3.808 15.131c-0.182 0.395-0.126 0.458 0.221 0.261 0.174-0.103 0.316-0.205 0.316-0.245 0-0.087-0.221-0.071-0.277 0.024-0.095 0.158-0.205 0.079-0.119-0.079 0.047-0.087 0.055-0.158 0.016-0.158s-0.111 0.087-0.158 0.198z"></path>
<path d="M19.208 15.028c-0.3 0.087-0.656 0.3-0.498 0.3 0.055 0 0.079 0.040 0.055 0.079-0.032 0.047 0.055 0.19 0.19 0.324 0.277 0.277 0.292 0.308 0.126 0.308-0.071 0-0.142 0.055-0.166 0.119-0.032 0.063-0.111 0.119-0.182 0.119-0.071 0.008-0.205 0.047-0.3 0.103-0.174 0.095-0.174 0.095 0.079 0.174 0.142 0.047 0.379 0.055 0.529 0.032 0.174-0.032 0.205-0.055 0.103-0.063-0.166-0.008-0.269-0.166-0.119-0.166 0.040 0 0.119-0.087 0.174-0.198 0.087-0.166 0.158-0.198 0.348-0.174 0.253 0.032 0.253 0.040 0.182 0.482-0.008 0.047 0.047 0.095 0.119 0.111 0.103 0.016 0.126-0.008 0.095-0.095-0.032-0.095-0.016-0.119 0.071-0.087 0.158 0.063 0.229-0.158 0.166-0.569l-0.047-0.348 0.34 0.047c0.324 0.040 0.332 0.032 0.111-0.047-0.126-0.047-0.371-0.095-0.529-0.095-0.419-0.024-0.411-0.166 0.016-0.221l0.356-0.047-0.332-0.008c-0.19-0.008-0.34-0.055-0.34-0.095 0-0.095-0.182-0.095-0.545 0.016zM19.477 15.328c-0.024 0.040-0.079 0.079-0.126 0.079-0.040 0-0.071-0.040-0.071-0.079 0-0.047 0.055-0.079 0.126-0.079 0.063 0 0.095 0.032 0.071 0.079zM17.865 15.36c-0.071 0.087-0.071 0.126 0 0.166 0.079 0.055 0.221-0.079 0.229-0.221 0-0.095-0.134-0.063-0.229 0.055zM25.742 15.36c-0.182 0.134-0.182 0.229 0.008 0.395 0.277 0.245 0.64-0.040 0.506-0.395-0.055-0.142-0.332-0.142-0.514 0zM18.291 15.486c0.032 0.047 0.087 0.063 0.126 0.040 0.111-0.071 0.087-0.119-0.055-0.119-0.063 0-0.095 0.040-0.071 0.079zM17.414 15.755c-0.095 0.087-0.277 0.269-0.419 0.387-0.134 0.126-0.245 0.261-0.245 0.308 0 0.095 0.419-0.261 0.743-0.624 0.245-0.284 0.182-0.34-0.079-0.071zM46.515 16.577c-0.063 0.893-0.047 1.138 0.063 1.027 0.024-0.024 0.032-0.482 0.024-1.019l-0.024-0.98-0.063 0.972zM4.148 15.96c-0.024 0.040 0.024 0.079 0.111 0.079 0.095 0 0.166-0.040 0.166-0.079 0-0.047-0.047-0.079-0.111-0.079s-0.142 0.032-0.166 0.079zM17.446 16.016c-0.221 0.261-0.237 0.34-0.071 0.34 0.103 0 0.205-0.095 0.284-0.237 0.103-0.198 0.103-0.237 0.016-0.237-0.063 0-0.166 0.063-0.229 0.134z"></path>
<path d="M18.568 15.96c0.063 0.040 0.174 0.071 0.237 0.071 0.079 0 0.063-0.024-0.040-0.071-0.213-0.095-0.34-0.095-0.198 0zM3.279 16.198c-0.142 0.229 0.324 0.853 0.616 0.838 0.095-0.008 0.205-0.087 0.261-0.182 0.047-0.103 0.15-0.253 0.229-0.348 0.134-0.134 0.134-0.174 0.040-0.237-0.063-0.040-0.277-0.055-0.466-0.040-0.19 0.024-0.411 0.008-0.49-0.040-0.095-0.047-0.158-0.040-0.19 0.008zM4.812 16.569c0 0.079-0.032 0.348-0.063 0.608-0.071 0.569 0.040 0.751 0.348 0.553 0.158-0.103 0.506-0.111 2.505-0.079 4.764 0.087 6.519 0.126 7.032 0.174 0.482 0.047 0.521 0.063 0.458 0.198-0.126 0.229-0.095 0.261 0.095 0.103 0.158-0.142 0.158-0.126-0.032 0.205-0.103 0.198-0.277 0.49-0.371 0.648-0.174 0.292-0.174 0.3-0.024 0.3 0.111 0 0.166-0.071 0.198-0.261 0.024-0.142 0.134-0.371 0.253-0.498 0.119-0.134 0.292-0.371 0.379-0.529 0.095-0.158 0.379-0.537 0.64-0.845 0.253-0.308 0.442-0.577 0.419-0.601s-0.253 0.213-0.506 0.521l-0.458 0.569-5.136-0.055c-2.821-0.040-5.262-0.071-5.412-0.071l-0.277-0.008 0.024-0.395c0.016-0.221 0.047-0.458 0.063-0.537 0.024-0.071 0.008-0.134-0.040-0.134s-0.087 0.063-0.095 0.134zM17.383 16.703c0 0.111 0.229 0.245 0.3 0.174 0.040-0.040-0.182-0.284-0.253-0.284-0.024 0-0.047 0.047-0.047 0.111zM19.99 16.782c-0.071 0.087-0.142 0.103-0.292 0.040-0.269-0.103-0.419-0.040-0.419 0.158 0 0.087-0.071 0.198-0.158 0.245-0.126 0.071-0.142 0.063-0.111-0.040 0.063-0.15-0.095-0.158-0.182-0.008-0.032 0.055-0.142 0.142-0.237 0.198-0.624 0.324 0.411 0.3 1.098-0.032 0.506-0.237 0.656-0.379 0.585-0.553-0.055-0.15-0.158-0.15-0.284-0.008zM4.346 16.83c0 0.040 0.040 0.079 0.079 0.079 0.047 0 0.079-0.040 0.079-0.079 0-0.047-0.032-0.079-0.079-0.079-0.040 0-0.079 0.032-0.079 0.079zM18.331 16.909c0 0.087 0.047 0.158 0.111 0.158 0.166 0 0.245-0.166 0.119-0.245-0.174-0.111-0.229-0.087-0.229 0.087zM4.504 17.233c0 0.040 0.040 0.055 0.079 0.032 0.047-0.024 0.079-0.063 0.079-0.087 0-0.016-0.032-0.032-0.079-0.032-0.040 0-0.079 0.040-0.079 0.087zM16.909 17.296c0 0.047 0.040 0.103 0.079 0.126 0.047 0.024 0.079-0.008 0.079-0.071 0-0.071-0.032-0.126-0.079-0.126-0.040 0-0.079 0.032-0.079 0.071z"></path>
<path d="M20.543 17.399c-0.34 0.142-1.928 0.703-2.11 0.751-0.182 0.040-0.229-0.047-0.19-0.356 0.008-0.047-0.055-0.095-0.134-0.095-0.142 0-0.284 0.316-0.277 0.601 0 0.103-0.427 0.245-1.027 0.348-0.458 0.071-1.351 0.387-1.288 0.45 0.024 0.024 0.49-0.071 1.051-0.205 0.553-0.134 1.193-0.284 1.406-0.34 0.411-0.087 1.786-0.64 2.054-0.83 0.087-0.055 0.205-0.103 0.277-0.103 0.063 0 0.213-0.055 0.332-0.111 0.213-0.111 0.229-0.103 0.498 0.205 0.15 0.182 0.277 0.356 0.277 0.395 0 0.032 0.055 0.063 0.119 0.063 0.19 0 0.142-0.119-0.221-0.506-0.363-0.379-0.442-0.411-0.766-0.269zM2.647 18.181c-0.095 0.403-0.111 0.585-0.047 0.648 0.047 0.047 0.087 0.221 0.087 0.379 0 0.166 0.032 0.316 0.063 0.34 0.039 0.024 0.292 0.063 0.577 0.087l0.506 0.047-0.49-0.237c-0.474-0.229-0.64-0.403-0.379-0.403 0.063 0 0.119-0.047 0.126-0.103 0-0.047 0.016-0.158 0.032-0.229 0.016-0.079-0.039-0.229-0.126-0.332-0.229-0.292-0.182-0.316 0.111-0.047 0.134 0.134 0.332 0.261 0.419 0.284 0.095 0.024 0.34 0.134 0.553 0.237 0.205 0.103 0.419 0.19 0.482 0.19 0.055 0 0.103 0.047 0.103 0.111 0 0.237 0.316 0.514 0.656 0.553 0.182 0.032 0.972 0.142 1.754 0.253 1.636 0.245 2.552 0.229 5.412-0.047 1.73-0.174 1.967-0.229 1.967-0.45-0.008-0.213 0.198-0.703 0.371-0.901l0.15-0.174-1.225 0.047c-0.672 0.024-1.786 0.095-2.465 0.142-1.146 0.095-1.248 0.111-1.296 0.261-0.095 0.3-0.664 0.64-0.948 0.569-0.253-0.063-0.506-0.356-0.506-0.569 0-0.245-0.269-0.308-1.778-0.466-0.648-0.071-1.335-0.142-1.517-0.166l-0.332-0.047-0.032 0.577c-0.016 0.427-0.040 0.537-0.087 0.403-0.063-0.174-0.593-0.49-0.814-0.49-0.055 0-0.166-0.055-0.237-0.126-0.079-0.063-0.292-0.229-0.474-0.356-0.205-0.142-0.34-0.292-0.34-0.387 0-0.34-0.142-0.126-0.277 0.403z"></path>
<path d="M3.168 17.794c0.095 0.182 0.134 0.182 0.427-0.016l0.237-0.158-0.371 0.016c-0.332 0.008-0.363 0.024-0.292 0.158zM8.936 18.070c-0.134 0.166-0.237 0.332-0.221 0.379 0.047 0.126 0.292 0.142 0.292 0.016 0-0.134 0.292-0.213 0.672-0.19 0.198 0.016 0.229-0.016 0.213-0.142-0.032-0.213-0.237-0.356-0.498-0.356-0.158 0-0.284 0.087-0.458 0.292zM15.96 17.928c0 0.047 0.032 0.095 0.079 0.126 0.040 0.024 0.055 0.095 0.024 0.158-0.032 0.087 0.016 0.119 0.158 0.119 0.111 0 0.221 0.032 0.253 0.079 0.024 0.040 0.158 0.008 0.308-0.079 0.15-0.079 0.292-0.126 0.324-0.095 0.024 0.032 0.174 0.055 0.332 0.071 0.269 0.016 0.277 0.008 0.158-0.119-0.095-0.087-0.237-0.119-0.45-0.103-0.245 0.016-0.316-0.008-0.316-0.103 0-0.103-0.095-0.126-0.435-0.126-0.237 0-0.435 0.032-0.435 0.071zM4.227 18.015c-0.024 0.040-0.008 0.079 0.032 0.079 0.047 0 0.087-0.040 0.087-0.079 0-0.047-0.016-0.079-0.032-0.079-0.024 0-0.063 0.032-0.087 0.079zM46.649 18.987c-0.008 0.442-0.047 0.948-0.087 1.122-0.079 0.308-0.087 0.308-0.158 0.119-0.047-0.111-0.103-0.19-0.134-0.174-0.063 0.032-0.403-0.237-1.122-0.885-0.521-0.458-0.521-0.458-0.94-0.427-0.316 0.024-0.482 0.095-0.719 0.284-0.166 0.142-0.356 0.253-0.411 0.253-0.063 0-0.182 0.087-0.269 0.205-0.15 0.182-0.198 0.198-0.608 0.158-0.245-0.024-1.027-0.008-1.746 0.032s-2.133 0.087-3.137 0.111l-1.841 0.032-0.079-0.308c-0.111-0.395-0.174-0.395-0.111 0 0.024 0.166 0.016 0.324-0.024 0.348-0.032 0.024-0.545 0.063-1.13 0.087-0.585 0.032-1.422 0.087-1.857 0.126s-1.501 0.095-2.37 0.119c-1.478 0.047-1.588 0.055-1.762 0.221l-0.182 0.166-0.047-0.174c-0.024-0.095-0.071-0.174-0.103-0.174s-0.103-0.111-0.158-0.237c-0.055-0.134-0.158-0.237-0.237-0.237s-0.166-0.055-0.19-0.126c-0.032-0.079-0.111-0.111-0.205-0.087-0.087 0.024-0.142 0.008-0.111-0.032 0.040-0.071-0.071-0.103-0.261-0.079-0.055 0.008-0.134-0.063-0.182-0.15-0.071-0.134-0.111-0.15-0.198-0.079s-0.237 0.071-0.545 0.024c-0.3-0.055-0.482-0.047-0.593 0.016-0.095 0.047-0.15 0.111-0.126 0.134 0.032 0.024-0.055 0.071-0.182 0.103-0.142 0.024-0.411 0.229-0.664 0.482l-0.419 0.435-0.253-0.3c-0.308-0.356-0.332-0.316-0.071 0.142 0.111 0.19 0.174 0.371 0.15 0.411-0.024 0.032 0.024 0.119 0.103 0.174 0.087 0.063 0.111 0.119 0.063 0.119-0.040 0-0.126-0.047-0.182-0.103-0.079-0.079-0.119-0.063-0.213 0.055-0.063 0.087-0.111 0.213-0.111 0.292 0 0.071-0.055 0.174-0.119 0.229-0.095 0.079-0.182 0.055-0.45-0.103-0.19-0.111-0.427-0.277-0.529-0.363-0.103-0.095-0.245-0.166-0.308-0.166-0.055 0 0.095 0.158 0.356 0.348 0.648 0.498 1.051 0.877 1.051 0.988 0 0.047-0.087 0.261-0.19 0.466-0.19 0.379-0.838 2.339-0.838 2.544 0 0.095-0.016 0.095-0.071 0.016-0.032-0.063-0.087-0.103-0.119-0.095s-0.095-0.008-0.15-0.024c-0.055-0.024-0.040-0.047 0.047-0.047 0.071-0.008 0.134-0.047 0.134-0.087 0-0.126-0.119-0.095-0.277 0.079-0.182 0.205-0.68 0.198-0.735-0.016-0.016-0.079-0.095-0.142-0.174-0.142s-0.166-0.055-0.19-0.126c-0.040-0.103-0.071-0.111-0.158-0.040s-0.119 0.055-0.15-0.079c-0.024-0.095-0.079-0.142-0.134-0.111-0.047 0.032-0.158-0.016-0.245-0.111-0.174-0.19-0.253-0.198-0.482-0.079-0.245 0.134-0.095-0.071 0.174-0.237 0.442-0.269 1.327-1.801 1.454-2.528 0.047-0.245 0.032-0.261-0.134-0.213-0.395 0.111-1.549 0.221-1.817 0.174-0.158-0.032-0.34-0.103-0.403-0.166s-0.253-0.15-0.419-0.19l-0.3-0.063 0.277-0.047c1.051-0.182 1.059-0.205 0.079-0.166-0.545 0.016-1.13 0.063-1.304 0.095l-0.316 0.047 0.277 0.047c0.316 0.047 0.45 0.316 0.166 0.316-0.095 0-0.166 0.032-0.166 0.063 0 0.040-0.134 0.126-0.292 0.198-0.324 0.134-0.964 0.198-2.355 0.229-0.83 0.016-0.869 0.016-0.845-0.134 0.063-0.332 0.34-0.672 0.553-0.68l0.213-0.008-0.237-0.071c-0.134-0.047-1.28-0.071-2.726-0.063-3.358 0.024-8.13-0.158-9.308-0.363-0.308-0.055-0.427-0.284-0.316-0.632 0.040-0.126 0.095-0.3 0.119-0.379 0.024-0.071 0.008-0.134-0.032-0.134-0.047 0-0.142 0.237-0.221 0.529-0.071 0.3-0.205 0.68-0.284 0.861-0.119 0.245-0.15 0.498-0.15 1.098 0 1.011 0.119 1.659 0.45 2.505 0.316 0.79 0.498 0.948 0.498 0.435 0-0.395 0.142-0.64 0.363-0.593 0.111 0.016 0.158 0.119 0.205 0.411 0.032 0.205 0.063 0.387 0.079 0.395 0.071 0.063 1.241 0.585 1.406 0.64l0.198 0.063-0.198-0.166c-0.111-0.095-0.15-0.166-0.095-0.174 0.055 0 0.205 0.103 0.34 0.229 0.158 0.158 0.387 0.269 0.648 0.316 0.759 0.15 2.694 0.237 5.626 0.253l2.923 0.016 0.996-0.284c0.553-0.158 1.075-0.292 1.161-0.292 0.213 0 0.3 0.15 0.119 0.205-0.079 0.024-0.205 0.079-0.284 0.119-0.079 0.047-0.474 0.158-0.869 0.245-0.94 0.213-3.824 0.277-6.297 0.142-3.058-0.174-3.745-0.198-4.045-0.15-0.166 0.024-0.277 0.016-0.253-0.016 0.047-0.087-0.458 0.008-0.561 0.095-0.039 0.040-0.205 0.071-0.371 0.071-0.371 0-0.379 0.071-0.063 0.664 0.474 0.909 1.154 1.493 2.070 1.786 0.166 0.047 0.292 0.111 0.292 0.142-0.047 0.316 0.371 0.735 1.035 1.035 0.806 0.371 1.794 0.553 3.358 0.608 1.319 0.047 4.796-0.063 6.281-0.205 1.738-0.174 3.398-0.182 4.938-0.040 2.639 0.245 4.259 0.079 5.689-0.593 0.948-0.442 1.438-0.608 2.331-0.79 1.312-0.269 4.369-0.608 8.217-0.917 1.651-0.126 2.165-0.111 3.872 0.142 1.185 0.174 1.738 0.15 2.418-0.103 0.98-0.371 1.446-1.233 1.754-3.271l0.055-0.387 0.49-0.19 0.498-0.19-0.119-0.277c-0.15-0.356-0.15-0.577 0-0.577 0.063 0 0.119-0.055 0.119-0.119s0.055-0.119 0.119-0.119c0.205 0 0.126-0.166-0.119-0.245-0.269-0.095-0.292-0.166-0.111-0.308 0.142-0.126 0.348-0.593 0.348-0.814 0-0.166-0.047-0.166-0.727-0.008-0.19 0.040-0.221 0.024-0.221-0.119 0-0.087 0.047-0.166 0.103-0.166s0.19-0.063 0.292-0.134c0.111-0.079 0.277-0.126 0.371-0.119 0.205 0.032 0.316-0.142 0.363-0.601 0.024-0.174 0.063-0.356 0.087-0.395 0.047-0.079-0.15-1.391-0.245-1.659-0.039-0.095-0.063 0.166-0.071 0.64zM41.837 20.227c0.024 0.040-0.024 0.079-0.111 0.079-0.095 0-0.166-0.040-0.166-0.079 0-0.047 0.047-0.079 0.111-0.079s0.142 0.032 0.166 0.079zM27.591 20.425c0.032 0.158 0.024 0.182-0.063 0.111-0.126-0.103-0.15-0.308-0.040-0.308 0.040 0 0.087 0.087 0.103 0.198zM34.331 20.63c0.087 0 0.016 0.040-0.158 0.079-0.363 0.087-0.624 0.032-0.435-0.095 0.063-0.040 0.19-0.055 0.277-0.032 0.087 0.016 0.229 0.040 0.316 0.047zM28.302 20.709c0.087 0.047 0.403 0.087 0.703 0.079 0.569-0.008 0.664 0.047 0.585 0.316-0.047 0.126-0.103 0.158-0.284 0.134-0.126-0.024-0.237 0-0.253 0.040-0.008 0.040-0.079 0.016-0.15-0.055-0.229-0.229-0.3-0.15-0.308 0.363v0.498l-0.142-0.435c-0.079-0.237-0.198-0.545-0.269-0.687-0.198-0.371-0.174-0.411 0.119-0.253zM33.58 20.693c0 0.063-0.427 0.079-1.319 0.071-1.003-0.008-1.169-0.024-0.695-0.055 1.304-0.095 2.015-0.095 2.015-0.016zM3.54 20.78h0.648v0.308c0 0.585-0.198 0.735-0.49 0.363-0.103-0.126-0.229-0.198-0.379-0.198-0.126 0-0.253-0.040-0.277-0.079-0.024-0.047-0.103-0.079-0.174-0.079-0.063 0-0.229-0.095-0.371-0.213l-0.245-0.205 0.316 0.047c0.174 0.032 0.608 0.055 0.972 0.055zM30.736 20.78c-0.158 0.103-0.395 0.103-0.395 0 0-0.047 0.119-0.079 0.261-0.079 0.19 0 0.221 0.024 0.134 0.079zM2.449 20.938c0 0.040-0.016 0.079-0.032 0.079-0.024 0-0.063-0.040-0.087-0.079-0.024-0.047-0.008-0.079 0.032-0.079 0.047 0 0.087 0.032 0.087 0.079zM5.357 21.863c-0.166 0.016-0.45 0.016-0.632 0-0.19-0.016-0.055-0.032 0.292-0.032s0.498 0.016 0.34 0.032zM11.631 21.942c1.090 0.032 1.699 0.079 1.667 0.126-0.055 0.087-5.784 0-6.858-0.103-0.838-0.079 2.829-0.095 5.191-0.024zM41.932 22.013c0.079 0.205-0.055 0.253-1.003 0.387-0.498 0.071-1.391 0.198-1.975 0.284s-1.462 0.19-1.952 0.229c-1.075 0.087-1.288 0.134-1.288 0.3 0 0.119-0.008 0.119-0.126 0.008-0.095-0.103-0.19-0.111-0.514-0.047-0.213 0.040-0.387 0.111-0.387 0.158s-0.039 0.047-0.095-0.008c-0.071-0.055-0.514-0.032-1.446 0.071-2.655 0.308-4.093 0.442-4.275 0.403-0.15-0.024-0.19-0.087-0.19-0.292 0-0.142-0.016-0.482-0.040-0.759-0.032-0.348-0.016-0.458 0.032-0.348 0.040 0.087 0.079 0.363 0.079 0.624l0.008 0.458 0.419-0.040c0.221-0.024 0.98-0.134 1.675-0.245 0.695-0.119 1.683-0.245 2.197-0.284 0.521-0.047 0.964-0.095 0.996-0.119 0.103-0.055 0.972-0.198 1.509-0.245 0.648-0.047 4.994-0.577 5.096-0.624 0.047-0.016 0.34-0.032 0.656-0.032 0.45-0.008 0.585 0.016 0.624 0.119zM43.212 22.195c-0.079 0.119-0.087 0.237-0.024 0.474 0.079 0.277 0.063 0.34-0.063 0.482-0.174 0.182-0.458 0.213-0.458 0.040 0-0.134 0.363-0.972 0.49-1.122 0.126-0.158 0.166-0.063 0.055 0.126zM44.089 22.471c0 0.308-0.174 0.806-0.332 0.972-0.119 0.111-0.134 0.103-0.213-0.040-0.063-0.126-0.055-0.166 0.032-0.205 0.087-0.032 0.119-0.174 0.119-0.545 0-0.553 0.126-0.79 0.292-0.553 0.055 0.071 0.103 0.245 0.103 0.371zM10.019 22.337l1.359 0.047v1.58l-1.873-0.055c-1.035-0.024-2.355-0.071-2.923-0.103l-1.051-0.047v-1.478h1.564c0.853 0 2.173 0.024 2.923 0.055zM24.841 22.874c-0.506 0.221-0.529 0.474-0.111 1.059 0.245 0.34 0.442 0.395 0.553 0.166 0.111-0.221 0.308-0.751 0.348-0.972 0.040-0.158 0.095-0.213 0.237-0.213 0.198 0 0.577 0.292 0.608 0.474 0.016 0.063-0.095 0.371-0.245 0.687-0.229 0.474-0.3 0.553-0.442 0.521-0.087-0.016-0.205 0.024-0.261 0.087-0.063 0.071-0.205 0.126-0.332 0.126-0.119 0-0.237 0.032-0.269 0.079-0.024 0.040-0.174-0.071-0.332-0.245-0.253-0.284-0.316-0.316-0.608-0.292-0.253 0.016-0.34 0.071-0.419 0.221-0.095 0.182-0.103 0.182-0.103 0.032 0-0.213 0.49-1.185 0.735-1.462 0.182-0.205 0.537-0.371 0.766-0.371 0.063 0 0.008 0.047-0.126 0.103zM42.904 23.664c0 0.063-0.055 0.119-0.119 0.119s-0.119-0.055-0.119-0.119 0.055-0.119 0.119-0.119 0.119 0.055 0.119 0.119zM44.784 23.83c0.032 0.205-0.158 0.371-0.387 0.332-0.229-0.032-0.292-0.221-0.079-0.221 0.119 0 0.166-0.047 0.166-0.166 0-0.213 0.269-0.166 0.3 0.055zM44.010 23.862c0 0.040-0.032 0.079-0.079 0.079-0.039 0-0.079-0.040-0.079-0.079 0-0.047 0.039-0.079 0.079-0.079 0.047 0 0.079 0.032 0.079 0.079zM43.852 24.265c0.039 0.142 0.095 0.182 0.245 0.166 0.134-0.016 0.166 0 0.095 0.071-0.047 0.047-0.166 0.071-0.269 0.055-0.134-0.016-0.198-0.095-0.237-0.284-0.063-0.308 0.095-0.316 0.166-0.008zM26.524 24.273c-0.024 0.063-0.047 0.040-0.047-0.047-0.008-0.087 0.016-0.134 0.040-0.103 0.024 0.024 0.032 0.095 0.008 0.15zM43.457 24.383c0 0.308-0.221 0.656-0.442 0.711-0.316 0.079-0.419-0.087-0.166-0.284 0.111-0.087 0.229-0.237 0.261-0.332 0.119-0.387 0.348-0.45 0.348-0.095zM9.861 24.707c-0.126 0.016-0.316 0.016-0.435 0-0.126-0.016-0.024-0.032 0.213-0.032s0.34 0.016 0.221 0.032zM44.721 25.695c-0.055 0.261-0.15 0.45-0.277 0.553-0.237 0.19-0.3 0.166-0.332-0.134-0.016-0.126-0.055-0.348-0.095-0.49-0.047-0.158-0.047-0.261 0-0.261 0.039 0 0.071 0.055 0.071 0.119 0 0.198 0.119 0.134 0.213-0.126 0.055-0.134 0.166-0.261 0.253-0.284 0.111-0.024 0.174-0.111 0.182-0.253 0.008-0.111 0.024-0.047 0.039 0.134 0.024 0.19-0.008 0.529-0.055 0.743zM43.694 24.81c0 0.040-0.039 0.079-0.087 0.079-0.039 0-0.055-0.040-0.032-0.079 0.024-0.047 0.063-0.079 0.087-0.079 0.016 0 0.032 0.032 0.032 0.079zM23.696 25.047c0.032 0 0.111 0.142 0.166 0.316 0.079 0.245 0.087 0.34 0.016 0.411-0.103 0.103-0.126 0.3-0.032 0.3 0.032 0 0.253-0.198 0.49-0.435s0.474-0.419 0.514-0.403c0.047 0.016 0.182-0.024 0.3-0.087 0.126-0.063 0.245-0.095 0.269-0.079 0.016 0.024 0.134 0.008 0.261-0.024 0.166-0.047 0.253-0.032 0.324 0.047 0.103 0.126 0.624 0.15 0.624 0.032 0-0.047 0.126-0.079 0.277-0.079 0.237 0 0.277 0.024 0.277 0.19 0 0.103-0.071 0.277-0.158 0.387s-0.158 0.261-0.158 0.332c0 0.103-0.047 0.119-0.245 0.079-0.308-0.071-0.656 0.079-0.774 0.324-0.111 0.245-0.111 0.427-0.008 0.427 0.047 0 0.079 0.095 0.079 0.205 0 0.19 0.016 0.198 0.261 0.15 0.134-0.032 0.284-0.111 0.316-0.174 0.040-0.063 0.15-0.142 0.253-0.182 0.134-0.047 0.213-0.174 0.277-0.395 0.111-0.411 0.253-0.332 0.19 0.103-0.063 0.403-0.3 0.956-0.553 1.296-0.103 0.134-0.19 0.284-0.19 0.324 0 0.119-0.901 0.49-1.177 0.49-0.284 0-0.822-0.245-1.098-0.506-0.229-0.198-0.608-0.917-0.49-0.917 0.040 0 0.079 0.055 0.079 0.126 0 0.063 0.15 0.269 0.332 0.442 0.284 0.269 0.363 0.308 0.593 0.277 0.205-0.040 0.284-0.008 0.411 0.15 0.19 0.237 0.3 0.237 0.593 0.008 0.205-0.166 0.213-0.205 0.126-0.363-0.071-0.134-0.119-0.158-0.182-0.095-0.158 0.158-0.316 0.103-0.261-0.095 0.024-0.095-0.008-0.277-0.071-0.395s-0.079-0.229-0.032-0.253c0.134-0.087 0.071-0.34-0.126-0.466-0.261-0.174-0.308-0.166-0.616 0.111-0.316 0.277-0.498 0.3-0.569 0.087-0.055-0.174-0.363-0.277-0.45-0.142-0.126 0.205-0.229-0.521-0.166-1.154 0.040-0.356 0.071-0.45 0.158-0.419 0.063 0.032 0.142 0.047 0.174 0.047zM34.347 25.015c-0.024 0.024-0.095 0.032-0.15 0.008-0.063-0.024-0.039-0.047 0.047-0.047 0.087-0.008 0.134 0.016 0.103 0.040zM43.931 25.126c0 0.040-0.016 0.079-0.032 0.079-0.024 0-0.063-0.040-0.087-0.079-0.024-0.047-0.008-0.079 0.032-0.079 0.047 0 0.087 0.032 0.087 0.079zM17.493 25.45c-0.071 0.126-0.253 0.071-0.292-0.079-0.024-0.087-0.016-0.174 0.008-0.198 0.063-0.071 0.332 0.198 0.284 0.277zM35.358 25.323c-0.174 0.063-0.411 0.111-0.537 0.111-0.119 0.008-0.277 0.040-0.356 0.079-0.19 0.111-4.488 0.521-5.349 0.521-0.624 0-0.711-0.024-0.711-0.142s0.087-0.15 0.514-0.174c0.284-0.016 1.241-0.103 2.133-0.198 1.58-0.166 3.319-0.292 4.188-0.292l0.435-0.008-0.316 0.103zM6.977 25.339c-0.103 0.016-0.277 0.016-0.395 0-0.126-0.016-0.040-0.032 0.174-0.032 0.221 0 0.316 0.016 0.221 0.032zM8.676 25.418c-0.119 0.016-0.332 0.016-0.474 0s-0.047-0.032 0.213-0.032c0.261 0 0.379 0.016 0.261 0.032zM16.909 25.442c0 0.040-0.016 0.079-0.032 0.079-0.024 0-0.063-0.040-0.087-0.079-0.024-0.047-0.008-0.079 0.032-0.079 0.047 0 0.087 0.032 0.087 0.079zM10.848 25.497c-0.316 0.016-0.838 0.016-1.146 0-0.316-0.008-0.063-0.024 0.569-0.024s0.885 0.016 0.577 0.024zM17.304 25.837c0.103 0.063 0.103 0.079-0.016 0.079-0.071 0-0.158-0.040-0.182-0.079-0.063-0.103 0.040-0.103 0.198 0zM17.857 26.058c0 0.19-0.948 0.332-1.185 0.174-0.087-0.055 0.040-0.079 0.411-0.079 0.292 0 0.553-0.040 0.577-0.079 0.055-0.095 0.198-0.103 0.198-0.016zM16.49 26.121c-0.024 0.024-0.095 0.032-0.15 0.008-0.063-0.024-0.040-0.047 0.047-0.047 0.087-0.008 0.134 0.016 0.103 0.040zM43.694 26.477c0 0.174-0.103 0.198-0.229 0.047-0.063-0.079-0.055-0.134 0.008-0.198 0.119-0.119 0.221-0.047 0.221 0.15zM10.959 26.659c0.577 0.055 1.075 0.126 1.106 0.158 0.063 0.063-1.075 0.024-2.939-0.087-0.632-0.040-0.798-0.071-0.593-0.111 0.442-0.079 1.304-0.071 2.426 0.040zM44.049 26.627c-0.024 0.040-0.087 0.079-0.126 0.079-0.047 0-0.055-0.040-0.032-0.079 0.024-0.047 0.087-0.079 0.126-0.079 0.047 0 0.055 0.032 0.032 0.079zM6.645 26.785c0.079 0.047 0.15 0.158 0.15 0.237 0 0.237-0.474 0.213-0.703-0.032-0.134-0.142-0.15-0.198-0.071-0.229 0.174-0.071 0.458-0.063 0.624 0.024zM12.705 26.84c-0.079 0.016-0.221 0.016-0.316 0-0.103-0.016-0.040-0.032 0.134-0.032 0.174-0.008 0.253 0.008 0.182 0.032zM8.494 27.046c-0.055 0.134-0.672 0.324-0.774 0.221-0.047-0.047 0.008-0.119 0.15-0.198 0.284-0.15 0.672-0.166 0.624-0.024zM25.181 27.67c-0.024 0.063-0.047 0.040-0.047-0.047-0.008-0.087 0.016-0.134 0.040-0.103 0.024 0.024 0.032 0.095 0.008 0.15z"></path>
<path d="M25.837 25.481c-0.103 0.126-0.079 0.371 0.040 0.411 0.15 0.047 0.363-0.166 0.316-0.308-0.071-0.182-0.245-0.229-0.356-0.103zM25.481 25.6c-0.024 0.040-0.008 0.079 0.032 0.079 0.047 0 0.087-0.040 0.087-0.079 0-0.047-0.016-0.079-0.032-0.079-0.024 0-0.063 0.032-0.087 0.079zM24.865 25.805c-0.119 0.119-0.055 0.356 0.087 0.332 0.071-0.016 0.134-0.095 0.134-0.174 0-0.158-0.126-0.245-0.221-0.158zM25.363 26.351c0 0.158 0.032 0.205 0.142 0.182 0.071-0.016 0.134-0.095 0.134-0.182s-0.063-0.166-0.134-0.182c-0.111-0.024-0.142 0.024-0.142 0.182zM9.537 18.655c-0.087 0.055-0.292 0.063-0.498 0.032-0.316-0.047-0.348-0.032-0.348 0.111 0 0.198 0.261 0.482 0.435 0.482 0.198 0 0.577-0.221 0.672-0.387 0.158-0.308 0.047-0.411-0.261-0.237zM22.329 18.837c0.126 0.158 0.261 0.284 0.3 0.284 0.095 0-0.3-0.498-0.427-0.537-0.055-0.024 0 0.095 0.126 0.253zM15.407 18.726c0 0.040 0.040 0.079 0.079 0.079 0.047 0 0.079-0.040 0.079-0.079 0-0.047-0.032-0.079-0.079-0.079-0.040 0-0.079 0.032-0.079 0.079zM22.993 19.587c0 0.040 0.040 0.103 0.079 0.126 0.047 0.024 0.079 0.016 0.079-0.032 0-0.040-0.032-0.103-0.079-0.126-0.040-0.024-0.079-0.016-0.079 0.032zM20.211 20.836c0.229 0.016 0.585 0.016 0.79 0s0.016-0.024-0.419-0.024-0.601 0.008-0.371 0.024zM14.601 20.994c0.055 0.024 0.126 0.016 0.15-0.008 0.032-0.024-0.016-0.047-0.103-0.040-0.087 0-0.111 0.024-0.047 0.047zM46.744 23.356c-0.032 0.111-0.039 0.229-0.016 0.245 0.024 0.024 0.063-0.055 0.095-0.166 0.024-0.119 0.032-0.229 0.008-0.253-0.016-0.024-0.063 0.055-0.087 0.174zM2.686 25.181c0 0.047-0.071 0.103-0.166 0.126-0.174 0.047-0.142 0.213 0.039 0.213 0.103 0 0.237-0.316 0.166-0.387-0.024-0.016-0.039 0-0.039 0.047z"></path>
</symbol>
<symbol id="icon-eiffel" viewBox="0 0 12 32">
<path d="M6.183 0.017v0.095c0.052 0.004 0.105 0.027 0.107-0.056l0.019 0.111-0.122 0.012c-0.002 0.025-0.006 0.049-0.006 0.073-0 0.364-0.004 0.728 0.003 1.091 0.001 0.062 0.047 0.122 0.066 0.184 0.011 0.038 0.017 0.081 0.013 0.121-0.007 0.056 0.037 0.128-0.043 0.168-0.006 0.003-0.003 0.039 0.007 0.052 0.054 0.075 0.054 0.221 0.002 0.291-0.011 0.014-0.010 0.050 0.001 0.065 0.048 0.065 0.050 0.227 0.002 0.287-0.011 0.014-0.015 0.056-0.011 0.057 0.075 0.030 0.033 0.095 0.045 0.143 0.006 0.025 0.010 0.062 0.027 0.070 0.201 0.099 0.309 0.272 0.387 0.47 0.008 0.021 0.017 0.041 0.028 0.068h0.158v0.24l-0.098 0.046 0.086 0.052v0.267l-0.079 0.012c-0.027 0.068 0.017 0.068 0.062 0.067 0.041-0.001 0.083-0 0.137-0l0.031 0.437c-0.068 0.060-0.122 0.094-0.159 0.142-0.119 0.152-0.153 0.338-0.175 0.522-0.016 0.131-0.019 0.266-0.014 0.398 0.042 1.152 0.081 2.303 0.132 3.455 0.058 1.29 0.12 2.58 0.193 3.869 0.056 1.003 0.126 2.006 0.2 3.009 0.054 0.742 0.112 1.484 0.192 2.224 0.073 0.673 0.178 1.342 0.269 2.013 0.013 0.096 0.029 0.192 0.044 0.295h0.363c0.013 0.072 0.028 0.135 0.035 0.199 0.002 0.014-0.018 0.044-0.031 0.045-0.073 0.008-0.108 0.058-0.127 0.117-0.057 0.175-0.090 0.353-0.044 0.538 0.267 1.057 0.524 2.116 0.803 3.169 0.114 0.428 0.276 0.843 0.413 1.264 0.016 0.048 0.042 0.056 0.086 0.055 0.146-0.002 0.293-0.001 0.439-0.001v0.752l0.16 0.015c-0.117 0.155-0.175 0.424-0.123 0.566l-0.053 0.031c0.183 0.375 0.363 0.746 0.544 1.118 0.527 1.080 1.054 2.159 1.58 3.239 0.030 0.062 0.070 0.103 0.136 0.133 0.102 0.047 0.194 0.117 0.291 0.178-0.024 0.11 0.060 0.156 0.123 0.215-0.022 0.006-0.044 0.016-0.067 0.016-0.817 0.001-1.633 0.001-2.45 0.001 0.019-0.067 0.053-0.135-0.013-0.199-0.010-0.009-0.006-0.048 0.005-0.060 0.054-0.061 0.076-0.131 0.076-0.211 0.001-0.517-0.173-0.983-0.415-1.431-0.515-0.95-1.718-1.791-2.928-1.873-1.012-0.069-1.91 0.191-2.702 0.822-0.692 0.551-1.136 1.253-1.294 2.127-0.035 0.193-0.089 0.399 0.056 0.581 0.007 0.009 0.005 0.039-0.004 0.046-0.070 0.063-0.029 0.131-0.014 0.198-0.817 0-1.633 0-2.45-0.001-0.022-0-0.044-0.010-0.067-0.016 0.060-0.057 0.141-0.102 0.123-0.221 0.106-0.060 0.223-0.122 0.336-0.192 0.035-0.022 0.065-0.061 0.083-0.099 0.499-1.019 0.996-2.040 1.493-3.060 0.19-0.389 0.379-0.778 0.569-1.167 0.024-0.049 0.040-0.091 0.028-0.151-0.015-0.078 0.006-0.163-0.002-0.243-0.012-0.12-0.034-0.24-0.14-0.345l0.167-0.015v-0.753h0.37c0.137-0 0.133-0.002 0.183-0.129 0.337-0.852 0.535-1.744 0.756-2.628 0.147-0.589 0.3-1.177 0.442-1.768 0.043-0.178 0.010-0.359-0.064-0.526-0.017-0.038-0.073-0.058-0.109-0.090-0.015-0.013-0.036-0.035-0.035-0.051 0.007-0.061 0.022-0.122 0.036-0.192h0.362c0.045-0.303 0.095-0.599 0.132-0.895 0.090-0.719 0.183-1.437 0.258-2.157 0.056-0.538 0.088-1.079 0.127-1.619 0.051-0.695 0.101-1.39 0.145-2.086 0.035-0.554 0.061-1.109 0.089-1.664 0.043-0.854 0.087-1.709 0.127-2.563 0.037-0.774 0.074-1.548 0.104-2.322 0.023-0.588 0.041-1.177 0.050-1.766 0.003-0.228-0.041-0.454-0.154-0.658-0.041-0.074-0.087-0.15-0.199-0.165l0.033-0.461c0.072-0.009 0.138-0.017 0.204-0.027 0.003-0 0-0.030 0-0.050l-0.084-0.008v-0.275l0.085-0.046-0.096-0.047v-0.239h0.158c0.062-0.171 0.136-0.329 0.274-0.446 0.013-0.011 0.023-0.027 0.038-0.033 0.101-0.040 0.152-0.108 0.131-0.221-0.002-0.011 0.024-0.025 0.029-0.039 0.007-0.021 0.018-0.050 0.009-0.065-0.056-0.089-0.056-0.197 0.003-0.297 0.008-0.014 0.008-0.041 0-0.055-0.059-0.098-0.060-0.212-0.003-0.296 0.009-0.013 0.012-0.047 0.004-0.053-0.095-0.075-0.027-0.174-0.039-0.26-0.005-0.033 0.035-0.071 0.045-0.109 0.016-0.059 0.032-0.119 0.032-0.179 0.003-0.331 0.001-0.661 0.002-0.992v-0.093l-0.124-0.012 0.013-0.099 0.109 0.067v-0.119h0.067zM5.407 22.134c-0.199 1.212-0.378 2.419-0.636 3.613h2.753l-0.643-3.613h-1.475z"></path>
</symbol>
</defs>
</svg>
