<?xml version="1.0" standalone="no"?>
<!DOCTYPE svg PUBLIC "-//W3C//DTD SVG 20010904//EN"
 "http://www.w3.org/TR/2001/REC-SVG-20010904/DTD/svg10.dtd">
<svg version="1.0" xmlns="http://www.w3.org/2000/svg"
 width="1000.000000pt" height="653.000000pt" viewBox="0 0 1000.000000 653.000000"
 preserveAspectRatio="xMidYMid meet">

<g transform="translate(0.000000,653.000000) scale(0.100000,-0.100000)"
fill="#000000" stroke="none">
<path d="M6898 6408 c-20 -75 -17 -88 5 -20 9 26 19 56 23 65 3 9 2 17 -3 17
-5 0 -16 -28 -25 -62z"/>
<path d="M6871 6314 c0 -11 3 -14 6 -6 3 7 2 16 -1 19 -3 4 -6 -2 -5 -13z"/>
<path d="M6856 6275 c-9 -26 -7 -32 5 -12 6 10 9 21 6 23 -2 3 -7 -2 -11 -11z"/>
<path d="M6841 6223 c-1 -6 -4 -20 -7 -30 -5 -17 -5 -17 6 0 6 10 9 23 6 30
-3 9 -5 9 -5 0z"/>
<path d="M6811 6133 c-1 -6 -4 -20 -7 -30 -5 -17 -5 -17 6 0 6 10 9 23 6 30
-3 9 -5 9 -5 0z"/>
<path d="M6791 6064 c0 -11 3 -14 6 -6 3 7 2 16 -1 19 -3 4 -6 -2 -5 -13z"/>
<path d="M6761 5964 c0 -11 3 -14 6 -6 3 7 2 16 -1 19 -3 4 -6 -2 -5 -13z"/>
<path d="M6730 5870 c-1 -8 -2 -18 -2 -21 1 -4 -12 -9 -29 -13 -16 -3 -51 -20
-77 -38 -83 -58 -83 -58 -266 -58 -447 0 -1361 -52 -1781 -101 -223 -26 -562
-70 -585 -76 -14 -3 -32 -7 -40 -9 -67 -12 -98 -17 -120 -16 -14 0 -27 -4 -31
-9 -3 -5 -30 -10 -60 -11 -30 -2 -56 -6 -59 -9 -10 -10 -190 -40 -202 -33 -7
4 -9 3 -5 -1 6 -8 -67 -33 -98 -34 -5 -1 33 24 85 54 101 58 110 67 37 36
-164 -70 -413 -257 -628 -471 -217 -216 -283 -293 -433 -500 -38 -52 -71 -97
-73 -99 -1 -2 -6 -2 -9 2 -3 3 9 26 27 51 18 25 30 47 28 49 -2 1 -31 -26 -64
-62 -33 -35 -50 -58 -38 -52 26 13 30 7 9 -14 -10 -10 -16 -11 -24 -3 -8 8
-40 -16 -117 -86 -58 -54 -105 -104 -105 -111 0 -19 21 -23 144 -27 l108 -3
17 55 c10 30 28 75 40 98 19 37 24 42 34 29 12 -14 216 -90 342 -127 95 -27
213 -52 253 -52 572 -6 1886 42 2177 78 66 8 129 16 140 17 14 1 21 -5 23 -20
3 -18 -45 -56 -294 -233 -163 -116 -304 -214 -313 -218 -9 -3 -23 -12 -31 -20
-13 -13 -10 -14 17 -10 18 2 30 1 27 -4 -3 -4 3 -8 13 -8 29 0 89 -56 112
-103 31 -63 37 -151 16 -223 -36 -127 -104 -183 -359 -298 -304 -138 -880
-318 -1154 -361 -51 -8 -52 -10 27 125 75 129 194 291 320 436 20 22 7 10 -29
-27 -36 -37 -92 -103 -124 -146 l-59 -79 -61 7 c-52 7 -298 18 -986 44 -74 3
-259 10 -410 15 -463 17 -560 22 -565 30 -11 18 72 245 135 367 38 73 71 145
74 160 7 31 -11 74 -33 81 -11 4 -10 -1 2 -19 30 -42 21 -78 -42 -178 -45 -73
-102 -197 -134 -296 -25 -76 -57 -286 -57 -373 l0 -40 -38 10 c-22 5 -63 28
-93 50 -50 37 -52 38 -24 8 17 -17 55 -46 85 -64 30 -18 56 -38 56 -44 1 -7 2
-23 3 -37 0 -14 12 -37 25 -49 38 -39 365 -138 599 -182 91 -17 117 -17 370
-5 307 14 647 43 722 62 57 14 117 50 138 83 12 18 34 25 118 40 326 56 820
209 1131 351 l137 62 71 -80 70 -81 -97 -43 c-54 -24 -111 -49 -126 -55 -15
-5 -26 -12 -24 -14 5 -5 138 43 205 74 l44 20 65 -37 c47 -26 78 -52 107 -91
22 -30 68 -84 101 -120 59 -64 135 -159 170 -213 12 -19 14 -31 7 -40 -6 -6
-36 -63 -67 -125 -55 -111 -56 -114 -38 -135 14 -16 10 -15 -17 5 -19 14 -88
58 -152 97 -136 82 -130 81 -373 56 -311 -32 -673 -38 -1315 -21 -1081 30
-1292 45 -1860 137 -215 35 -449 84 -506 106 -11 4 -15 3 -10 -5 8 -14 90 -38
231 -67 184 -38 168 -30 158 -84 -4 -25 -8 -96 -8 -157 l0 -112 -24 9 c-15 6
-28 6 -36 -1 -9 -8 -14 -1 -18 30 -6 46 -45 101 -67 94 -9 -2 -20 5 -25 17 -6
12 -30 29 -56 39 -55 20 -132 34 -109 20 12 -8 11 -10 -7 -10 -15 0 -21 5 -17
13 3 9 -11 20 -41 31 -38 15 -45 22 -45 45 0 42 30 134 47 148 13 10 7 12 -33
8 -27 -2 -82 -7 -122 -9 -40 -3 -87 -10 -105 -16 -27 -9 -194 -33 -317 -45
-48 -5 -48 -5 -22 -16 15 -6 30 -5 42 1 26 14 140 29 146 19 2 -4 -16 -11 -40
-14 -26 -4 -44 -12 -43 -19 1 -6 -3 -10 -9 -9 -5 1 -27 -2 -47 -7 -24 -5 -37
-4 -37 2 0 6 -7 7 -16 4 -9 -4 -27 1 -40 9 -23 14 -24 14 -24 -5 0 -26 -14
-25 -51 1 -16 11 -29 16 -29 11 0 -6 6 -12 13 -15 9 -3 9 -7 0 -17 -11 -12
-34 -15 -131 -19 l-42 -1 0 -591 1 -591 37 6 c20 4 73 13 117 21 138 25 269
47 310 51 22 2 65 8 95 13 39 6 57 6 63 -3 4 -7 10 -8 15 -1 4 6 39 11 77 13
103 4 107 4 118 -7 8 -8 -3 -11 -36 -11 -25 0 -67 -7 -92 -16 -25 -8 -56 -12
-68 -9 -14 4 -18 3 -9 -3 8 -5 -33 -15 -115 -26 -70 -10 -175 -29 -233 -42
-58 -14 -118 -27 -135 -30 -16 -3 -32 -8 -34 -10 -9 -9 49 -3 149 16 58 10
231 40 385 65 154 24 325 55 380 66 55 12 113 21 128 21 38 -2 25 15 -23 28
-26 7 -52 26 -80 57 -23 26 -37 49 -31 51 5 2 7 10 4 18 -7 18 2 18 32 -2 13
-9 30 -14 37 -12 7 3 18 -2 25 -11 10 -14 11 -14 9 4 -2 15 -11 20 -35 22 -17
1 -39 7 -48 15 -21 17 -60 104 -69 154 -9 54 1 40 31 -41 37 -103 92 -148 115
-92 5 12 9 17 9 10 1 -7 7 -10 14 -7 8 3 20 -2 27 -10 11 -14 8 -15 -18 -12
-22 2 -29 0 -25 -10 6 -16 39 -28 52 -19 5 3 13 0 17 -6 4 -8 3 -9 -4 -5 -7 4
-23 -4 -36 -17 -13 -13 -32 -28 -43 -32 -17 -8 -17 -8 0 -12 9 -3 17 -11 17
-19 0 -18 21 -13 88 18 31 15 55 19 84 15 22 -3 38 -4 36 -1 -9 9 -129 84
-135 84 -3 0 1 -8 8 -17 13 -16 12 -17 -3 -4 -10 7 -16 17 -13 21 2 4 -13 21
-33 38 -34 27 -39 28 -49 14 -9 -14 -12 -15 -27 -3 -21 17 -46 103 -46 155 0
46 21 128 27 109 3 -7 10 -13 18 -13 7 0 18 -12 24 -27 16 -39 31 -137 24
-162 -6 -24 20 -49 125 -121 136 -92 220 -122 532 -190 376 -82 785 -135 1190
-156 143 -7 238 5 465 61 195 47 176 48 225 -15 68 -87 77 -94 141 -98 105 -8
177 54 189 162 l7 61 2 -56 c4 -190 -236 -255 -392 -106 -24 24 -46 48 -48 55
-3 9 -21 7 -69 -8 -92 -28 -300 -67 -400 -75 -47 -3 -134 -1 -195 4 -60 6
-141 13 -180 16 -418 34 -1067 149 -1294 230 -27 9 -58 13 -80 9 -48 -8 -141
-34 -141 -40 0 -14 239 -83 349 -100 29 -5 57 -18 80 -39 48 -44 154 -111 187
-119 14 -4 24 -9 21 -12 -3 -3 -24 0 -47 7 -34 10 -43 10 -50 0 -6 -10 -12
-11 -26 -2 -18 10 -18 10 3 11 12 0 25 5 29 11 5 9 -1 10 -21 5 -16 -4 -78
-16 -139 -27 -279 -50 -751 -142 -770 -150 -17 -8 -15 -8 9 -4 17 3 73 12 125
20 52 9 110 18 128 21 25 5 32 3 32 -9 0 -9 8 -17 18 -19 25 -6 -37 -37 -118
-60 -50 -14 -56 -17 -25 -14 22 2 49 1 60 -3 15 -6 5 -10 -37 -15 -32 -4 -58
-11 -58 -16 0 -5 -12 -11 -27 -13 -16 -3 3 -3 40 -1 67 3 68 3 45 -15 -13 -10
-31 -20 -40 -24 -21 -7 -24 -27 -5 -27 8 0 7 -4 -3 -10 -12 -8 -12 -10 5 -10
18 -1 17 -2 -4 -11 -15 -6 -21 -14 -17 -25 3 -9 6 -18 6 -20 0 -2 10 -4 23 -4
29 -1 -47 -29 -83 -31 -20 -1 -21 -2 -5 -6 11 -2 30 -6 43 -9 13 -2 21 -8 18
-13 -3 -4 5 -7 17 -7 31 1 36 -34 5 -35 -14 -1 -7 -5 20 -12 42 -10 57 -26 25
-28 -16 0 -16 -1 1 -8 18 -7 18 -8 2 -14 -10 -4 -29 -7 -42 -7 -13 0 -24 -4
-24 -10 0 -5 -10 -10 -22 -10 -35 -1 -85 -25 -70 -34 7 -4 12 -3 12 2 0 6 22
13 50 17 27 4 50 11 50 17 0 6 10 8 22 5 13 -4 41 -2 62 3 41 9 96 3 96 -10 0
-5 -24 -13 -53 -18 -75 -15 -315 -81 -296 -81 25 -1 132 20 154 30 11 5 54 16
95 24 124 25 284 55 295 55 23 0 -34 -28 -70 -34 -52 -10 -63 -18 -39 -27 17
-7 17 -8 2 -8 -19 -1 -25 -35 -8 -46 16 -10 114 -15 120 -6 3 5 49 11 103 13
66 4 95 2 88 -5 -5 -5 -33 -12 -60 -15 -28 -2 -51 -8 -51 -12 0 -4 -26 -11
-57 -15 -88 -10 -139 -25 -122 -35 7 -5 16 -5 19 -1 3 4 25 11 50 14 25 3 78
11 118 17 81 12 141 10 87 -4 -16 -4 -41 -13 -54 -19 -13 -7 -46 -12 -73 -11
-46 0 -48 -1 -26 -12 l23 -13 -24 -1 c-13 0 -22 -3 -19 -6 3 -3 41 2 84 11 44
9 108 18 144 20 36 2 79 9 95 15 17 7 47 14 69 18 30 4 38 2 34 -9 -3 -8 -20
-17 -39 -21 -82 -16 -135 -31 -144 -39 -5 -5 -19 -9 -32 -9 -13 0 -23 -4 -23
-8 0 -11 173 5 252 24 37 9 72 12 79 8 18 -11 -19 -24 -48 -17 -13 3 -23 0
-23 -6 0 -6 -7 -11 -16 -11 -9 0 -48 -11 -86 -25 -38 -14 -84 -25 -101 -25
-27 -1 -29 -2 -14 -11 11 -6 30 -8 45 -3 15 4 36 9 47 10 45 6 122 23 150 33
42 15 205 40 205 31 0 -4 -36 -15 -80 -25 -45 -10 -89 -25 -98 -32 -15 -12
-13 -13 18 -7 19 3 38 11 41 17 4 6 15 7 25 2 18 -8 18 -8 -1 -13 -11 -2 -24
-8 -30 -13 -5 -5 -24 -9 -42 -9 -18 0 -33 -4 -33 -9 0 -5 -24 -15 -53 -21 -50
-11 -115 -39 -90 -40 7 0 72 15 145 34 138 35 214 51 236 49 6 0 12 3 12 8 0
5 12 9 28 9 15 0 59 9 97 20 83 24 100 25 61 5 -15 -8 -37 -15 -47 -15 -10 0
-21 -4 -24 -10 -3 -5 -15 -10 -26 -10 -10 0 -27 -4 -37 -9 -62 -32 -105 -44
-120 -34 -13 7 -21 7 -29 -3 -10 -10 -2 -12 43 -9 30 2 60 7 67 13 19 15 85
24 92 12 3 -5 0 -10 -7 -11 -44 -2 -203 -51 -258 -79 -9 -4 -39 -11 -68 -15
-29 -4 -52 -11 -52 -17 0 -11 106 0 133 14 10 5 26 7 34 4 9 -4 24 1 35 11 10
9 40 20 66 24 81 12 165 30 210 45 44 14 69 18 60 8 -10 -9 -232 -84 -251 -84
-10 0 -37 -9 -59 -20 -23 -11 -52 -20 -64 -20 -13 0 -25 -4 -28 -9 -3 -4 -32
-11 -64 -15 -33 -4 -68 -14 -78 -22 -18 -14 -17 -15 16 -9 19 4 55 11 80 15
25 5 86 20 135 35 50 15 102 28 117 30 14 2 32 6 38 10 6 4 18 1 26 -6 15 -12
21 -10 85 21 9 5 40 7 70 6 30 -2 79 4 109 12 30 7 90 22 133 33 43 10 88 24
100 30 21 9 21 9 -2 -10 -13 -12 -30 -21 -39 -21 -23 0 -85 -23 -100 -37 -7
-7 -23 -13 -35 -13 -15 0 -18 -3 -10 -11 8 -8 23 -7 55 4 23 8 77 25 118 36
41 12 96 28 121 36 72 23 104 18 39 -7 -30 -11 -59 -24 -65 -29 -5 -5 -24 -9
-41 -9 -18 0 -36 -4 -39 -10 -8 -13 36 -13 72 1 24 9 26 8 13 -4 -8 -8 -64
-27 -125 -42 -60 -15 -117 -31 -125 -36 -12 -8 -11 -9 5 -5 115 30 149 37 161
32 9 -3 12 -1 9 4 -4 6 6 10 22 11 120 4 152 11 123 29 -9 6 -10 10 -3 10 7 0
16 -8 22 -17 8 -15 12 -16 22 -6 17 17 29 16 29 -2 0 -8 5 -15 10 -15 6 0 10
4 10 9 0 5 17 12 38 15 91 16 126 23 112 25 -13 1 -13 2 0 11 8 5 33 7 54 3
30 -5 37 -3 31 6 -6 10 -3 10 16 0 23 -12 23 -12 4 -20 -11 -4 -29 -5 -40 -3
-12 3 -30 -4 -42 -16 -12 -11 -30 -20 -39 -20 -30 0 -123 -33 -118 -42 3 -4 1
-8 -5 -8 -5 0 -12 6 -14 13 -4 9 -6 9 -6 0 -1 -20 -36 -15 -56 7 -10 11 -25
20 -34 19 -10 0 -8 -3 7 -9 12 -5 22 -12 22 -14 0 -9 -64 -35 -124 -51 -32 -8
-61 -16 -63 -19 -2 -2 -1 -16 3 -31 4 -15 9 -23 13 -18 12 17 60 35 76 29 9
-3 13 -2 10 4 -4 6 8 10 29 10 19 0 58 9 85 20 28 10 65 21 83 23 18 2 43 9
56 16 13 7 31 11 40 9 18 -4 -11 -15 -170 -67 -53 -17 -108 -31 -122 -31 -13
0 -28 -4 -31 -10 -3 -5 2 -10 12 -10 20 0 78 16 338 90 61 18 137 38 170 46
113 28 130 32 185 48 30 8 56 13 59 11 2 -3 -1 -5 -8 -5 -7 0 -10 -4 -7 -8 2
-4 -3 -8 -12 -9 -20 -2 -110 -31 -134 -44 -10 -5 -25 -9 -33 -9 -17 0 -123
-34 -170 -55 -16 -7 -56 -18 -87 -25 -43 -8 -56 -15 -51 -26 6 -17 63 -19 63
-1 0 8 15 12 43 12 24 0 60 10 84 22 24 13 50 20 58 16 9 -3 21 2 28 10 31 41
179 67 240 42 17 -7 45 -4 107 10 14 3 -2 -5 -34 -18 -33 -13 -55 -26 -50 -30
6 -3 33 5 60 18 27 14 56 25 64 25 13 0 13 1 0 10 -13 9 -13 10 0 10 8 0 21
-4 28 -8 14 -9 3 -16 -86 -51 -32 -12 -66 -18 -85 -15 -30 4 -31 4 -9 -8 19
-10 36 -7 100 15 43 15 93 27 112 26 l35 -1 -45 -15 c-25 -8 -58 -17 -74 -19
-16 -2 -37 -11 -47 -20 -10 -9 -36 -18 -58 -21 -23 -3 -41 -10 -41 -14 0 -14
277 -11 303 2 16 9 22 9 25 0 3 -8 779 -11 3073 -11 l3069 0 0 892 c0 694 -3
889 -12 880 -7 -7 -25 -12 -40 -12 -23 0 -28 4 -28 25 0 23 -2 24 -20 15 -14
-8 -26 -8 -41 0 -16 9 -28 8 -55 -5 -19 -9 -39 -13 -45 -10 -6 4 -16 -1 -24
-11 -11 -15 -16 -17 -26 -7 -17 17 15 42 54 43 15 0 30 7 33 15 4 8 15 15 25
15 10 0 19 5 19 10 0 13 -15 13 -38 0 -9 -5 -36 -14 -59 -20 -23 -6 -49 -18
-58 -26 -15 -15 -15 -14 -9 10 6 25 4 26 -35 26 -23 0 -41 -4 -41 -9 0 -5 -24
-14 -52 -19 -29 -6 -65 -14 -80 -18 -22 -5 -28 -3 -28 10 0 9 7 16 15 16 22 0
18 17 -4 23 -13 3 -18 0 -15 -8 7 -18 -121 -34 -224 -28 -59 3 -94 11 -118 25
-19 11 -43 18 -55 15 -33 -9 -49 3 -50 37 -2 27 -2 27 -6 6 -3 -13 -14 -36
-26 -50 -16 -20 -19 -21 -13 -5 27 74 59 229 69 333 11 117 13 125 37 137 98
52 146 175 175 455 16 149 17 167 5 130 l-8 -25 -1 26 c-1 14 2 29 6 32 11 12
11 60 0 100 -8 29 -8 44 1 58 7 11 10 25 6 31 -4 6 -3 8 3 5 6 -4 11 4 11 19
0 15 6 30 13 35 11 6 11 11 1 21 -9 9 -12 9 -12 -5 0 -9 -4 -17 -9 -17 -5 0
-12 -8 -14 -17 -3 -10 -5 -2 -6 17 -1 42 -28 197 -36 210 -3 5 0 12 6 16 6 3
7 9 3 13 -5 3 -7 40 -4 81 l4 75 7 -50 c3 -28 5 -5 2 50 -2 55 1 142 7 194 8
75 8 96 -2 103 -9 5 -10 8 -1 8 7 0 13 20 15 53 l3 52 65 -1 c48 -1 57 0 35 6
-16 4 -45 8 -62 9 -26 1 -33 5 -33 21 0 36 -19 21 -23 -17 l-4 -38 -1 43 c-2
31 2 42 13 42 8 0 15 3 15 8 0 12 548 1 570 -13 4 -3 10 2 14 10 9 26 76 16
76 -11 0 -10 15 -14 55 -14 l55 0 0 375 0 375 -22 1 c-64 4 -94 6 -103 9 -5 1
-14 1 -20 0 -13 -3 -123 1 -205 7 -36 2 -102 6 -147 8 -45 1 -85 5 -90 7 -19
10 -218 3 -216 -8 1 -6 7 -107 12 -225 13 -250 13 -428 2 -484 -6 -28 -9 8
-10 120 -2 265 -27 577 -67 846 l-16 105 -286 53 c-158 30 -323 60 -367 68
-87 15 -359 63 -664 118 -239 43 -242 43 -264 6 -22 -38 -22 -69 8 -317 13
-115 32 -294 40 -399 8 -104 20 -215 26 -245 6 -30 51 -142 100 -249 49 -107
88 -196 86 -197 -2 -2 -14 17 -26 44 l-22 47 -62 -1 c-81 -1 -83 -1 -101 -20
-15 -14 -16 -14 -16 1 0 27 -38 -1 -43 -32 -2 -16 -6 67 -8 182 l-3 210 -6
-173 c-3 -100 -9 -172 -15 -171 -5 0 -12 -8 -16 -18 -6 -17 -7 -17 -14 2 -13
38 -22 50 -43 53 -31 5 -62 -15 -62 -40 0 -16 -3 -18 -13 -9 -10 7 -24 8 -48
0 -19 -5 -65 -7 -106 -3 -73 6 -108 0 -188 -37 -22 -10 -64 -27 -93 -39 -29
-11 -81 -33 -115 -49 -34 -16 -156 -73 -272 -126 -115 -54 -258 -121 -317
-149 -85 -42 -108 -49 -108 -36 0 9 -6 22 -12 29 -11 10 -10 11 4 6 22 -9 59
12 52 29 -5 12 -10 12 -40 0 -21 -9 -34 -10 -34 -4 0 6 8 13 18 16 26 8 162
74 200 97 54 32 29 31 -37 -2 -73 -37 -85 -38 -122 -7 -15 13 -34 26 -41 28
-13 5 -23 128 -10 128 4 -1 23 -14 42 -30 45 -39 81 -39 130 0 l38 30 29 -28
c47 -48 89 -49 185 -6 70 31 96 37 166 39 104 4 148 25 178 84 20 40 33 49
174 122 233 120 282 164 324 293 33 99 45 409 26 665 -22 287 -44 376 -106
430 -19 17 -36 31 -38 31 -1 0 -41 13 -88 30 -251 87 -353 52 -545 -185 -117
-145 -334 -469 -374 -559 -10 -22 -21 -75 -25 -117 l-7 -77 -26 16 c-45 25
-75 10 -101 -50 l-22 -53 -15 61 c-9 42 -25 74 -49 102 -43 50 -60 11 140 322
249 388 493 683 613 744 31 15 70 26 95 27 39 0 40 1 18 10 -13 6 -41 7 -61 4
-31 -5 -38 -3 -42 12 -3 13 -5 14 -7 3z m-818 -197 c-40 -2 -103 -2 -140 0
-37 2 -4 3 73 3 77 0 107 -2 67 -3z m136 0 c-10 -2 -26 -2 -35 0 -10 3 -2 5
17 5 19 0 27 -2 18 -5z m-503 -13 c-77 -4 -214 -10 -305 -13 l-165 -5 180 12
c99 7 236 13 305 13 l125 0 -140 -7z m-685 -41 c-113 -10 -244 -21 -292 -25
-48 -4 -86 -10 -84 -13 2 -3 -24 -6 -57 -7 -34 0 -116 -9 -182 -19 -66 -10
-132 -19 -148 -20 -15 -1 -30 -5 -35 -10 -4 -4 18 -5 48 -1 30 3 69 2 85 -3
25 -8 26 -9 8 -10 -13 -1 -23 -6 -23 -12 0 -7 9 -9 23 -5 12 4 36 9 52 11 31
6 -39 -18 -87 -29 -46 -11 -34 -29 15 -22 23 3 68 9 100 12 31 4 57 11 57 16
0 6 10 8 23 5 12 -3 31 1 41 9 23 16 46 18 46 4 0 -5 -6 -10 -14 -10 -13 0
-86 -89 -86 -105 0 -5 35 -5 77 -1 88 7 126 27 205 108 36 37 55 49 85 52 119
12 163 20 163 28 0 4 19 6 43 3 32 -4 36 -3 17 4 -23 8 -23 9 10 10 19 1 53 4
75 7 30 4 36 3 25 -5 -11 -8 -7 -9 20 -5 19 4 41 11 47 16 18 14 244 26 648
34 417 8 497 3 531 -33 30 -32 30 -35 -1 -64 -13 -13 -25 -29 -25 -35 0 -7 -7
-14 -14 -17 -10 -4 -13 -1 -10 7 4 10 -2 12 -19 9 -15 -3 -31 2 -42 14 -13 13
-20 14 -23 5 -2 -7 -20 -12 -42 -12 -21 0 -40 -5 -42 -11 -4 -12 -309 -22
-318 -10 -9 13 -348 -29 -410 -51 -51 -18 -96 -29 -180 -43 -120 -20 -188 -32
-271 -51 -37 -8 -76 -14 -88 -14 -25 0 -91 -30 -91 -42 0 -4 -9 -8 -20 -8 -10
0 -23 -6 -27 -13 -13 -20 -60 -37 -104 -37 -32 0 -42 -4 -46 -20 -4 -14 -14
-20 -34 -20 -15 0 -31 -5 -35 -11 -3 -6 -17 -8 -30 -5 -21 6 -24 3 -24 -19 0
-34 -33 -65 -70 -65 -28 0 -30 -2 -31 -42 l-1 -43 -8 38 c-11 56 -17 54 -36
-10 -10 -32 -22 -61 -27 -64 -5 -4 -4 -10 2 -13 6 -4 11 -23 11 -42 0 -28 4
-34 21 -34 17 0 20 -4 15 -24 -8 -34 12 -86 34 -86 10 0 20 6 23 13 2 6 2 -1
1 -18 l-4 -30 15 30 14 30 1 -43 c0 -26 -4 -41 -10 -37 -5 3 -10 2 -10 -2 0
-5 -22 -9 -50 -8 -48 1 -50 0 -61 -33 -8 -23 -20 -37 -39 -44 -17 -5 -30 -18
-32 -30 -2 -15 -22 -26 -80 -45 -43 -14 -78 -30 -78 -35 0 -5 9 -4 19 2 11 5
30 9 43 9 23 -2 23 -2 1 -6 -12 -2 -25 -13 -28 -24 -5 -16 -12 -19 -31 -15
-14 4 -37 0 -53 -8 -16 -9 -31 -13 -34 -10 -3 4 -16 -1 -29 -10 -22 -15 -20
-16 47 -18 49 -1 57 -3 28 -5 -24 -2 -43 -8 -43 -13 0 -5 -37 -11 -82 -13 -46
-1 0 -4 101 -5 101 -1 182 -4 180 -6 -2 -3 -96 -7 -209 -10 -113 -4 -236 -8
-275 -11 -38 -3 -200 -7 -360 -11 -292 -6 -347 -13 -292 -33 16 -6 36 -11 45
-11 17 0 55 -20 39 -20 -4 0 -37 7 -73 16 -47 12 -62 20 -52 26 9 7 6 8 -10 5
-13 -3 -76 10 -140 29 -64 19 -125 33 -135 30 -9 -2 -15 0 -12 5 3 5 -49 8
-120 8 -69 -1 -128 1 -130 3 -8 8 183 259 289 378 216 244 388 404 584 542
133 93 141 96 442 147 381 65 634 96 1185 144 22 2 69 4 105 4 36 0 -27 -8
-140 -18z m2125 1 c3 -6 -1 -7 -9 -4 -18 7 -21 14 -7 14 6 0 13 -4 16 -10z
m57 -12 c-9 -9 -15 -9 -24 0 -9 9 -7 12 12 12 19 0 21 -3 12 -12z m110 -24
c40 -14 80 -33 88 -42 13 -14 13 -15 0 -5 -8 5 -51 23 -95 38 -44 15 -82 29
-84 31 -11 10 25 1 91 -22z m-305 10 c-3 -3 -12 -4 -19 -1 -8 3 -5 6 6 6 11 1
17 -2 13 -5z m192 -45 c141 -39 180 -69 205 -154 31 -104 57 -450 52 -685 -6
-284 -39 -344 -245 -449 -137 -70 -171 -84 -171 -71 0 5 10 12 22 16 13 4 27
13 33 20 5 7 19 14 30 17 18 4 18 5 -2 6 -12 0 -25 6 -28 11 -11 18 -28 11
-22 -9 3 -13 -1 -21 -14 -24 -15 -4 -19 0 -19 21 0 16 -11 37 -25 51 -14 13
-25 29 -25 37 0 14 -20 55 -31 64 -4 3 -9 15 -13 28 -4 12 -12 22 -17 22 -5 0
-9 9 -9 20 0 11 -7 23 -15 26 -8 3 -17 14 -20 23 -6 19 -69 43 -91 34 -8 -3
-14 -13 -14 -24 0 -10 -11 -30 -25 -45 -15 -16 -25 -40 -26 -58 0 -17 -3 -25
-6 -18 -2 6 -11 12 -18 12 -18 0 -103 105 -111 136 -10 39 5 107 28 132 30 31
136 62 222 63 39 1 63 3 54 6 -16 4 -18 19 -18 131 l0 127 20 -25 20 -25 20
25 19 25 -28 9 c-21 6 -31 17 -36 40 -7 31 -7 31 -14 6 -4 -14 -12 67 -18 180
l-11 205 26 28 c15 16 47 42 71 58 38 25 54 29 110 29 35 0 99 -10 140 -21z
m-399 -118 c-5 -11 -15 -23 -21 -27 -6 -3 -3 5 6 20 20 30 30 35 15 7z m-5
-406 l8 -254 -29 -6 c-16 -3 -54 -12 -84 -20 -30 -7 -57 -10 -60 -5 -3 5 -19
11 -35 14 -17 3 -23 3 -15 -1 8 -3 21 -12 29 -20 11 -12 11 -16 -5 -28 -20
-15 -30 -18 -54 -16 -9 1 -11 -1 -5 -6 11 -8 12 -66 2 -93 -3 -8 -7 -23 -9
-34 -3 -18 -4 -18 -27 1 l-23 19 26 17 c19 13 26 26 26 50 -1 30 -1 31 -15 13
-8 -11 -15 -16 -15 -10 0 5 -5 1 -11 -9 -6 -9 -15 -14 -21 -11 -8 5 -9 1 -5
-10 7 -18 10 -19 -71 29 -33 20 -34 20 -28 78 3 32 14 71 24 85 10 15 22 36
26 46 8 23 96 156 102 156 7 0 -5 -20 -24 -42 -7 -9 -11 -22 -6 -29 4 -7 3
-10 -4 -5 -6 3 -22 -18 -39 -51 -16 -32 -36 -69 -45 -83 -9 -14 -16 -41 -16
-60 -1 -24 2 -30 8 -20 5 8 24 20 42 26 26 9 33 16 31 35 -1 13 0 17 3 9 2 -8
16 -20 30 -27 32 -15 68 -1 120 47 l38 34 -24 7 -25 6 25 10 c28 12 54 39 64
66 3 11 15 21 26 24 17 5 20 13 19 67 -1 33 -3 53 -6 44 -6 -22 -34 -23 -73
-3 -19 10 -30 11 -30 5 0 -6 -5 -8 -11 -5 -6 4 -8 13 -5 20 3 8 -4 13 -20 13
-13 0 -24 -6 -24 -12 -1 -13 -50 -75 -50 -63 0 17 92 147 101 142 4 -3 11 0
15 6 4 8 3 9 -4 5 -24 -15 -10 10 61 104 l72 96 7 -49 c3 -27 9 -163 13 -302z
m1652 249 c-3 -3 -12 -4 -19 -1 -8 3 -5 6 6 6 11 1 17 -2 13 -5z m56 -11 c-7
-2 -19 -2 -25 0 -7 3 -2 5 12 5 14 0 19 -2 13 -5z m70 -10 c-7 -2 -21 -2 -30
0 -10 3 -4 5 12 5 17 0 24 -2 18 -5z m77 -13 c11 -7 5 -8 -20 -4 -43 8 -51 14
-19 14 13 0 31 -5 39 -10z m27 -32 c-3 -7 -5 -2 -5 12 0 14 2 19 5 13 2 -7 2
-19 0 -25z m30 -10 c-3 -7 -5 -2 -5 12 0 14 2 19 5 13 2 -7 2 -19 0 -25z m40
26 c-3 -3 -12 -4 -19 -1 -8 3 -5 6 6 6 11 1 17 -2 13 -5z m173 -29 c36 -7 54
-13 40 -14 -32 0 -180 26 -188 34 -7 7 48 -1 148 -20z m-2751 -49 c-7 -14 -15
-26 -19 -26 -4 0 -22 -29 -40 -64 -18 -36 -43 -75 -56 -87 -13 -12 -24 -27
-24 -32 0 -8 -82 -125 -117 -166 -1 -3 -26 6 -53 19 -45 21 -50 27 -50 56 0
27 -3 32 -17 27 -15 -6 -16 -5 -3 9 8 9 18 14 23 11 4 -2 7 2 8 9 0 7 2 23 5
36 2 12 0 22 -5 22 -5 0 -8 11 -7 25 0 14 7 25 14 25 6 0 12 5 12 11 0 8 5 7
16 -1 13 -11 20 -8 44 18 16 18 34 32 40 32 5 0 20 6 33 13 12 6 23 13 25 14
2 0 -2 10 -9 21 -7 12 -9 27 -4 38 7 17 9 16 14 -8 5 -21 9 -25 21 -18 8 5 25
10 36 10 12 0 25 7 28 16 5 13 15 15 41 11 19 -3 37 -1 41 4 12 20 14 1 3 -25z
m2243 13 c78 -11 151 -25 160 -30 56 -30 93 -235 104 -574 6 -168 5 -184 -16
-245 -39 -116 -70 -178 -93 -184 -35 -9 -221 -7 -236 3 -16 10 -16 10 -25 191
-14 285 -28 461 -48 615 -25 190 -26 205 -20 228 5 21 1 21 174 -4z m275 -11
c-3 -7 -5 -2 -5 12 0 14 2 19 5 13 2 -7 2 -19 0 -25z m346 25 c-7 -2 -21 -2
-30 0 -10 3 -4 5 12 5 17 0 24 -2 18 -5z m-316 -35 c-3 -7 -5 -2 -5 12 0 14 2
19 5 13 2 -7 2 -19 0 -25z m445 15 c114 -19 99 9 128 -243 39 -350 59 -670 41
-670 -6 0 -11 12 -11 28 0 22 -2 24 -11 12 -8 -12 -9 -11 -4 7 3 13 -2 34 -13
53 l-20 31 -4 -98 c-2 -58 -10 -110 -19 -128 l-14 -30 -160 3 c-88 2 -167 6
-177 8 -34 10 -47 76 -63 331 -9 136 -24 313 -34 393 -26 205 -18 260 36 260
13 0 22 4 19 9 -3 5 1 12 10 15 25 10 34 7 34 -10 0 -12 7 -14 30 -9 19 4 30
3 30 -4 0 -6 -6 -11 -12 -12 -32 -1 32 -18 72 -18 34 -1 41 2 30 10 -11 8 -8
9 15 5 22 -5 26 -4 15 3 -11 8 -8 10 16 8 35 -2 36 -23 1 -30 -16 -3 -13 -5 9
-6 24 -1 31 3 30 16 0 9 10 22 24 29 l24 13 -28 10 c-34 13 -39 14 -31 2 8
-14 -12 -23 -36 -16 -17 6 -19 9 -8 16 10 6 8 10 -11 18 -37 14 -16 13 92 -6z
m-1131 -15 c120 -17 159 -26 167 -39 6 -10 18 -73 27 -140 9 -68 18 -126 21
-130 8 -13 16 -156 21 -391 l5 -228 -76 0 -76 0 0 41 c0 36 -2 40 -22 37 -19
-2 -24 -10 -26 -40 -3 -34 -6 -38 -32 -38 -26 0 -33 8 -75 88 -25 48 -54 112
-65 142 -18 54 -43 253 -55 440 -4 52 -11 119 -16 149 -5 30 -9 72 -9 93 0 47
-3 47 211 16z m673 -73 c4 -40 3 -53 -3 -40 -9 19 -15 113 -7 104 2 -2 6 -31
10 -64z m23 3 c-3 -8 -6 -5 -6 6 -1 11 2 17 5 13 3 -3 4 -12 1 -19z m-2000
-60 c-3 -7 -5 -2 -5 12 0 14 2 19 5 13 2 -7 2 -19 0 -25z m2010 -15 c-3 -10
-5 -4 -5 12 0 17 2 24 5 18 2 -7 2 -21 0 -30z m-20 -50 c-3 -10 -5 -2 -5 17 0
19 2 27 5 18 2 -10 2 -26 0 -35z m-3981 21 l42 -5 -5 -62 c-3 -49 0 -68 15
-93 24 -38 77 -64 131 -64 30 0 41 -4 41 -15 0 -11 -13 -15 -52 -16 -64 -1
-174 -16 -135 -18 37 -1 31 -21 -14 -44 -19 -10 -33 -21 -32 -25 1 -4 -18 -7
-43 -6 -37 1 -44 -1 -44 -17 0 -15 -7 -19 -40 -19 -28 0 -40 4 -40 15 0 14
-29 35 -47 35 -4 -1 2 -6 15 -13 20 -11 21 -15 9 -31 -18 -25 -34 -14 -47 33
-12 47 -4 77 16 60 17 -14 90 -14 125 0 17 6 6 7 -38 4 -74 -7 -69 -22 -48
157 8 69 15 129 15 133 0 8 71 4 176 -9z m644 6 c111 -11 120 -18 120 -101 0
-54 -2 -59 -33 -78 -18 -11 -43 -31 -56 -45 -23 -25 -30 -26 -128 -26 -85 0
-103 3 -103 15 0 8 8 15 18 15 10 0 29 11 42 25 23 24 23 28 14 115 -11 104
-25 95 126 80z m420 -32 c0 -18 -2 -20 -9 -8 -6 8 -7 18 -5 22 9 14 14 9 14
-14z m2933 -103 c4 -54 4 -61 -3 -30 -9 40 -13 112 -6 104 2 -2 6 -35 9 -74z
m-4206 43 c-3 -8 -6 -5 -6 6 -1 11 2 17 5 13 3 -3 4 -12 1 -19z m2008 -106
c-22 -5 -29 3 -21 25 7 17 8 17 22 -2 13 -18 13 -20 -1 -23z m-720 18 c3 -5 2
-10 -4 -10 -5 0 -13 5 -16 10 -3 6 -2 10 4 10 5 0 13 -4 16 -10z m2952 -27
c-3 -10 -5 -4 -5 12 0 17 2 24 5 18 2 -7 2 -21 0 -30z m-2917 7 c0 -5 -2 -10
-4 -10 -3 0 -8 5 -11 10 -3 6 -1 10 4 10 6 0 11 -4 11 -10z m296 -61 c7 -15
18 -47 24 -72 9 -43 8 -47 -20 -77 -33 -35 -102 -172 -106 -210 -1 -14 -8 -45
-14 -70 -25 -96 8 -270 61 -323 27 -27 35 -29 79 -25 l50 5 -1 -111 c-1 -61
-3 -103 -6 -93 -7 26 -34 21 -72 -13 -49 -45 -101 -68 -138 -63 -18 3 -33 10
-33 15 0 6 9 8 20 5 22 -6 23 -5 14 17 -4 11 -19 16 -50 16 -35 0 -47 -5 -60
-25 -23 -35 -11 -73 29 -90 25 -11 28 -14 11 -15 -12 0 -32 -13 -45 -30 -13
-16 -29 -30 -36 -30 -6 0 -13 -4 -15 -9 -7 -17 -448 -261 -728 -401 -69 -35
-120 -65 -113 -67 14 -5 99 37 333 165 96 52 198 107 225 122 28 14 113 61
190 104 77 43 210 115 295 159 85 44 161 84 168 90 8 6 12 5 12 -4 0 -8 -28
-29 -63 -46 -88 -47 -130 -73 -124 -80 3 -3 21 4 40 16 19 11 36 18 39 15 3
-3 33 8 66 25 45 23 61 27 65 17 7 -19 -3 -29 -48 -52 -140 -70 -494 -261
-583 -315 -68 -41 -155 -109 -148 -116 2 -2 49 18 104 46 222 112 399 120 581
28 51 -26 66 -39 73 -62 15 -56 37 -230 41 -320 2 -49 2 -75 0 -57 -5 36 -19
44 -149 87 -129 43 -172 43 -311 -2 -29 -10 -53 -21 -53 -25 0 -4 -5 -8 -11
-8 -16 0 -148 -102 -190 -147 -20 -21 -52 -59 -71 -85 l-35 -48 -41 58 c-22
31 -76 96 -119 143 -43 47 -99 112 -124 145 -32 42 -63 68 -105 91 -33 18 -65
43 -71 55 -6 13 -40 55 -76 94 l-66 71 72 47 c85 56 132 108 163 185 29 68 32
174 8 245 -19 57 -74 114 -115 123 -59 12 -74 -2 246 221 83 58 164 115 180
128 40 32 43 35 93 67 36 23 42 32 42 61 0 32 4 36 63 63 177 84 317 201 480
402 18 22 19 22 39 4 11 -10 26 -30 34 -44z m-987 17 c-10 -11 -153 -9 -157 2
-2 7 21 12 70 14 65 3 100 -4 87 -16z m675 -25 c3 -5 -5 -16 -18 -24 -22 -15
-23 -15 -18 9 4 24 26 33 36 15z m-255 -95 c7 -17 20 -25 51 -30 32 -5 41 -10
36 -22 -3 -9 -6 -20 -6 -25 0 -5 -24 -21 -52 -35 -49 -24 -65 -29 -108 -33
-12 -1 -12 -3 -2 -9 20 -13 -57 -32 -124 -31 -33 1 -50 3 -39 6 11 2 31 6 43
9 16 3 22 10 18 20 -3 8 -2 13 2 10 11 -7 82 15 82 25 0 5 7 6 15 3 10 -4 15
0 15 11 0 11 -5 15 -15 11 -8 -3 -15 -1 -15 4 0 14 -16 12 -32 -4 -8 -7 -25
-17 -38 -21 -22 -7 -23 -6 -12 8 15 18 0 32 -23 23 -8 -3 -15 -1 -15 4 0 5 21
18 46 30 26 11 52 27 58 34 10 13 63 33 94 35 7 1 17 -10 21 -23z m-1099 -6
c0 -5 -4 -10 -10 -10 -5 0 -10 5 -10 10 0 6 5 10 10 10 6 0 10 -4 10 -10z
m907 -16 c-3 -3 -12 -4 -19 -1 -8 3 -5 6 6 6 11 1 17 -2 13 -5z m820 -66 c-2
-13 -4 -5 -4 17 -1 22 1 32 4 23 2 -10 2 -28 0 -40z m-992 21 c-4 -5 -13 -9
-21 -9 -12 0 -12 2 -2 14 14 15 32 11 23 -5z m37 -21 c-9 -9 -15 -9 -24 0 -9
9 -7 12 12 12 19 0 21 -3 12 -12z m57 -32 c-9 -8 -10 -7 -5 7 3 10 7 24 7 30
1 7 3 4 6 -7 3 -10 -1 -23 -8 -30z m-109 19 c0 -11 -11 -15 -40 -15 -22 0 -40
-4 -40 -10 0 -5 -13 -10 -29 -10 -16 0 -37 -7 -45 -16 -9 -8 -24 -14 -34 -11
-12 3 -9 7 16 17 17 6 32 15 32 20 0 14 65 40 103 40 26 0 37 -4 37 -15z m150
-26 c0 -5 -4 -9 -10 -9 -5 0 -10 7 -10 16 0 8 5 12 10 9 6 -3 10 -10 10 -16z
m1227 -6 c16 -16 53 -49 81 -76 49 -45 70 -86 38 -74 -8 3 -17 1 -20 -6 -2 -7
-5 -5 -5 5 -1 10 -13 19 -33 24 -18 3 -40 14 -48 23 -35 37 -90 20 -90 -28 0
-25 -2 -24 -40 19 -21 25 -39 49 -40 53 0 5 -7 15 -15 23 -8 9 -15 26 -15 40
0 23 2 24 79 24 73 0 82 -2 108 -27z m54 -20 c13 -16 12 -17 -3 -4 -10 7 -18
15 -18 17 0 8 8 3 21 -13z m-255 -161 c9 -101 9 -119 -5 -129 -32 -27 -38 -14
-50 103 -7 65 -15 122 -17 128 -6 15 38 35 51 24 6 -5 15 -62 21 -126z m-1408
121 c-15 -2 -42 -2 -60 0 -18 2 -6 4 27 4 33 0 48 -2 33 -4z m135 0 c-13 -2
-33 -2 -45 0 -13 2 -3 4 22 4 25 0 35 -2 23 -4z m-2356 -9 c-3 -3 -12 -4 -19
-1 -8 3 -5 6 6 6 11 1 17 -2 13 -5z m1606 -11 c-7 -2 -19 -2 -25 0 -7 3 -2 5
12 5 14 0 19 -2 13 -5z m2068 -16 c49 -41 62 -70 49 -116 -6 -25 -21 -48 -39
-61 l-29 -20 -6 47 c-15 127 -17 173 -9 173 4 -1 20 -11 34 -23z m-2546 -27
c-11 -5 -29 -8 -40 -8 -16 0 -15 2 5 8 34 11 60 11 35 0z m2212 -42 c-3 -7 -5
-2 -5 12 0 14 2 19 5 13 2 -7 2 -19 0 -25z m563 12 c0 -5 -7 -7 -15 -4 -8 4
-15 8 -15 10 0 2 7 4 15 4 8 0 15 -4 15 -10z m-3461 -29 c46 -12 59 -20 47
-24 -14 -6 -16 -10 -7 -21 14 -16 -6 -27 -47 -25 -26 1 -26 1 -4 7 13 4 22 12
21 17 -4 23 -12 35 -23 35 -15 1 -74 28 -61 29 6 0 39 -8 74 -18z m216 14
c-25 -9 -104 -12 -99 -4 3 5 29 9 57 8 29 0 48 -2 42 -4z m-55 -36 c41 -12 80
-22 86 -22 6 0 11 -6 11 -13 0 -10 -5 -10 -19 -3 -11 6 -44 17 -75 25 -48 13
-98 33 -83 34 3 0 39 -10 80 -21z m6660 -89 c0 -5 -4 -10 -10 -10 -5 0 -10 5
-10 10 0 6 5 10 10 10 6 0 10 -4 10 -10z m70 -140 c0 -5 -5 -10 -11 -10 -5 0
-7 5 -4 10 3 6 8 10 11 10 2 0 4 -4 4 -10z m-2092 -103 c7 -16 8 -26 3 -23 -5
3 -14 20 -20 38 -13 38 0 26 17 -15z m-1457 12 c31 -9 45 -9 85 5 66 22 78 20
24 -5 -54 -25 -132 -22 -158 6 -14 14 -14 16 -2 12 8 -3 31 -11 51 -18z m1536
-100 c10 -1 90 -2 178 -1 l160 0 -155 -9 c-159 -9 -204 -4 -235 28 -8 8 -15
18 -15 23 0 5 11 -2 25 -15 13 -14 32 -26 42 -26z m1263 31 c-41 -9 -879 -35
-900 -28 -8 3 93 8 225 13 132 4 321 11 420 15 99 3 205 7 235 7 49 1 51 0 20
-7z m-1671 -85 c0 -5 -4 -3 -9 5 -8 13 -10 12 -10 -4 0 -11 -2 -17 -5 -14 -4
3 -3 18 1 34 6 25 8 26 15 9 4 -11 8 -24 8 -30z m48 13 c-3 -8 -6 -5 -6 6 -1
11 2 17 5 13 3 -3 4 -12 1 -19z m1060 -20 c-3 -8 -6 -5 -6 6 -1 11 2 17 5 13
3 -3 4 -12 1 -19z m346 -5 c-7 -2 -21 -2 -30 0 -10 3 -4 5 12 5 17 0 24 -2 18
-5z m-1537 -180 c-10 -10 -19 5 -10 18 6 11 8 11 12 0 2 -7 1 -15 -2 -18z m81
-25 c-3 -7 -5 -2 -5 12 0 14 2 19 5 13 2 -7 2 -19 0 -25z m-60 -12 c-20 -29
-55 -43 -71 -26 -8 8 -7 10 6 5 22 -9 55 10 63 36 4 11 9 18 12 15 3 -3 -2
-16 -10 -30z m29 -131 c-14 -53 -26 -99 -26 -102 0 -3 18 -3 39 -1 22 2 37 -1
34 -5 -3 -5 -23 -7 -44 -5 l-39 3 -16 -52 c-9 -30 -19 -51 -22 -49 -2 3 12 53
31 113 19 59 40 133 47 163 7 30 15 50 17 43 3 -7 -7 -55 -21 -108z m1488 44
c17 -12 44 -39 59 -61 27 -39 30 -40 70 -34 23 3 52 8 63 12 20 5 23 -1 38
-89 10 -52 16 -110 14 -128 -3 -29 -9 -35 -52 -53 -59 -24 -72 -18 -103 46
-26 53 -75 98 -107 98 -13 0 -37 -10 -54 -22 -117 -87 -162 -123 -162 -129 0
-21 -68 -41 -232 -68 -100 -17 -294 -48 -430 -70 -363 -60 -448 -72 -493 -70
-22 0 -65 -4 -95 -10 -52 -10 -543 -90 -891 -146 -192 -30 -289 -34 -323 -11
-14 9 -46 27 -71 41 l-45 26 0 -47 c0 -77 -7 -47 -19 81 -7 66 -20 166 -30
223 -10 56 -14 102 -10 102 4 0 9 -4 11 -8 2 -5 29 -28 61 -52 44 -33 69 -44
105 -47 57 -6 1081 99 1103 113 5 3 9 -5 10 -18 l0 -23 9 23 c8 18 18 22 52
23 73 3 214 18 768 84 157 18 314 36 350 40 l65 7 76 79 c114 118 185 142 263
88z m-384 -68 c-8 -5 -55 -11 -105 -14 l-90 -6 85 13 c110 17 130 18 110 7z
m57 -7 c-3 -3 -12 -4 -19 -1 -8 3 -5 6 6 6 11 1 17 -2 13 -5z m-282 -24 c-16
-4 -102 -7 -190 -7 l-160 1 165 6 c91 3 176 6 190 7 21 0 21 0 -5 -7z m-442
-7 c-13 -2 -35 -2 -50 0 -16 2 -5 4 22 4 28 0 40 -2 28 -4z m-100 -10 c-7 -2
-21 -2 -30 0 -10 3 -4 5 12 5 17 0 24 -2 18 -5z m-100 -10 c-13 -2 -33 -2 -45
0 -13 2 -3 4 22 4 25 0 35 -2 23 -4z m-115 -10 c-10 -2 -26 -2 -35 0 -10 3 -2
5 17 5 19 0 27 -2 18 -5z m-223 -34 c-22 -4 -62 -7 -90 -7 l-50 1 60 7 c33 4
74 7 90 7 24 1 22 -1 -10 -8z m-450 -20 c-159 -4 -315 -10 -345 -13 -31 -3
-20 1 25 8 52 9 171 13 345 13 l265 -1 -290 -7z m-438 -25 c-3 -3 -12 -4 -19
-1 -8 3 -5 6 6 6 11 1 17 -2 13 -5z m-54 -11 c-7 -2 -19 -2 -25 0 -7 3 -2 5
12 5 14 0 19 -2 13 -5z m-50 -10 c-7 -2 -19 -2 -25 0 -7 3 -2 5 12 5 14 0 19
-2 13 -5z m-106 -27 c-32 -13 -65 -30 -75 -37 -16 -13 -16 -12 -2 5 17 22 85
54 115 55 11 0 -6 -10 -38 -23z m2698 -23 c19 -9 35 -21 35 -25 0 -5 -10 -2
-22 6 -51 36 -100 17 -190 -77 -32 -32 -58 -54 -58 -48 0 18 112 125 150 144
43 21 42 21 85 0z m-7135 -43 c96 -5 223 -13 283 -16 59 -3 107 -10 107 -15 0
-5 10 -5 24 0 13 6 93 6 192 1 93 -5 347 -14 564 -21 217 -6 397 -13 400 -16
8 -8 -43 -95 -64 -108 -15 -9 -103 -17 -301 -24 -609 -24 -588 -22 -617 -42
-14 -11 -31 -19 -36 -19 -6 0 -13 -9 -17 -19 -10 -31 -90 -99 -130 -110 -79
-21 -139 39 -136 139 l1 46 -113 18 c-123 19 -457 85 -469 92 -13 8 -9 53 7
85 16 29 18 30 73 25 31 -3 136 -10 232 -16z m7201 -17 c13 -16 12 -17 -3 -4
-10 7 -18 15 -18 17 0 8 8 3 21 -13z m152 -48 c-42 -33 -82 -46 -103 -35 -23
12 -45 49 -34 58 4 4 9 2 11 -4 2 -6 10 -19 17 -30 13 -18 15 -18 55 1 23 10
39 20 36 23 -2 3 3 11 13 18 14 10 18 10 20 -2 2 -9 -5 -22 -15 -29z m-5677 6
c-6 -9 -56 -22 -56 -14 0 4 40 21 53 22 5 1 6 -3 3 -8z m5209 -51 c-3 -5 -23
-9 -43 -9 l-37 2 35 7 c52 11 52 11 45 0z m-188 -16 c-3 -3 -12 -4 -19 -1 -8
3 -5 6 6 6 11 1 17 -2 13 -5z m-6829 -83 c86 -22 208 -50 270 -62 62 -12 111
-24 108 -26 -11 -11 -538 106 -555 123 -10 9 27 2 177 -35z m6537 29 c-3 -5
-16 -10 -28 -9 -20 1 -20 2 3 9 14 4 26 8 28 9 2 1 0 -3 -3 -9z m425 -20 c-12
-23 -45 -27 -53 -6 -8 19 1 26 35 26 26 0 28 -2 18 -20z m63 5 c-3 -9 -8 -14
-10 -11 -3 3 -2 9 2 15 9 16 15 13 8 -4z m-600 -2 c-7 -2 -21 -2 -30 0 -10 3
-4 5 12 5 17 0 24 -2 18 -5z m-60 -10 c-7 -2 -19 -2 -25 0 -7 3 -2 5 12 5 14
0 19 -2 13 -5z m537 -48 c0 -5 -5 -3 -10 5 -5 8 -10 20 -10 25 0 6 5 3 10 -5
5 -8 10 -19 10 -25z m600 -34 c-8 -32 -20 -45 -61 -71 -28 -17 -56 -29 -62
-27 -7 2 2 11 19 20 61 32 92 65 100 110 4 23 9 34 11 25 2 -9 -1 -34 -7 -57z
m-1333 53 c-3 -3 -12 -4 -19 -1 -8 3 -5 6 6 6 11 1 17 -2 13 -5z m-80 -10 c-3
-3 -12 -4 -19 -1 -8 3 -5 6 6 6 11 1 17 -2 13 -5z m766 -1 c-13 -2 -33 -2 -45
0 -13 2 -3 4 22 4 25 0 35 -2 23 -4z m-6928 -39 c44 -14 335 -89 375 -97 l25
-4 -25 -2 c-32 -1 -404 92 -450 113 l-35 16 35 -6 c19 -4 53 -12 75 -20z
m5952 4 c-3 -8 -6 -5 -6 6 -1 11 2 17 5 13 3 -3 4 -12 1 -19z m783 12 c-178
-29 -254 -43 -314 -56 -38 -8 -92 -17 -120 -19 -44 -4 -41 -3 19 9 39 8 88 19
110 24 22 6 89 18 150 27 60 9 111 18 114 21 2 2 23 3 45 3 l41 -2 -45 -7z
m-881 -14 c-2 -2 -17 -6 -34 -10 -22 -5 -26 -4 -15 4 14 9 59 15 49 6z m-120
-20 c-2 -2 -26 -6 -53 -9 -30 -3 -43 -1 -35 4 13 8 97 13 88 5z m1857 -33
c-11 -11 -17 4 -9 23 7 18 8 18 11 1 2 -10 1 -21 -2 -24z m-3606 13 c0 -3 -19
-16 -42 -30 -24 -14 -39 -26 -34 -26 5 0 3 -6 -3 -13 -6 -8 -8 -17 -4 -21 4
-4 0 -4 -9 -1 -14 5 -15 11 -6 30 12 26 98 79 98 61z m1573 -3 c-7 -2 -19 -2
-25 0 -7 3 -2 5 12 5 14 0 19 -2 13 -5z m-50 -10 c-7 -2 -19 -2 -25 0 -7 3 -2
5 12 5 14 0 19 -2 13 -5z m-5617 -15 c31 -20 241 -87 369 -118 50 -12 97 -24
105 -27 8 -3 31 -7 50 -9 20 -2 54 -10 75 -18 l40 -15 -32 0 c-18 -1 -33 2
-33 7 0 4 -21 8 -47 10 -55 3 -208 39 -377 89 -133 39 -161 50 -193 74 l-23
17 28 -2 c15 -1 32 -4 38 -8z m7041 6 c-3 -3 -12 -4 -19 -1 -8 3 -5 6 6 6 11
1 17 -2 13 -5z m-1514 -11 c-7 -2 -19 -2 -25 0 -7 3 -2 5 12 5 14 0 19 -2 13
-5z m812 -11 c-3 -3 -11 0 -18 7 -9 10 -8 11 6 5 10 -3 15 -9 12 -12z m-898 2
c-3 -3 -12 -4 -19 -1 -8 3 -5 6 6 6 11 1 17 -2 13 -5z m-57 -14 c-14 -4 -43
-8 -65 -8 l-40 1 35 7 c19 4 49 8 65 8 29 0 29 0 5 -8z m669 -40 c1 -13 0 -13
-9 0 -5 8 -9 24 -9 35 l0 20 9 -20 c5 -11 9 -27 9 -35z m121 40 c-8 -5 -22 -9
-30 -9 -10 0 -8 3 5 9 27 12 43 12 25 0z m-5633 -16 c-3 -3 -12 -4 -19 -1 -8
3 -5 6 6 6 11 1 17 -2 13 -5z m5352 -42 c1 -7 -3 -10 -9 -7 -5 3 -10 18 -9 33
0 24 1 25 9 7 5 -11 9 -26 9 -33z m841 38 c-8 -5 -19 -10 -25 -10 -5 0 -3 5 5
10 8 5 20 10 25 10 6 0 3 -5 -5 -10z m-6090 -15 c30 -7 46 -13 35 -14 -11 0
-45 6 -75 14 -30 7 -46 13 -35 14 11 0 45 -6 75 -14z m5209 -7 c-1 -17 -2 -19
-6 -5 -5 19 -19 23 -25 6 -2 -7 -17 -8 -43 -3 l-40 9 45 6 c25 3 51 7 58 7 7
1 11 -8 11 -20z m-706 5 c-7 -2 -21 -2 -30 0 -10 3 -4 5 12 5 17 0 24 -2 18
-5z m877 -2 c0 -6 -17 -7 -37 -4 -52 8 -54 13 -5 13 23 0 42 -4 42 -9z m-2040
-11 c0 -5 -4 -10 -10 -10 -5 0 -10 5 -10 10 0 6 5 10 10 10 6 0 10 -4 10 -10z
m1045 0 c-11 -5 -27 -9 -35 -9 -9 0 -8 4 5 9 11 5 27 9 35 9 9 0 8 -4 -5 -9z
m52 4 c-3 -3 -12 -4 -19 -1 -8 3 -5 6 6 6 11 1 17 -2 13 -5z m628 -4 c4 -6 -9
-10 -32 -9 -34 1 -35 2 -13 9 35 11 38 11 45 0z m-1017 -25 c19 1 36 -4 39 -9
3 -5 1 -6 -5 -2 -7 4 -12 2 -12 -5 0 -10 -3 -10 -12 -1 -18 18 -28 15 -21 -5
6 -16 5 -16 -11 -4 -9 8 -22 24 -27 35 -9 18 -8 19 3 6 7 -8 28 -15 46 -15z
m272 15 c0 -5 -4 -10 -10 -10 -5 0 -10 5 -10 10 0 6 5 10 10 10 6 0 10 -4 10
-10z m-60 -10 c0 -8 -10 -9 -29 -5 -17 3 -39 1 -50 -5 -12 -6 -21 -7 -21 -2 0
5 -12 8 -27 6 -25 -3 -26 -3 -4 4 41 13 131 14 131 2z m723 3 c-7 -2 -19 -2
-25 0 -7 3 -2 5 12 5 14 0 19 -2 13 -5z m872 -3 c-11 -5 -27 -9 -35 -9 -9 0
-8 4 5 9 11 5 27 9 35 9 9 0 8 -4 -5 -9z m-947 -7 c-10 -2 -26 -2 -35 0 -10 3
-2 5 17 5 19 0 27 -2 18 -5z m1747 -3 c-16 -7 -17 -9 -3 -9 23 -1 62 -56 82
-116 23 -69 49 -316 41 -390 -14 -131 -64 -267 -112 -305 -51 -40 -97 -17
-133 65 -22 50 -36 191 -21 209 12 15 34 153 25 167 -9 14 -22 10 -28 -8 -16
-52 7 144 25 212 32 123 76 185 129 184 10 0 8 -3 -5 -9z m-2765 -22 c0 -6 -6
-5 -15 2 -8 7 -15 14 -15 16 0 2 7 1 15 -2 8 -4 15 -11 15 -16z m907 6 c-3 -3
-12 -4 -19 -1 -8 3 -5 6 6 6 11 1 17 -2 13 -5z m916 -1 c-7 -2 -19 -2 -25 0
-7 3 -2 5 12 5 14 0 19 -2 13 -5z m-975 -10 c-10 -2 -26 -2 -35 0 -10 3 -2 5
17 5 19 0 27 -2 18 -5z m-729 -73 c12 -22 20 -40 17 -40 -2 0 -15 18 -27 40
-26 45 -35 49 -44 19 -10 -31 -16 -17 -9 20 6 29 8 30 23 17 10 -9 27 -34 40
-56z m631 58 c-31 -8 -55 -12 -98 -17 -7 0 -10 -5 -7 -11 3 -5 0 -10 -9 -10
-8 0 -23 -3 -33 -7 -12 -4 -9 1 8 15 25 20 97 40 149 40 20 0 18 -2 -10 -10z
m987 6 c-3 -3 -12 -4 -19 -1 -8 3 -5 6 6 6 11 1 17 -2 13 -5z m-212 -24 c3 -5
1 -10 -4 -10 -6 0 -11 5 -11 10 0 6 2 10 4 10 3 0 8 -4 11 -10z m98 3 c-7 -2
-19 -2 -25 0 -7 3 -2 5 12 5 14 0 19 -2 13 -5z m-1036 -9 c-3 -3 -12 -4 -19
-1 -8 3 -5 6 6 6 11 1 17 -2 13 -5z m-4369 -11 c-21 -2 -55 -2 -75 0 -21 2 -4
4 37 4 41 0 58 -2 38 -4z m4292 3 c0 -2 -35 -12 -77 -21 -43 -9 -85 -21 -93
-27 -16 -9 -3 -8 48 7 13 4 22 2 22 -4 0 -6 -10 -11 -22 -11 -40 0 -68 -12
-68 -28 0 -8 -3 -12 -7 -9 -3 4 -15 -1 -26 -10 -15 -13 -21 -15 -24 -5 -3 6
-9 10 -13 7 -5 -3 -11 -1 -14 4 -3 5 11 12 31 16 27 5 33 9 22 16 -11 7 -10 9
6 9 16 0 17 2 5 10 -21 13 -15 16 85 32 99 17 125 20 125 14z m2008 -21 c3
-19 -19 -28 -210 -88 -117 -37 -310 -94 -428 -126 -118 -33 -237 -67 -265 -76
-60 -18 -65 -18 -65 -4 0 12 -29 38 -43 39 -4 0 0 -11 9 -26 20 -30 14 -38
-47 -52 -26 -7 -53 -14 -62 -18 -10 -3 -18 2 -22 15 -3 12 -17 27 -31 34 -23
12 -18 15 78 39 57 14 191 51 298 83 157 45 627 176 715 198 40 10 70 3 73
-18z m-1038 6 c-8 -5 -37 -12 -65 -15 l-50 -5 55 13 c67 17 80 18 60 7z
m-6793 -15 c46 -1 83 1 83 4 0 3 9 6 20 6 22 0 25 -13 10 -36 -8 -12 -10 -12
-10 -1 0 9 -4 10 -12 3 -17 -13 -122 -24 -340 -36 -73 -4 -66 10 9 18 147 16
159 19 138 27 -11 4 -14 8 -7 8 7 1 10 6 6 13 -5 7 -3 8 6 3 8 -5 51 -9 97 -9z
m5518 -15 c3 -5 1 -12 -5 -16 -5 -3 -10 1 -10 9 0 18 6 21 15 7z m52 3 c-3 -3
-12 -4 -19 -1 -8 3 -5 6 6 6 11 1 17 -2 13 -5z m1100 0 c-3 -3 -12 -4 -19 -1
-8 3 -5 6 6 6 11 1 17 -2 13 -5z m-907 -54 c0 -5 -6 -10 -12 -10 -9 0 -8 -4 2
-10 13 -8 12 -10 -2 -10 -11 0 -18 8 -18 20 0 11 7 20 15 20 8 0 15 -4 15 -10z
m-5940 -10 c0 -5 -2 -10 -4 -10 -3 0 -8 5 -11 10 -3 6 -1 10 4 10 6 0 11 -4
11 -10z m5879 -7 c0 -12 -2 -13 -6 -5 -4 10 -10 10 -29 -3 -13 -8 -24 -12 -25
-8 0 5 -4 -1 -9 -12 -7 -17 -9 -17 -9 -2 -1 9 -6 17 -12 17 -25 0 3 16 32 18
18 1 35 5 38 7 10 11 21 4 20 -12z m-1139 -28 c0 -5 -5 -3 -10 5 -5 8 -10 20
-10 25 0 6 5 3 10 -5 5 -8 10 -19 10 -25z m1160 5 c0 -5 -8 -10 -17 -10 -15 0
-16 2 -3 10 19 12 20 12 20 0z m-45 -10 c-3 -5 -12 -10 -18 -10 -7 0 -6 4 3
10 19 12 23 12 15 0z m-6136 -36 c2 -2 -5 -4 -17 -4 -12 0 -22 -4 -22 -10 0
-5 11 -10 24 -10 14 0 27 -4 30 -9 8 -13 -163 -26 -176 -13 -6 6 6 12 38 17
63 9 76 15 70 31 -4 11 1 13 22 8 15 -4 29 -8 31 -10z m-99 -4 c0 -5 -12 -10
-26 -10 -14 0 -23 4 -19 10 3 6 15 10 26 10 10 0 19 -4 19 -10z m435 0 c-3 -5
-17 -10 -31 -10 -13 0 -24 -4 -24 -10 0 -5 -5 -10 -11 -10 -5 0 -7 5 -4 10 3
6 -4 11 -17 11 -16 1 -12 4 12 9 53 11 82 11 75 0z m5715 -16 c0 -3 -4 -2 -10
1 -5 3 -10 0 -10 -7 0 -9 -3 -9 -10 2 -15 24 -12 32 10 20 11 -6 20 -13 20
-16z m-5955 -4 c-3 -5 1 -10 9 -10 9 0 16 -4 16 -10 0 -5 -9 -10 -20 -10 -11
0 -20 6 -20 14 0 8 -10 17 -22 19 -16 3 -13 5 10 6 20 0 31 -3 27 -9z m4518
-21 c118 -60 256 -155 283 -197 11 -17 12 -27 4 -40 -10 -15 -11 -15 -5 2 4
13 -3 29 -22 48 -25 26 -55 38 -51 21 2 -14 -49 -133 -57 -133 -2 0 -2 14 2
32 l6 32 -46 -44 c-26 -25 -47 -52 -47 -60 0 -10 -10 -16 -27 -18 -49 -3 -117
-25 -153 -49 -23 -15 -29 -23 -17 -23 9 0 17 -4 17 -9 0 -5 -12 -8 -27 -8 -15
0 -29 -6 -31 -12 -2 -6 -24 -11 -48 -11 -24 0 -44 -4 -44 -8 0 -8 73 -2 159
14 29 5 32 4 20 -9 -9 -9 -59 -19 -132 -27 l-117 -13 -20 -34 c-23 -40 -25
-50 -7 -35 10 8 13 6 14 -11 1 -12 -1 -17 -5 -12 -12 18 -25 11 -82 -46 -30
-30 -68 -64 -83 -74 l-28 -18 35 -16 c33 -15 34 -17 19 -36 -12 -15 -14 -16
-10 -3 4 13 2 15 -10 11 -9 -4 -21 1 -29 11 -12 17 -20 14 -111 -38 -93 -53
-250 -122 -259 -113 -3 2 17 12 43 22 141 53 312 155 402 239 100 94 215 318
307 598 25 75 32 88 54 91 14 2 29 5 33 6 4 0 36 -13 70 -30z m-270 -6 c-13
-2 -33 -2 -45 0 -13 2 -3 4 22 4 25 0 35 -2 23 -4z m-723 -15 c404 -1 474 -3
350 -10 -153 -8 -942 -2 -1010 8 -33 5 -37 2 -53 -32 -16 -33 -15 -63 1 -38 4
7 15 8 27 3 19 -7 19 -8 -2 -8 -44 -2 -23 -21 22 -21 33 0 45 4 45 15 0 22 37
18 50 -5 10 -18 18 -19 180 -13 l170 6 0 -26 c0 -14 8 -30 17 -36 10 -5 16
-12 13 -14 -3 -3 -124 -10 -270 -17 -193 -9 -273 -9 -293 -1 -25 10 -28 9 -26
-7 2 -17 -3 -36 -22 -77 -5 -11 -15 -45 -24 -75 -30 -111 -39 -140 -46 -140
-4 0 -5 9 -2 20 3 11 1 20 -5 20 -6 0 -12 10 -14 23 -4 19 -6 17 -16 -13 -10
-31 -11 -28 -6 35 3 39 10 88 15 110 21 95 0 119 -24 28 l-15 -58 -1 43 -1 43
-62 -2 c-35 -2 -119 1 -187 6 -94 6 -122 5 -117 -4 5 -8 -1 -10 -21 -7 -15 2
-101 10 -191 17 -89 7 -157 16 -150 20 17 11 -34 22 -76 17 -20 -2 -32 0 -29
6 4 5 -3 6 -18 2 -43 -14 -89 -18 -89 -9 0 5 15 8 33 6 25 -3 29 -2 15 6 -9 6
-27 11 -40 10 -12 0 -62 4 -110 8 -53 5 -89 5 -91 -1 -2 -5 -60 -2 -141 8
l-137 18 -25 -27 c-13 -14 -24 -37 -24 -50 0 -18 -4 -23 -15 -19 -11 5 -13 10
-5 19 5 6 7 15 3 18 -3 4 0 13 6 21 10 12 6 13 -28 9 -48 -7 -83 3 -61 17 12
8 12 10 -3 16 -9 3 -24 4 -32 0 -10 -3 -15 1 -16 12 -1 15 -2 15 -6 -1 -3 -11
3 -24 14 -32 17 -13 17 -14 -3 -9 -23 6 -34 38 -34 97 l0 30 58 -6 c31 -3 113
-15 182 -26 305 -48 865 -101 1341 -127 l117 -6 12 38 c23 71 70 155 93 165
12 5 76 7 147 4 69 -3 352 -6 630 -7z m608 5 c-16 -2 -40 -2 -55 0 -16 2 -3 4
27 4 30 0 43 -2 28 -4z m-3943 -32 c-6 -6 -46 -12 -90 -15 -92 -6 -82 0 20 13
39 5 72 9 75 10 2 0 0 -3 -5 -8z m-255 -31 c-30 -5 -77 -8 -105 -8 l-50 1 45
7 c25 4 72 7 105 7 l60 0 -55 -7z m3043 3 c-7 -2 -19 -2 -25 0 -7 3 -2 5 12 5
14 0 19 -2 13 -5z m164 -19 c-3 -3 -12 -4 -19 -1 -8 3 -5 6 6 6 11 1 17 -2 13
-5z m3878 -19 c14 -13 25 -28 25 -33 0 -4 -46 -21 -102 -36 -57 -16 -139 -39
-183 -52 -100 -29 -619 -152 -731 -173 -42 -8 -45 -7 -42 12 3 22 25 29 513
168 138 40 302 87 365 105 63 18 119 33 123 34 4 0 19 -11 32 -25z m-7085 -25
c18 -12 2 -12 -25 0 -13 6 -15 9 -5 9 8 0 22 -4 30 -9z m103 -37 c-7 -2 -19
-2 -25 0 -7 3 -2 5 12 5 14 0 19 -2 13 -5z m888 -13 c5 0 8 -10 8 -22 -1 -17
-2 -19 -6 -5 -2 9 -13 17 -24 17 -10 0 -19 5 -19 11 0 6 7 8 16 5 9 -3 20 -6
25 -6z m602 -7 c-13 -2 -33 -2 -45 0 -13 2 -3 4 22 4 25 0 35 -2 23 -4z m82
-3 c18 -8 17 -9 -7 -9 -16 -1 -28 4 -28 9 0 12 8 12 35 0z m-422 -7 c-7 -2
-19 -2 -25 0 -7 3 -2 5 12 5 14 0 19 -2 13 -5z m214 1 c-3 -3 -12 -4 -19 -1
-8 3 -5 6 6 6 11 1 17 -2 13 -5z m-139 -11 c-10 -2 -26 -2 -35 0 -10 3 -2 5
17 5 19 0 27 -2 18 -5z m132 -12 l45 -8 -40 -1 c-22 0 -53 4 -70 8 -27 7 -28
8 -5 8 14 0 45 -3 70 -7z m423 2 c-7 -2 -19 -2 -25 0 -7 3 -2 5 12 5 14 0 19
-2 13 -5z m-423 -23 c52 -6 106 -12 120 -15 14 -3 68 -9 120 -14 197 -19 565
-63 570 -67 3 -3 6 -71 9 -151 l3 -146 -83 7 c-46 4 -131 14 -189 22 -466 63
-695 96 -697 98 -2 2 -6 67 -10 146 l-6 143 34 -6 c19 -4 77 -11 129 -17z
m150 10 c0 -5 -19 -10 -42 -10 -32 0 -39 3 -28 10 20 13 70 13 70 0z m88 3
c-10 -2 -26 -2 -35 0 -10 3 -2 5 17 5 19 0 27 -2 18 -5z m-1525 -10 c-7 -2
-19 -2 -25 0 -7 3 -2 5 12 5 14 0 19 -2 13 -5z m2702 -3 c3 -5 1 -10 -4 -10
-6 0 -11 5 -11 10 0 6 2 10 4 10 3 0 8 -4 11 -10z m2510 0 c-43 -6 -45 -7 -15
-9 157 -8 260 -199 278 -516 l7 -130 5 120 6 120 2 -116 c7 -387 -178 -736
-379 -717 -98 10 -176 92 -222 235 -39 120 -47 173 -47 319 0 388 169 708 370
702 l45 -1 -50 -7z m-3660 -10 c49 -7 49 -7 10 -8 -22 -1 -58 3 -80 7 -34 8
-36 9 -10 9 17 0 53 -3 80 -8z m3753 -4 c15 -8 36 -25 47 -37 20 -24 20 -24 0
-8 -11 9 -36 26 -55 38 -39 23 -34 29 8 7z m-3455 -3 c-7 -2 -21 -2 -30 0 -10
3 -4 5 12 5 17 0 24 -2 18 -5z m343 -18 c2 -30 -12 -33 -19 -4 -3 12 -10 19
-14 16 -5 -3 -15 -2 -23 4 -11 6 -5 9 20 9 30 0 35 -3 36 -25z m54 10 c11 -13
8 -15 -14 -15 -16 0 -26 5 -26 15 0 8 6 15 14 15 7 0 19 -7 26 -15z m-510 -5
c34 -6 25 -7 -35 -3 -44 3 -82 7 -84 9 -8 7 73 3 119 -6z m213 3 c-13 -2 -33
-2 -45 0 -13 2 -3 4 22 4 25 0 35 -2 23 -4z m382 -3 c3 -5 1 -10 -4 -10 -6 0
-11 5 -11 10 0 6 2 10 4 10 3 0 8 -4 11 -10z m-1308 -22 c-3 -8 -6 -5 -6 6 -1
11 2 17 5 13 3 -3 4 -12 1 -19z m1026 15 c-13 -2 -33 -2 -45 0 -13 2 -3 4 22
4 25 0 35 -2 23 -4z m-205 -10 c-10 -2 -26 -2 -35 0 -10 3 -2 5 17 5 19 0 27
-2 18 -5z m290 0 c-10 -2 -26 -2 -35 0 -10 3 -2 5 17 5 19 0 27 -2 18 -5z
m-1071 -25 c-3 -8 -6 -5 -6 6 -1 11 2 17 5 13 3 -3 4 -12 1 -19z m891 15 c-16
-2 -40 -2 -55 0 -16 2 -3 4 27 4 30 0 43 -2 28 -4z m90 -10 c-10 -2 -26 -2
-35 0 -10 3 -2 5 17 5 19 0 27 -2 18 -5z m66 -19 c6 -15 4 -15 -11 -3 -10 7
-20 15 -22 16 -2 2 3 3 11 3 9 0 19 -7 22 -16z m-2451 -1 c-13 -2 -33 -2 -45
0 -13 2 -3 4 22 4 25 0 35 -2 23 -4z m1354 -25 c-3 -7 -5 -2 -5 12 0 14 2 19
5 13 2 -7 2 -19 0 -25z m98 22 c-3 -5 -16 -10 -28 -9 -20 1 -20 2 3 9 14 4 26
8 28 9 2 1 0 -3 -3 -9z m4301 -46 c15 -25 25 -46 23 -48 -2 -2 -18 21 -36 50
-17 30 -27 52 -22 49 5 -4 21 -26 35 -51z m-5849 40 c-3 -3 -12 -4 -19 -1 -8
3 -5 6 6 6 11 1 17 -2 13 -5z m8088 -54 l30 -8 -30 -1 c-16 0 -37 3 -44 8 -8
5 -22 6 -30 2 -9 -5 -36 -11 -61 -14 l-45 -6 55 19 c30 10 64 16 75 13 11 -2
34 -8 50 -13z m-6547 -6 c12 -22 4 -54 -14 -54 -9 0 -14 12 -14 35 0 37 13 46
28 19z m6632 -23 c5 -11 10 -26 9 -33 0 -7 -5 -1 -10 14 -6 15 -20 29 -32 31
l-22 4 22 2 c13 0 27 -7 33 -18z m-2271 -91 c0 -10 -3 -8 -9 5 -12 27 -12 43
0 25 5 -8 9 -22 9 -30z m-4991 -1 c-3 -8 -7 -3 -11 10 -4 17 -3 21 5 13 5 -5
8 -16 6 -23z m641 15 c2 -2 -10 -4 -27 -4 -17 0 -34 4 -37 10 -5 9 53 3 64 -6z
m-32 -20 c-3 -3 -12 -4 -19 -1 -8 3 -5 6 6 6 11 1 17 -2 13 -5z m5693 1 c0 -7
-57 -35 -72 -35 -7 0 5 9 27 19 48 23 45 22 45 16z m-6035 -34 c32 -10 61 -23
63 -29 2 -6 -26 -1 -62 11 -36 11 -66 25 -66 29 0 10 -5 11 65 -11z m4732 -13
c-3 -8 -6 -5 -6 6 -1 11 2 17 5 13 3 -3 4 -12 1 -19z m1212 8 c-7 -7 -131 -37
-136 -33 -2 3 22 11 54 20 59 15 90 20 82 13z m-1202 -63 c-3 -10 -5 -4 -5 12
0 17 2 24 5 18 2 -7 2 -21 0 -30z m1052 23 c-7 -7 -187 -56 -201 -55 -7 0 30
13 82 29 91 27 128 35 119 26z m2875 -12 c26 -10 18 -24 -14 -24 -30 0 -41 14
-17 23 6 3 13 6 14 6 1 1 8 -2 17 -5z m-8199 -39 c287 -58 771 -122 1099 -145
76 -5 141 -12 144 -15 22 -22 -585 40 -978 101 -172 26 -461 81 -469 89 -10
11 44 3 204 -30z m8145 5 c0 -5 -8 -10 -17 -10 -15 0 -16 2 -3 10 19 12 20 12
20 0z m-7303 -6 c-3 -3 -12 -4 -19 -1 -8 3 -5 6 6 6 11 1 17 -2 13 -5z m4213
-24 c-54 -17 -136 -35 -113 -24 21 10 138 42 153 42 8 0 -10 -8 -40 -18z
m-5461 -95 c24 -15 50 -28 56 -29 7 -1 20 -9 29 -19 36 -35 35 -15 -1 35 -21
29 -33 49 -27 45 19 -12 97 -117 91 -123 -13 -14 -276 157 -277 179 0 5 19 -7
43 -26 23 -19 62 -47 86 -62z m5330 61 c-12 -12 -277 -76 -299 -73 -23 4 -23
4 5 6 17 1 84 17 150 36 113 32 154 40 144 31z m-5615 -71 c3 -12 -3 -30 -15
-45 l-21 -25 5 23 c5 21 4 22 -11 10 -9 -8 -30 -15 -47 -17 -16 -2 -37 -6 -45
-11 -8 -4 -32 -6 -52 -4 -21 2 -38 -1 -38 -5 0 -5 -28 -11 -62 -14 -35 -3 -83
-11 -108 -17 -25 -6 -76 -15 -115 -20 -38 -5 -117 -16 -175 -24 -109 -16 -198
-21 -187 -10 3 3 36 10 74 14 163 20 227 31 232 39 4 5 19 11 34 13 27 3 26 4
-25 31 l-53 27 75 -4 c47 -3 62 -2 40 2 l-35 8 40 7 c94 18 117 19 147 6 24
-10 33 -10 36 -1 5 17 52 15 58 -3 7 -17 40 -20 49 -5 3 6 34 10 68 10 34 0
69 5 77 10 11 7 3 10 -30 10 l-45 0 27 14 c57 30 89 24 102 -19z m729 -25 c83
-16 190 -36 237 -45 132 -24 406 -62 620 -85 314 -34 341 -37 292 -39 -173 -5
-1177 140 -1292 187 -39 16 -20 14 143 -18z m2717 12 c0 -13 -12 -22 -22 -16
-10 6 -1 24 13 24 5 0 9 -4 9 -8z m-3431 -82 c1 -13 0 -13 -9 0 -5 8 -9 26 -9
40 l1 25 8 -25 c4 -14 8 -32 9 -40z m2847 34 c44 -19 102 -86 109 -126 4 -18
2 -45 -4 -61 -6 -15 -8 -33 -5 -41 3 -9 -4 -20 -18 -27 -13 -7 -23 -11 -23
-10 0 2 -20 -2 -44 -9 -49 -13 -108 -6 -132 16 -9 8 -22 14 -30 12 -7 -2 -13
4 -14 12 0 8 -7 14 -14 12 -7 -1 -10 2 -6 8 3 5 1 10 -5 10 -6 0 -8 5 -5 10 3
6 1 10 -5 10 -7 0 -10 6 -7 14 3 8 3 17 0 20 -9 8 -10 85 -1 80 4 -3 8 -1 8 4
0 5 12 21 26 36 15 14 24 26 20 26 -4 0 -19 -12 -33 -27 -14 -16 -24 -22 -21
-14 7 24 54 53 95 61 42 8 63 5 109 -16z m-3526 -1 c-20 -8 -40 -29 -40 -42 0
-6 -4 -11 -10 -11 -5 0 -9 5 -7 11 1 6 -4 14 -10 16 -7 3 -13 -2 -13 -11 0
-11 -9 -16 -27 -16 -25 1 -26 2 -10 14 9 7 17 18 17 24 0 10 35 17 95 20 14 0
15 -1 5 -5z m3200 -25 c10 -6 -4 -7 -40 -4 -30 3 -116 6 -190 6 -92 0 -130 3
-120 10 18 12 328 1 350 -12z m-3110 2 c0 -5 -7 -10 -15 -10 -8 0 -15 5 -15
10 0 6 7 10 15 10 8 0 15 -4 15 -10z m-255 -10 c3 -5 1 -10 -4 -10 -6 0 -11 5
-11 10 0 6 2 10 4 10 3 0 8 -4 11 -10z m180 0 c-3 -5 -13 -10 -21 -10 -8 0
-14 5 -14 10 0 6 9 10 21 10 11 0 17 -4 14 -10z m670 -30 c25 -9 27 -9 22 9
-4 17 -2 18 14 8 19 -12 19 -12 -2 -29 -12 -10 -38 -18 -59 -18 -21 0 -40 -4
-42 -9 -3 -9 -46 -14 -99 -12 -15 1 -30 8 -33 17 -6 15 -1 16 37 11 23 -3 65
0 92 7 46 11 48 13 29 24 -12 6 -25 8 -30 4 -5 -4 -2 1 6 11 12 17 15 17 25 3
7 -8 24 -20 40 -26z m142 34 c-3 -3 -12 -4 -19 -1 -8 3 -5 6 6 6 11 1 17 -2
13 -5z m673 -88 c233 -49 469 -86 705 -110 215 -23 216 -23 161 -25 -119 -3
-637 73 -921 135 -157 35 -206 52 -221 76 -4 6 8 2 27 -9 21 -14 113 -38 249
-67z m-1060 44 c0 -5 -7 -10 -16 -10 -8 0 -12 5 -9 10 3 6 10 10 16 10 5 0 9
-4 9 -10z m320 -10 c0 -5 -4 -10 -9 -10 -6 0 -13 5 -16 10 -3 6 1 10 9 10 9 0
16 -4 16 -10z m-997 -27 c-7 -2 -19 -2 -25 0 -7 3 -2 5 12 5 14 0 19 -2 13 -5z
m3107 -113 c-8 -5 -19 -10 -25 -10 -5 0 -3 5 5 10 8 5 20 10 25 10 6 0 3 -5
-5 -10z m-334 -26 c-12 -8 -40 -13 -70 -13 l-51 2 52 6 c29 4 58 12 65 19 6 6
14 9 17 6 3 -3 -3 -12 -13 -20z m444 6 c-14 -4 -36 -8 -50 -8 l-25 0 25 8 c14
4 36 8 50 8 l25 0 -25 -8z m-185 -11 c-14 -6 0 -8 45 -4 55 3 59 3 25 -5 -22
-5 -60 -9 -85 -9 -44 -1 -44 0 -20 13 14 8 32 14 40 14 10 0 8 -3 -5 -9z
m-1442 -106 c-7 -2 -19 -2 -25 0 -7 3 -2 5 12 5 14 0 19 -2 13 -5z m-60 -10
c-7 -2 -19 -2 -25 0 -7 3 -2 5 12 5 14 0 19 -2 13 -5z m-50 -10 c-7 -2 -19 -2
-25 0 -7 3 -2 5 12 5 14 0 19 -2 13 -5z m-78 -13 c-11 -5 -27 -9 -35 -9 -9 0
-8 4 5 9 11 5 27 9 35 9 9 0 8 -4 -5 -9z m-140 -30 c8 -13 -5 -13 -25 0 -13 8
-13 10 2 10 9 0 20 -4 23 -10z m42 4 c-3 -3 -12 -4 -19 -1 -8 3 -5 6 6 6 11 1
17 -2 13 -5z m-87 -14 c11 -8 7 -9 -15 -4 -37 8 -45 14 -19 14 10 0 26 -5 34
-10z m-95 -20 c-16 -4 -46 -8 -65 -8 -32 0 -33 1 -10 8 14 4 43 8 65 8 38 0
39 -1 10 -8z m-192 -417 c-7 -2 -19 -2 -25 0 -7 3 -2 5 12 5 14 0 19 -2 13 -5z
m77 -33 c0 -5 -13 -10 -30 -10 -16 0 -30 5 -30 10 0 6 14 10 30 10 17 0 30 -4
30 -10z m46 -5 c-22 -17 -36 -19 -36 -7 0 14 12 22 34 22 21 -1 21 -1 2 -15z
m441 -131 c-3 -3 -12 -4 -19 -1 -8 3 -5 6 6 6 11 1 17 -2 13 -5z m38 -34 c-3
-5 -13 -10 -21 -10 -8 0 -14 5 -14 10 0 6 9 10 21 10 11 0 17 -4 14 -10z m152
-16 c-3 -3 -12 -4 -19 -1 -8 3 -5 6 6 6 11 1 17 -2 13 -5z m50 -10 c-3 -3 -12
-4 -19 -1 -8 3 -5 6 6 6 11 1 17 -2 13 -5z m-160 -80 c-3 -3 -12 -4 -19 -1 -8
3 -5 6 6 6 11 1 17 -2 13 -5z m720 0 c-3 -3 -12 -4 -19 -1 -8 3 -5 6 6 6 11 1
17 -2 13 -5z m-297 -18 c0 -2 -7 -7 -16 -10 -8 -3 -12 -2 -9 4 6 10 25 14 25
6z m185 -56 c-11 -5 -33 -8 -50 -8 l-30 0 30 8 c17 4 39 8 50 8 l20 1 -20 -9z
m752 4 c-3 -3 -12 -4 -19 -1 -8 3 -5 6 6 6 11 1 17 -2 13 -5z m-637 -24 c0 -5
-10 -10 -22 -10 -19 0 -20 2 -8 10 19 13 30 13 30 0z m660 -34 c0 -3 -4 -8
-10 -11 -5 -3 -10 -1 -10 4 0 6 5 11 10 11 6 0 10 -2 10 -4z m-963 -22 c-3 -3
-12 -4 -19 -1 -8 3 -5 6 6 6 11 1 17 -2 13 -5z m311 0 c25 -7 30 -24 7 -24 -8
0 -15 4 -15 9 0 5 -10 12 -22 14 -13 2 -16 5 -8 6 8 0 25 -2 38 -5z m1052 2
c0 -2 -46 -18 -102 -35 -57 -17 -119 -36 -138 -43 -60 -19 -100 -26 -100 -17
0 5 9 9 19 9 11 0 22 4 25 9 3 5 20 11 38 14 18 3 80 19 138 36 112 31 120 33
120 27z m390 -16 c-8 -5 -22 -9 -30 -9 -10 0 -8 3 5 9 27 12 43 12 25 0z m-85
-20 c-3 -5 -16 -10 -28 -9 -20 1 -20 2 3 9 14 4 26 8 28 9 2 1 0 -3 -3 -9z
m-150 -10 c-14 -7 -5 -8 30 -6 28 2 41 1 30 -1 -10 -3 -24 -11 -30 -18 -5 -7
-23 -15 -40 -18 l-30 -6 29 13 30 14 -35 7 c-29 7 -31 9 -14 16 28 11 55 10
30 -1z m-788 -6 c-3 -3 -12 -4 -19 -1 -8 3 -5 6 6 6 11 1 17 -2 13 -5z m1173
-3 c0 -9 -35 -21 -60 -20 -8 0 -1 7 15 14 36 17 45 18 45 6z m-490 -21 c-8 -5
-24 -9 -35 -9 -16 1 -16 2 5 9 35 11 48 11 30 0z m273 -7 c-7 -2 -19 -2 -25 0
-7 3 -2 5 12 5 14 0 19 -2 13 -5z m127 -3 c11 -8 7 -9 -15 -4 -24 4 -27 3 -15
-6 12 -9 10 -11 -12 -7 -16 2 -28 0 -28 -4 0 -5 -9 -9 -20 -9 -33 0 -23 16 18
27 50 14 55 14 72 3z m100 -40 c-8 -5 -19 -10 -25 -10 -5 0 -3 5 5 10 8 5 20
10 25 10 6 0 3 -5 -5 -10z m-815 -45 c-16 -8 -39 -14 -50 -14 -11 0 -2 6 20
14 52 17 68 17 30 0z m-448 -1 c-3 -3 -12 -4 -19 -1 -8 3 -5 6 6 6 11 1 17 -2
13 -5z m1230 0 c-3 -3 -12 -4 -19 -1 -8 3 -5 6 6 6 11 1 17 -2 13 -5z m-57
-14 c0 -5 -10 -10 -22 -9 -22 0 -22 1 -3 9 11 5 21 9 23 9 1 1 2 -3 2 -9z
m-145 -10 c3 -5 1 -10 -4 -10 -6 0 -11 5 -11 10 0 6 2 10 4 10 3 0 8 -4 11
-10z"/>
<path d="M6118 5583 c23 -2 61 -2 85 0 23 2 4 4 -43 4 -47 0 -66 -2 -42 -4z"/>
<path d="M5920 5535 c0 -9 6 -12 15 -9 8 4 12 10 9 15 -8 14 -24 10 -24 -6z"/>
<path d="M6208 5543 c6 -2 18 -2 25 0 6 3 1 5 -13 5 -14 0 -19 -2 -12 -5z"/>
<path d="M3960 5519 c-30 -4 -98 -15 -150 -23 -52 -9 -102 -16 -110 -16 -9 0
-11 -3 -4 -10 6 -6 35 -5 84 4 76 14 122 21 218 33 28 3 52 10 52 14 0 10 -12
10 -90 -2z"/>
<path d="M3605 5460 c-22 -5 -51 -13 -65 -19 -24 -11 -24 -11 5 -5 17 3 51 9
78 13 26 5 50 11 54 15 8 8 -20 6 -72 -4z"/>
<path d="M3618 5333 c12 -2 32 -2 45 0 12 2 2 4 -23 4 -25 0 -35 -2 -22 -4z"/>
<path d="M3705 5331 c-14 -6 -6 -9 35 -14 30 -3 66 -9 80 -12 18 -4 16 -1 -9
10 -43 21 -81 26 -106 16z"/>
<path d="M3548 5323 c7 -3 16 -2 19 1 4 3 -2 6 -13 5 -11 0 -14 -3 -6 -6z"/>
<path d="M3880 5285 c46 -18 64 -17 25 0 -16 8 -37 14 -45 14 -8 0 1 -7 20
-14z"/>
<path d="M3390 5260 c-9 -6 -10 -10 -3 -10 6 0 15 5 18 10 8 12 4 12 -15 0z"/>
<path d="M3946 5247 c3 -10 9 -15 12 -12 3 3 0 11 -7 18 -10 9 -11 8 -5 -6z"/>
<path d="M4462 5231 c-11 -7 -11 -9 2 -14 10 -4 16 -1 16 8 0 17 -1 17 -18 6z"/>
<path d="M4400 5201 c0 -5 -9 -7 -20 -4 -14 4 -20 0 -20 -11 0 -22 17 -20 47
4 19 15 21 20 9 20 -9 0 -16 -4 -16 -9z"/>
<path d="M3970 5148 c0 -49 -45 -365 -64 -450 -7 -32 -11 -60 -8 -63 9 -9 23
-5 17 5 -3 6 1 7 10 4 24 -9 45 15 45 51 0 19 5 35 10 37 6 2 15 39 19 83 5
44 14 93 20 108 16 42 14 84 -6 91 -24 10 -30 -2 -36 -69 -12 -134 -31 -251
-43 -264 -16 -17 -13 10 17 159 19 96 37 350 25 350 -3 0 -6 -19 -6 -42z"/>
<path d="M4076 5060 c-21 -105 -19 -260 4 -260 6 0 13 18 16 40 6 39 24 46 24
9 0 -42 17 -15 28 45 15 78 15 116 2 116 -5 0 -10 8 -10 18 -1 14 -4 14 -20
-6 l-19 -23 -6 38 c-10 59 -11 60 -19 23z m34 -145 c0 -8 -2 -15 -4 -15 -2 0
-6 7 -10 15 -3 8 -1 15 4 15 6 0 10 -7 10 -15z"/>
<path d="M3211 4834 c0 -11 3 -14 6 -6 3 7 2 16 -1 19 -3 4 -6 -2 -5 -13z"/>
<path d="M3203 4765 c0 -22 2 -30 4 -17 2 12 2 30 0 40 -3 9 -5 -1 -4 -23z"/>
<path d="M3152 4755 c0 -16 2 -22 5 -12 2 9 2 23 0 30 -3 6 -5 -1 -5 -18z"/>
<path d="M4275 4750 c-4 -6 5 -10 19 -10 14 0 26 5 26 10 0 6 -9 10 -19 10
-11 0 -23 -4 -26 -10z"/>
<path d="M3192 4690 c0 -19 2 -27 5 -17 2 9 2 25 0 35 -3 9 -5 1 -5 -18z"/>
<path d="M3135 4645 c-3 -31 -5 -59 -2 -61 3 -3 8 20 12 51 3 31 5 59 2 61 -3
3 -8 -20 -12 -51z"/>
<path d="M3182 4610 c0 -19 2 -27 5 -17 2 9 2 25 0 35 -3 9 -5 1 -5 -18z"/>
<path d="M3820 4613 c-33 -6 -51 -23 -24 -23 11 0 29 7 40 15 10 8 17 14 14
13 -3 0 -16 -3 -30 -5z"/>
<path d="M3868 4613 c7 -3 16 -2 19 1 4 3 -2 6 -13 5 -11 0 -14 -3 -6 -6z"/>
<path d="M3475 4590 c-3 -5 -1 -10 4 -10 6 0 11 5 11 10 0 6 -2 10 -4 10 -3 0
-8 -4 -11 -10z"/>
<path d="M3550 4590 c0 -5 4 -10 9 -10 6 0 13 5 16 10 3 6 -1 10 -9 10 -9 0
-16 -4 -16 -10z"/>
<path d="M3723 4593 c9 -2 23 -2 30 0 6 3 -1 5 -18 5 -16 0 -22 -2 -12 -5z"/>
<path d="M3171 4544 c0 -11 3 -14 6 -6 3 7 2 16 -1 19 -3 4 -6 -2 -5 -13z"/>
<path d="M3723 4543 c9 -2 23 -2 30 0 6 3 -1 5 -18 5 -16 0 -22 -2 -12 -5z"/>
<path d="M3120 4530 c0 -5 5 -10 11 -10 5 0 7 5 4 10 -3 6 -8 10 -11 10 -2 0
-4 -4 -4 -10z"/>
<path d="M3659 4529 c-11 -6 -11 -11 -2 -20 9 -9 15 -8 27 4 12 12 13 16 2 20
-7 3 -19 1 -27 -4z"/>
<path d="M3688 4423 c7 -3 16 -2 19 1 4 3 -2 6 -13 5 -11 0 -14 -3 -6 -6z"/>
<path d="M3648 4403 c6 -2 18 -2 25 0 6 3 1 5 -13 5 -14 0 -19 -2 -12 -5z"/>
<path d="M6823 5544 c-24 -10 -31 -19 -28 -34 2 -11 0 -18 -6 -15 -5 4 -7 11
-4 16 10 15 -12 10 -25 -6 -11 -13 -10 -14 2 -10 8 3 21 -1 28 -10 16 -20 57
-19 68 1 5 8 31 21 58 29 l49 13 -52 1 c-29 1 -53 -3 -53 -9 0 -5 -11 -10 -25
-10 -14 0 -25 5 -25 10 0 6 11 10 25 10 14 0 25 4 25 9 0 4 24 7 53 5 51 -3
51 -3 12 6 -52 12 -64 11 -102 -6z"/>
<path d="M6988 5513 c7 -3 16 -2 19 1 4 3 -2 6 -13 5 -11 0 -14 -3 -6 -6z"/>
<path d="M7065 5510 c3 -5 11 -10 16 -10 6 0 7 5 4 10 -3 6 -11 10 -16 10 -6
0 -7 -4 -4 -10z"/>
<path d="M7179 5456 c-3 -3 -21 -6 -42 -8 -27 -1 -37 -7 -37 -19 0 -18 37 -20
74 -4 12 5 21 3 27 -6 7 -10 9 -8 7 10 -3 23 -18 37 -29 27z"/>
<path d="M7211 5374 c0 -11 3 -14 6 -6 3 7 2 16 -1 19 -3 4 -6 -2 -5 -13z"/>
<path d="M6762 5114 c-27 -19 -20 -34 16 -34 22 0 24 2 12 11 -11 8 -12 12 -2
16 13 5 17 23 4 23 -4 0 -18 -7 -30 -16z"/>
<path d="M6950 4940 l-95 -6 90 -2 c50 -1 97 3 105 8 8 5 11 9 5 8 -5 -1 -53
-5 -105 -8z"/>
<path d="M6805 4902 c6 -4 12 -16 13 -27 6 -32 12 -31 12 3 0 24 -4 32 -17 32
-10 0 -14 -4 -8 -8z"/>
<path d="M6768 4733 c6 -2 18 -2 25 0 6 3 1 5 -13 5 -14 0 -19 -2 -12 -5z"/>
<path d="M6851 4550 c0 -8 4 -24 9 -35 5 -13 9 -14 9 -5 0 8 -4 24 -9 35 -5
13 -9 14 -9 5z"/>
<path d="M6883 4350 c0 -30 2 -43 4 -27 2 15 2 39 0 55 -2 15 -4 2 -4 -28z"/>
<path d="M6601 5324 c0 -11 3 -14 6 -6 3 7 2 16 -1 19 -3 4 -6 -2 -5 -13z"/>
<path d="M6452 5130 c-7 -11 -12 -23 -12 -27 0 -5 5 0 11 11 9 15 13 16 20 5
5 -8 9 -9 9 -4 0 6 -4 15 -8 22 -6 9 -11 7 -20 -7z"/>
<path d="M6600 5026 c0 -25 5 -48 10 -51 6 -4 10 13 10 44 0 28 -4 51 -10 51
-5 0 -10 -20 -10 -44z"/>
<path d="M6520 4800 c-13 -8 -13 -11 2 -26 20 -20 51 -11 46 13 -4 21 -27 27
-48 13z"/>
<path d="M6580 4780 c0 -5 5 -10 10 -10 6 0 10 5 10 10 0 6 -4 10 -10 10 -5 0
-10 -4 -10 -10z"/>
<path d="M6480 4751 c0 -5 9 -7 20 -4 11 3 20 7 20 9 0 2 -9 4 -20 4 -11 0
-20 -4 -20 -9z"/>
<path d="M6294 4655 c-10 -8 -14 -15 -7 -15 19 0 43 11 43 21 0 13 -14 11 -36
-6z"/>
<path d="M7763 4973 c9 -2 25 -2 35 0 9 3 1 5 -18 5 -19 0 -27 -2 -17 -5z"/>
<path d="M7881 4254 c0 -11 3 -14 6 -6 3 7 2 16 -1 19 -3 4 -6 -2 -5 -13z"/>
<path d="M4330 4660 c0 -5 5 -10 11 -10 5 0 7 5 4 10 -3 6 -8 10 -11 10 -2 0
-4 -4 -4 -10z"/>
<path d="M7537 3040 c3 -30 10 -64 14 -75 6 -12 7 1 3 35 -4 30 -10 64 -15 75
-5 12 -6 -2 -2 -35z"/>
<path d="M2225 3081 c-32 -19 -89 -80 -82 -87 2 -3 29 -6 59 -8 30 -1 60 -6
66 -10 6 -3 23 -1 39 4 l28 11 -27 -26 c-15 -14 -32 -25 -38 -25 -6 0 -9 -4
-6 -9 3 -5 27 -7 53 -6 l48 3 3 40 c3 45 -27 115 -53 126 -29 11 -59 6 -90
-13z"/>
<path d="M2121 2917 c-5 -115 74 -172 159 -113 36 24 76 82 63 89 -5 2 -44 5
-88 6 -44 2 -82 5 -85 8 -3 2 6 12 19 22 l24 18 -33 6 c-53 11 -56 9 -59 -36z"/>
<path d="M8755 2616 c-18 -13 -18 -14 2 -55 22 -45 35 -44 26 2 -3 15 -12 27
-19 27 -19 0 -18 10 4 26 23 18 11 18 -13 0z"/>
<path d="M8756 2501 c-4 -7 -5 -15 -2 -18 9 -9 19 4 14 18 -4 11 -6 11 -12 0z"/>
<path d="M8790 2375 c-12 -19 -20 -41 -17 -48 2 -6 8 0 12 15 4 15 16 30 26
33 10 4 19 13 19 21 0 24 -18 15 -40 -21z"/>
<path d="M8842 2290 c0 -19 2 -27 5 -17 2 9 2 25 0 35 -3 9 -5 1 -5 -18z"/>
<path d="M8797 2273 c-4 -3 -7 -16 -6 -27 0 -19 1 -19 10 3 10 24 8 36 -4 24z"/>
<path d="M8810 2180 c0 -5 5 -10 10 -10 6 0 10 5 10 10 0 6 -4 10 -10 10 -5 0
-10 -4 -10 -10z"/>
<path d="M8851 2178 c0 -9 -4 -25 -7 -35 -5 -17 -5 -17 6 0 6 10 9 25 7 35 -4
15 -5 15 -6 0z"/>
<path d="M8831 2094 c0 -11 3 -14 6 -6 3 7 2 16 -1 19 -3 4 -6 -2 -5 -13z"/>
<path d="M8733 1997 c-46 -24 -50 -33 -28 -63 13 -17 14 -17 15 -1 0 13 5 16
24 11 19 -4 28 0 41 20 16 24 15 57 -2 55 -4 0 -27 -10 -50 -22z"/>
<path d="M6320 2519 c0 -5 5 -7 10 -4 6 3 10 8 10 11 0 2 -4 4 -10 4 -5 0 -10
-5 -10 -11z"/>
<path d="M5060 2256 c0 -2 7 -7 16 -10 8 -3 12 -2 9 4 -6 10 -25 14 -25 6z"/>
<path d="M5050 2225 c0 -8 2 -15 4 -15 2 0 6 7 10 15 3 8 1 15 -4 15 -6 0 -10
-7 -10 -15z"/>
<path d="M4592 1931 c-20 -35 -21 -39 -5 -36 10 2 22 4 28 4 5 1 4 6 -3 13
-16 16 -15 31 2 25 10 -4 12 0 9 14 -3 10 -6 19 -7 19 -1 0 -12 -18 -24 -39z"/>
<path d="M2283 2163 c9 -2 23 -2 30 0 6 3 -1 5 -18 5 -16 0 -22 -2 -12 -5z"/>
<path d="M2363 2153 c9 -2 23 -2 30 0 6 3 -1 5 -18 5 -16 0 -22 -2 -12 -5z"/>
<path d="M3025 1969 c-4 -6 -5 -12 -2 -15 2 -3 7 2 10 11 7 17 1 20 -8 4z"/>
<path d="M1652 2108 c-7 -7 -12 -42 -12 -88 0 -91 15 -120 60 -117 29 2 30 3
30 55 0 40 -4 52 -15 52 -8 0 -18 0 -22 1 -4 0 -9 -4 -11 -10 -2 -6 3 -11 12
-11 18 0 22 -45 5 -56 -18 -11 -26 8 -34 79 -6 57 -4 68 10 73 9 4 21 -1 29
-11 10 -13 15 -15 20 -6 10 15 -21 51 -44 51 -9 0 -21 -5 -28 -12z"/>
<path d="M1895 2100 c3 -5 8 -10 11 -10 2 0 4 5 4 10 0 6 -5 10 -11 10 -5 0
-7 -4 -4 -10z"/>
<path d="M1757 2093 c-11 -10 -8 -162 3 -183 7 -14 20 -19 48 -17 l37 1 -3 53
c-4 48 -6 53 -28 53 -27 0 -33 -17 -9 -26 23 -9 19 -54 -4 -54 -21 0 -31 34
-31 106 0 37 3 44 20 44 11 0 20 -4 20 -10 0 -5 7 -10 15 -10 18 0 20 21 3 38
-13 13 -60 16 -71 5z"/>
<path d="M1971 2039 c-15 -42 -14 -118 2 -149 15 -30 49 -37 68 -14 18 22 17
120 -2 159 -20 43 -54 45 -68 4z m53 -11 c3 -13 6 -47 6 -76 0 -39 -4 -54 -16
-59 -23 -8 -34 14 -34 70 0 72 30 116 44 65z"/>
<path d="M2077 2063 c-4 -8 15 -151 27 -197 3 -14 13 -26 21 -26 8 0 15 1 15
3 1 1 7 38 15 82 17 93 19 135 6 135 -5 0 -12 -30 -16 -67 -10 -113 -21 -119
-35 -20 -11 80 -22 110 -33 90z"/>
<path d="M1875 2030 c3 -5 16 -10 28 -9 21 0 21 1 2 9 -28 12 -37 12 -30 0z"/>
<path d="M2247 2022 c-24 -26 -22 -45 3 -37 19 6 20 2 20 -59 0 -59 -2 -66
-20 -66 -32 0 -23 -27 11 -34 65 -13 90 0 54 28 -10 8 -15 36 -17 96 -2 67 -6
85 -19 88 -8 1 -23 -6 -32 -16z"/>
<path d="M2350 2016 c-16 -20 -9 -168 9 -190 8 -9 27 -16 42 -16 37 0 47 24
41 103 -3 50 -6 56 -19 46 -10 -9 -13 -28 -12 -63 3 -50 1 -52 -31 -47 -6 0
-10 34 -10 77 l0 77 31 -7 c25 -5 30 -3 27 12 -4 23 -60 29 -78 8z"/>
<path d="M2477 2003 c-3 -10 -5 -55 -6 -100 -1 -76 1 -84 23 -98 43 -29 77 10
62 73 -8 34 -8 40 0 74 11 47 -67 97 -79 51z m48 -43 c0 -13 -6 -25 -12 -27
-16 -6 -27 21 -19 43 9 23 31 11 31 -16z m5 -96 c0 -24 -5 -34 -15 -34 -20 0
-29 23 -21 55 9 36 36 21 36 -21z"/>
<path d="M1885 1940 c-3 -5 -1 -10 4 -10 6 0 11 5 11 10 0 6 -2 10 -4 10 -3 0
-8 -4 -11 -10z"/>
<path d="M1911 1922 c0 -13 -5 -20 -11 -17 -5 3 -10 2 -10 -4 0 -5 5 -13 10
-16 13 -8 23 18 17 42 -4 14 -5 13 -6 -5z"/>
<path d="M5741 2077 c2 -2 25 -23 52 -47 26 -23 47 -39 47 -35 0 10 -82 85
-94 85 -5 0 -7 -1 -5 -3z"/>
<path d="M5730 1953 c0 -6 -3 -18 -6 -27 -3 -9 -2 -16 4 -16 15 0 24 32 12 44
-7 7 -10 7 -10 -1z"/>
<path d="M5495 1857 c-16 -12 -17 -17 -7 -30 7 -9 12 -24 10 -34 -2 -15 5 -19
40 -21 35 -3 42 0 43 15 2 29 -2 57 -9 65 -16 16 -58 18 -77 5z"/>
<path d="M5670 1710 c0 -5 9 -10 20 -10 11 0 20 5 20 10 0 6 -9 10 -20 10 -11
0 -20 -4 -20 -10z"/>
<path d="M5637 1686 c-4 -10 -1 -13 9 -9 15 6 19 23 5 23 -5 0 -11 -7 -14 -14z"/>
<path d="M5742 1655 c0 -16 2 -22 5 -12 2 9 2 23 0 30 -3 6 -5 -1 -5 -18z"/>
<path d="M5641 1650 c-13 -11 -19 -20 -14 -20 6 0 18 9 28 20 23 25 17 25 -14
0z"/>
<path d="M5600 1620 c0 -5 5 -10 11 -10 5 0 7 5 4 10 -3 6 -8 10 -11 10 -2 0
-4 -4 -4 -10z"/>
<path d="M5586 1569 c-3 -17 -6 -46 -5 -63 1 -27 3 -24 15 19 16 59 17 75 5
75 -5 0 -11 -14 -15 -31z"/>
<path d="M5807 1584 c-11 -11 11 -41 33 -47 23 -6 40 18 24 33 -14 12 -50 21
-57 14z"/>
<path d="M5690 1524 c0 -8 5 -12 10 -9 6 4 8 11 5 16 -9 14 -15 11 -15 -7z"/>
<path d="M5641 1504 c0 -11 3 -14 6 -6 3 7 2 16 -1 19 -3 4 -6 -2 -5 -13z"/>
<path d="M5671 1504 c0 -11 3 -14 6 -6 3 7 2 16 -1 19 -3 4 -6 -2 -5 -13z"/>
<path d="M5791 1474 c0 -11 3 -14 6 -6 3 7 2 16 -1 19 -3 4 -6 -2 -5 -13z"/>
<path d="M5397 1413 c-14 -13 -7 -63 8 -63 8 0 15 -9 15 -20 0 -11 5 -20 10
-20 6 0 10 15 10 33 0 22 3 28 9 18 10 -15 31 -7 31 12 0 7 -5 19 -10 27 -9
13 -11 13 -20 0 -9 -13 -12 -13 -21 3 -11 18 -21 21 -32 10z"/>
<path d="M5364 1282 c3 -66 35 -176 57 -196 9 -8 10 -5 5 14 -4 14 -14 48 -21
75 -8 28 -17 60 -21 73 -5 18 -2 22 14 22 12 0 24 5 27 10 3 6 -2 10 -12 10
-14 0 -19 7 -18 26 0 18 -6 28 -17 29 -15 3 -17 -5 -14 -63z"/>
<path d="M5697 1282 c-9 -10 -17 -23 -17 -29 0 -11 -30 -73 -40 -83 -11 -11
-40 -73 -40 -85 0 -8 -9 -19 -20 -25 -12 -6 -20 -21 -20 -35 0 -25 17 -33 36
-17 5 5 24 15 43 22 19 8 49 30 68 49 45 49 106 176 74 157 -5 -4 -12 0 -14 6
-4 10 -6 10 -6 0 -1 -18 -28 8 -39 38 -8 21 -8 21 -25 2z"/>
<path d="M5795 1260 c-3 -5 -1 -10 4 -10 6 0 11 5 11 10 0 6 -2 10 -4 10 -3 0
-8 -4 -11 -10z"/>
<path d="M5411 1204 c0 -11 3 -14 6 -6 3 7 2 16 -1 19 -3 4 -6 -2 -5 -13z"/>
<path d="M1571 1964 c0 -11 3 -14 6 -6 3 7 2 16 -1 19 -3 4 -6 -2 -5 -13z"/>
<path d="M970 1611 c0 -5 5 -13 10 -16 6 -3 10 -2 10 4 0 5 -4 13 -10 16 -5 3
-10 2 -10 -4z"/>
<path d="M578 1573 c12 -2 32 -2 45 0 12 2 2 4 -23 4 -25 0 -35 -2 -22 -4z"/>
<path d="M678 1563 c12 -2 32 -2 45 0 12 2 2 4 -23 4 -25 0 -35 -2 -22 -4z"/>
<path d="M578 1553 c12 -2 32 -2 45 0 12 2 2 4 -23 4 -25 0 -35 -2 -22 -4z"/>
<path d="M3757 1511 c-26 -11 -37 -21 -35 -34 2 -10 6 -18 11 -17 4 0 18 0 32
0 18 0 25 5 25 20 0 11 7 20 15 20 8 0 15 5 15 11 0 5 -4 8 -9 5 -5 -4 -11 -2
-13 3 -1 5 -20 2 -41 -8z"/>
<path d="M3859 1506 c13 -16 51 -41 51 -33 0 2 -15 14 -32 27 -21 15 -28 17
-19 6z"/>
<path d="M3914 1455 c-4 -8 -10 -15 -16 -15 -5 0 -7 4 -4 9 4 5 -3 7 -14 4
-24 -6 -25 -16 -6 -32 10 -8 16 -9 21 -1 9 15 25 12 25 -5 0 -20 17 -19 28 3
6 12 3 22 -10 35 -16 15 -19 15 -24 2z"/>
<path d="M3827 1440 c-3 -11 -1 -20 4 -20 5 0 9 9 9 20 0 11 -2 20 -4 20 -2 0
-6 -9 -9 -20z"/>
<path d="M3920 1381 c0 -6 4 -13 10 -16 6 -3 7 1 4 9 -7 18 -14 21 -14 7z"/>
<path d="M3955 1380 c3 -5 8 -10 11 -10 2 0 4 5 4 10 0 6 -5 10 -11 10 -5 0
-7 -4 -4 -10z"/>
<path d="M3796 1345 c4 -8 11 -15 16 -15 6 0 5 6 -2 15 -7 8 -14 15 -16 15 -2
0 -1 -7 2 -15z"/>
<path d="M3936 1333 c-6 -14 -5 -15 5 -6 7 7 10 15 7 18 -3 3 -9 -2 -12 -12z"/>
<path d="M3939 1303 c-13 -16 -12 -17 4 -4 16 13 21 21 13 21 -2 0 -10 -8 -17
-17z"/>
<path d="M7360 5677 c27 -22 40 -44 60 -98 11 -30 19 -45 19 -34 1 44 -58 145
-83 145 -6 0 -4 -6 4 -13z"/>
<path d="M7442 5500 c0 -14 2 -19 5 -12 2 6 2 18 0 25 -3 6 -5 1 -5 -13z"/>
<path d="M7452 5440 c0 -14 2 -19 5 -12 2 6 2 18 0 25 -3 6 -5 1 -5 -13z"/>
<path d="M7462 5390 c0 -14 2 -19 5 -12 2 6 2 18 0 25 -3 6 -5 1 -5 -13z"/>
<path d="M8501 5360 c15 -45 24 -54 15 -15 -4 17 -12 34 -17 40 -5 5 -4 -6 2
-25z"/>
<path d="M7472 5330 c0 -14 3 -45 7 -70 6 -34 9 -37 9 -15 1 17 -3 48 -7 70
-6 25 -9 31 -9 15z"/>
<path d="M7492 5180 c0 -19 2 -27 5 -17 2 9 2 25 0 35 -3 9 -5 1 -5 -18z"/>
<path d="M7502 5110 c0 -19 2 -27 5 -17 2 9 2 25 0 35 -3 9 -5 1 -5 -18z"/>
<path d="M7512 5035 c0 -16 2 -22 5 -12 2 9 2 23 0 30 -3 6 -5 -1 -5 -18z"/>
<path d="M7522 4950 c0 -14 2 -19 5 -12 2 6 2 18 0 25 -3 6 -5 1 -5 -13z"/>
<path d="M7532 4850 c0 -14 2 -19 5 -12 2 6 2 18 0 25 -3 6 -5 1 -5 -13z"/>
<path d="M7482 4830 c0 -14 2 -19 5 -12 2 6 2 18 0 25 -3 6 -5 1 -5 -13z"/>
<path d="M7541 4754 c0 -11 3 -14 6 -6 3 7 2 16 -1 19 -3 4 -6 -2 -5 -13z"/>
<path d="M7493 4700 c0 -25 2 -35 4 -22 2 12 2 32 0 45 -2 12 -4 2 -4 -23z"/>
<path d="M7504 4520 c0 -52 1 -74 3 -47 2 26 2 68 0 95 -2 26 -3 4 -3 -48z"/>
<path d="M2244 4539 c-2 -4 -22 -7 -45 -7 -43 -1 -184 -20 -209 -29 -8 -3 -42
-7 -75 -9 -33 -2 -61 -8 -63 -12 -1 -4 -18 -6 -37 -4 -20 2 -41 0 -48 -6 -6
-6 -32 -9 -56 -8 -28 1 -45 -2 -48 -11 -3 -7 -13 -13 -22 -13 -14 0 -14 2 -1
10 12 7 8 10 -15 10 -21 0 -26 -3 -16 -9 16 -10 3 -20 -23 -15 -10 1 -25 -4
-33 -12 -8 -8 -24 -13 -36 -13 l-22 2 22 4 c12 2 24 10 27 18 4 11 0 12 -22 4
-14 -6 -32 -15 -38 -20 -8 -7 -14 -6 -19 1 -3 5 -1 10 4 10 6 0 11 5 11 10 0
6 -9 10 -20 10 -11 0 -20 -5 -20 -11 0 -8 -4 -8 -14 0 -9 7 -22 8 -37 3 -31
-11 -59 -4 -59 14 0 8 -4 14 -10 14 -5 0 -10 -7 -10 -15 0 -8 -6 -12 -14 -9
-8 3 -23 1 -34 -5 -15 -8 -21 -8 -25 2 -2 6 -18 13 -35 13 -56 2 -60 4 -58 22
1 11 -5 16 -19 15 -11 -1 -39 5 -63 13 -56 19 -74 18 -71 -3 3 -36 -2 -40 -53
-42 -62 -3 -61 -3 -110 3 -21 2 -40 0 -43 -5 -4 -5 -11 -9 -16 -9 -6 0 -7 5
-4 10 4 6 -8 10 -29 10 -20 0 -36 -4 -36 -10 0 -5 -7 -10 -16 -10 -8 0 -12 5
-9 10 6 9 -4 11 -68 13 -15 1 -27 7 -27 14 0 7 -5 13 -11 13 -5 0 -8 -4 -5 -9
13 -21 -144 -24 -244 -5 -19 4 -22 2 -10 -6 8 -5 25 -10 38 -10 12 0 22 -5 22
-11 0 -6 -7 -8 -17 -5 -9 4 -38 10 -63 13 -25 3 -50 10 -57 15 -6 5 -53 11
-104 14 -82 4 -91 3 -79 -11 11 -13 9 -14 -19 -9 l-31 7 0 -124 0 -124 307 2
c721 5 864 10 934 33 48 17 77 20 114 16 137 -17 290 -25 485 -25 l215 -1 120
105 c185 162 198 183 119 181 -25 -1 -48 -4 -50 -7z m-64 -23 c0 -3 -4 -8 -10
-11 -5 -3 -10 -1 -10 4 0 6 5 11 10 11 6 0 10 -2 10 -4z m-36 -21 c-4 -8 -7
-15 -9 -15 -2 0 -5 7 -9 15 -3 9 0 15 9 15 9 0 12 -6 9 -15z m-111 -2 c-7 -2
-19 -2 -25 0 -7 3 -2 5 12 5 14 0 19 -2 13 -5z m-1613 -33 c0 -5 -6 -10 -14
-10 -8 0 -18 5 -21 10 -3 6 3 10 14 10 12 0 21 -4 21 -10z m70 -8 c0 -5 -13
-7 -30 -4 -16 2 -30 6 -30 8 0 2 14 4 30 4 17 0 30 -4 30 -8z m267 -8 c15 -14
14 -16 -7 -12 -13 1 -25 9 -28 16 -5 17 16 15 35 -4z m1106 9 c3 -5 -6 -9 -19
-9 -13 -1 -21 2 -18 7 6 11 31 12 37 2z m-140 -10 c-7 -2 -19 -2 -25 0 -7 3
-2 5 12 5 14 0 19 -2 13 -5z m84 1 c-3 -3 -12 -4 -19 -1 -8 3 -5 6 6 6 11 1
17 -2 13 -5z m-497 -24 c0 -5 -7 -10 -15 -10 -8 0 -15 5 -15 10 0 6 7 10 15
10 8 0 15 -4 15 -10z m300 -58 c-4 -1 -24 5 -46 14 -21 9 -34 19 -27 21 7 2
21 0 31 -6 16 -8 22 -7 27 7 7 14 9 13 15 -8 3 -14 3 -26 0 -28z m-27 -79 c-7
-2 -19 -2 -25 0 -7 3 -2 5 12 5 14 0 19 -2 13 -5z"/>
<path d="M258 4483 c6 -2 18 -2 25 0 6 3 1 5 -13 5 -14 0 -19 -2 -12 -5z"/>
<path d="M1753 4243 c100 -3 118 -6 113 -18 -8 -21 11 -19 23 3 8 14 12 15 22
5 7 -7 18 -13 24 -13 5 0 3 5 -5 10 -11 7 -7 10 18 10 42 0 42 -22 1 -43 -17
-8 -27 -17 -22 -20 14 -9 74 36 68 50 -2 7 2 10 9 7 8 -3 17 -1 21 5 4 8 -53
10 -192 9 -137 -2 -162 -3 -80 -5z"/>
<path d="M1170 4225 c-14 -7 -36 -18 -50 -23 -21 -9 -22 -10 -5 -11 11 0 44
-5 73 -11 45 -9 58 -9 78 5 14 9 34 13 48 9 13 -3 26 -1 30 4 3 5 18 7 33 4
16 -2 25 -1 21 3 -4 4 -28 9 -55 11 -26 2 -66 8 -88 14 -49 12 -54 11 -85 -5z"/>
<path d="M2738 4233 c7 -3 16 -2 19 1 4 3 -2 6 -13 5 -11 0 -14 -3 -6 -6z"/>
<path d="M195 4220 l-90 -6 103 -2 c62 -1 102 2 102 8 0 6 -6 9 -12 8 -7 -1
-53 -5 -103 -8z"/>
<path d="M344 4222 c7 -12 66 -14 66 -2 0 5 -16 10 -36 10 -19 0 -33 -4 -30
-8z"/>
<path d="M420 4220 c0 -5 5 -10 10 -10 6 0 10 5 10 10 0 6 -4 10 -10 10 -5 0
-10 -4 -10 -10z"/>
<path d="M460 4219 c0 -5 16 -9 35 -9 19 0 35 4 35 8 0 4 -16 8 -35 9 -19 1
-35 -3 -35 -8z"/>
<path d="M568 4223 c6 -2 18 -2 25 0 6 3 1 5 -13 5 -14 0 -19 -2 -12 -5z"/>
<path d="M625 4220 c28 -12 145 -12 145 0 0 6 -34 10 -82 9 -56 0 -76 -3 -63
-9z"/>
<path d="M795 4220 c7 -11 285 -9 285 3 0 4 -66 7 -146 7 -93 0 -143 -4 -139
-10z"/>
<path d="M23 4213 c15 -2 39 -2 55 0 15 2 2 4 -28 4 -30 0 -43 -2 -27 -4z"/>
<path d="M1462 4202 c15 -13 33 -19 42 -16 24 9 19 24 -8 24 -13 0 -33 3 -43
7 -11 4 -8 -2 9 -15z"/>
<path d="M2683 4213 c37 -2 96 -2 130 0 34 2 4 3 -68 3 -71 0 -99 -1 -62 -3z"/>
<path d="M715 4199 c-50 -3 -9 -5 110 -5 184 -1 201 3 45 8 -41 2 -111 0 -155
-3z"/>
<path d="M228 4193 c6 -2 18 -2 25 0 6 3 1 5 -13 5 -14 0 -19 -2 -12 -5z"/>
<path d="M498 4193 c12 -2 32 -2 45 0 12 2 2 4 -23 4 -25 0 -35 -2 -22 -4z"/>
<path d="M1698 4163 c7 -3 16 -2 19 1 4 3 -2 6 -13 5 -11 0 -14 -3 -6 -6z"/>
<path d="M4429 4156 c-2 -2 -130 -7 -284 -10 -355 -8 -844 -25 -870 -31 -11
-3 -47 -29 -80 -59 l-60 -55 70 0 c39 0 290 4 558 9 l488 9 82 52 c80 51 127
89 109 89 -5 0 -11 -2 -13 -4z"/>
<path d="M4460 4150 c0 -6 -46 -40 -102 -77 l-101 -67 -576 -9 c-317 -5 -578
-11 -580 -13 -2 -2 -2 -6 1 -9 9 -9 1143 16 1167 26 49 21 211 132 211 145 0
8 -4 14 -10 14 -5 0 -10 -5 -10 -10z"/>
<path d="M9830 4030 c-9 -6 -10 -10 -3 -10 6 0 15 5 18 10 8 12 4 12 -15 0z"/>
<path d="M9525 3910 c4 -6 -6 -10 -24 -10 -16 0 -33 -5 -36 -11 -4 -6 -14 -8
-22 -4 -13 4 -13 3 -4 -9 6 -7 9 -21 5 -30 -5 -12 0 -16 19 -16 14 0 29 5 32
10 3 6 24 10 46 10 28 0 39 4 39 15 0 17 16 20 25 5 3 -5 15 -10 27 -10 18 0
16 4 -13 31 -27 26 -37 29 -51 20 -11 -7 -18 -7 -18 -1 0 5 -7 10 -16 10 -8 0
-12 -4 -9 -10z"/>
<path d="M9670 3875 c0 -8 2 -15 4 -15 2 0 6 7 10 15 3 8 1 15 -4 15 -6 0 -10
-7 -10 -15z"/>
<path d="M9950 3840 c0 -5 12 -10 28 -10 21 0 24 2 12 10 -20 13 -40 13 -40 0z"/>
<path d="M4422 3809 c-93 -12 -205 -45 -280 -83 -70 -35 -172 -105 -172 -118
0 -4 26 12 58 36 126 96 267 140 497 157 77 5 145 12 150 14 19 7 -190 2 -253
-6z"/>
<path d="M4400 3623 c0 -45 20 -103 35 -103 9 0 12 -6 9 -15 -8 -20 15 -19 44
1 20 14 22 14 22 -1 0 -11 6 -14 25 -9 15 4 25 2 25 -5 0 -6 -11 -13 -25 -17
-13 -3 -23 -11 -22 -17 1 -6 -13 -13 -30 -17 -18 -4 -30 -3 -27 1 3 5 15 10
27 10 12 1 4 5 -18 9 -23 4 -42 4 -46 -1 -3 -6 -13 -7 -22 -3 -26 9 -20 -11 6
-22 12 -6 16 -9 8 -7 -21 5 -82 -20 -78 -32 6 -16 42 -12 39 4 -2 11 7 13 42
8 31 -4 46 -3 50 6 3 8 8 7 16 -6 11 -16 12 -16 34 0 13 10 21 23 19 30 -3 6
5 17 17 23 16 9 25 8 38 -2 22 -18 -16 47 -41 70 -17 15 -17 15 -11 -1 3 -9 1
-17 -4 -17 -6 0 -12 10 -14 22 l-3 23 -22 -24 c-13 -14 -25 -23 -27 -20 -2 2
0 28 6 58 11 63 6 81 -23 81 -20 0 -21 -3 -15 -52 5 -37 3 -48 -4 -38 -5 8
-10 32 -10 53 0 20 -4 37 -10 37 -5 0 -10 -12 -10 -27z"/>
<path d="M4500 3646 c0 -12 41 -98 45 -95 6 7 -29 99 -37 99 -5 0 -8 -2 -8 -4z"/>
<path d="M4550 3635 c14 -8 36 -19 50 -25 14 -6 40 -27 57 -48 41 -46 43 -29
3 26 -20 28 -41 44 -67 51 -54 15 -73 13 -43 -4z"/>
<path d="M4556 3580 c4 -19 11 -39 16 -45 5 -5 6 5 2 25 -4 19 -11 39 -16 45
-5 5 -6 -5 -2 -25z"/>
<path d="M3915 3558 l-40 -43 43 40 c39 36 47 45 39 45 -2 0 -21 -19 -42 -42z"/>
<path d="M4347 3580 c-18 -21 -9 -28 11 -8 9 9 12 9 12 1 0 -7 -4 -15 -10 -18
-12 -7 -13 -25 -2 -25 4 0 16 7 27 15 19 15 19 15 -1 35 -20 20 -20 20 -37 0z"/>
<path d="M4497 3579 c4 -13 8 -18 11 -10 2 7 -1 18 -6 23 -8 8 -9 4 -5 -13z"/>
<path d="M4591 3543 c2 -29 6 -53 10 -53 4 0 7 -18 7 -41 0 -38 -1 -39 -15
-20 -18 27 -32 26 -42 -1 -12 -31 6 -51 37 -43 23 6 24 5 17 -37 l-7 -43 24
24 c16 16 19 25 11 28 -7 3 -13 14 -12 26 0 21 1 21 9 2 7 -19 8 -19 15 -2 8
20 1 120 -11 138 -5 8 -9 7 -15 -2 -4 -7 -11 -10 -15 -6 -4 3 -1 13 5 21 10
12 9 20 -4 38 -15 22 -16 22 -14 -29z m-11 -122 c0 -6 -4 -13 -10 -16 -5 -3
-10 1 -10 9 0 9 5 16 10 16 6 0 10 -4 10 -9z"/>
<path d="M3955 3510 c3 -5 8 -10 11 -10 2 0 4 5 4 10 0 6 -5 10 -11 10 -5 0
-7 -4 -4 -10z"/>
<path d="M3685 3449 c-4 -6 -5 -12 -2 -15 2 -3 7 2 10 11 7 17 1 20 -8 4z"/>
<path d="M4081 3424 c0 -11 3 -14 6 -6 3 7 2 16 -1 19 -3 4 -6 -2 -5 -13z"/>
<path d="M4033 3423 c-21 -8 -15 -22 7 -16 11 3 20 9 20 14 0 10 -8 10 -27 2z"/>
<path d="M4300 3401 c0 -12 5 -21 10 -21 6 0 10 6 10 14 0 8 -4 18 -10 21 -5
3 -10 -3 -10 -14z"/>
<path d="M1430 3400 c0 -5 7 -7 15 -4 8 4 15 8 15 10 0 2 -7 4 -15 4 -8 0 -15
-4 -15 -10z"/>
<path d="M3638 3391 c-9 -11 -24 -32 -33 -48 -14 -23 -14 -24 -1 -9 8 11 27
32 41 48 14 15 22 28 17 28 -4 0 -15 -9 -24 -19z"/>
<path d="M3990 3400 c0 -5 5 -10 11 -10 5 0 7 5 4 10 -3 6 -8 10 -11 10 -2 0
-4 -4 -4 -10z"/>
<path d="M4191 3394 c0 -11 3 -14 6 -6 3 7 2 16 -1 19 -3 4 -6 -2 -5 -13z"/>
<path d="M4216 3395 c4 -8 8 -15 10 -15 2 0 4 7 4 15 0 8 -4 15 -10 15 -5 0
-7 -7 -4 -15z"/>
<path d="M4244 3395 c3 -23 16 -30 17 -9 0 10 3 13 6 7 7 -18 23 -16 23 2 0 9
-9 15 -24 15 -16 0 -23 -5 -22 -15z"/>
<path d="M4520 3380 c0 -13 38 -32 44 -21 3 4 -6 13 -19 19 -15 7 -25 8 -25 2z"/>
<path d="M4037 3369 c7 -7 15 -10 18 -7 3 3 -2 9 -12 12 -14 6 -15 5 -6 -5z"/>
<path d="M3819 3368 c-7 -17 -6 -79 2 -83 5 -4 9 1 9 9 0 9 7 16 16 16 9 0 13
5 10 13 -3 6 -9 20 -12 30 -5 14 -21 24 -25 15z"/>
<path d="M4070 3359 c0 -5 5 -9 10 -9 19 0 61 -33 51 -39 -14 -9 0 -28 23 -33
24 -4 31 15 13 33 -46 43 -97 69 -97 48z"/>
<path d="M3750 3345 c7 -9 15 -13 17 -11 7 7 -7 26 -19 26 -6 0 -6 -6 2 -15z"/>
<path d="M4416 3326 c-50 -13 -92 -29 -94 -36 -3 -9 1 -11 14 -5 11 4 30 9 44
11 27 4 29 5 -47 -25 -37 -14 -42 -27 -15 -34 11 -3 8 -5 -8 -6 -16 -1 -41
-17 -65 -41 -21 -22 -46 -40 -55 -40 -10 1 -7 7 12 23 32 27 108 118 108 130
0 12 -67 -1 -102 -19 -15 -8 -28 -20 -28 -27 0 -8 -16 -32 -36 -55 l-36 -42
34 -1 c18 0 27 -3 21 -6 -27 -10 -11 -20 20 -13 64 17 77 22 70 33 -3 6 -1 7
6 3 19 -12 71 3 64 20 -3 8 1 14 10 14 8 0 26 9 40 20 22 17 26 18 37 5 20
-24 30 -18 52 35 20 48 31 59 42 42 3 -5 -4 -16 -15 -25 -16 -14 -27 -47 -16
-47 7 0 67 89 67 99 0 15 -21 13 -124 -13z m-150 -59 c-16 -12 -38 -30 -50
-40 -17 -16 -18 -18 -3 -13 11 4 16 2 12 -5 -4 -6 -13 -8 -20 -5 -8 3 -16 0
-19 -7 -2 -7 -5 -7 -5 -2 -1 21 80 95 102 94 7 0 -1 -10 -17 -22z m-96 -71 c0
-2 -8 -10 -17 -17 -16 -13 -17 -12 -4 4 13 16 21 21 21 13z"/>
<path d="M3780 3325 c0 -9 5 -15 11 -13 6 2 11 8 11 13 0 5 -5 11 -11 13 -6 2
-11 -4 -11 -13z"/>
<path d="M3552 3293 c-12 -15 -22 -33 -22 -40 0 -7 -4 -13 -10 -13 -5 0 -10
-5 -10 -11 0 -8 5 -8 15 1 8 7 15 17 15 23 0 6 10 21 22 34 12 13 19 25 16 28
-2 3 -14 -7 -26 -22z"/>
<path d="M4546 3305 c-3 -8 -1 -15 4 -15 6 0 10 7 10 15 0 8 -2 15 -4 15 -2 0
-6 -7 -10 -15z"/>
<path d="M503 3303 c9 -2 25 -2 35 0 9 3 1 5 -18 5 -19 0 -27 -2 -17 -5z"/>
<path d="M3775 3290 c-3 -5 -1 -10 4 -10 6 0 11 5 11 10 0 6 -2 10 -4 10 -3 0
-8 -4 -11 -10z"/>
<path d="M4090 3290 c0 -5 5 -10 10 -10 6 0 10 5 10 10 0 6 -4 10 -10 10 -5 0
-10 -4 -10 -10z"/>
<path d="M9253 3255 c0 -27 2 -38 4 -22 2 15 2 37 0 50 -2 12 -4 0 -4 -28z"/>
<path d="M385 3280 c3 -5 14 -10 23 -10 15 0 15 2 2 10 -20 13 -33 13 -25 0z"/>
<path d="M3840 3283 c0 -14 15 -29 33 -36 21 -8 35 19 18 36 -8 8 -11 7 -11
-6 0 -9 -4 -17 -10 -17 -5 0 -10 7 -10 15 0 8 -4 15 -10 15 -5 0 -10 -3 -10
-7z"/>
<path d="M3707 3266 c-3 -8 1 -17 10 -20 11 -5 14 -14 9 -36 -6 -33 -2 -37 20
-16 16 16 19 56 5 56 -5 0 -16 7 -24 15 -13 12 -16 12 -20 1z"/>
<path d="M3669 3263 c-1 -5 -1 -11 0 -15 0 -5 -5 -8 -13 -8 -17 0 -31 -33 -17
-38 6 -2 11 -10 11 -19 0 -8 7 -13 17 -11 25 5 27 25 2 33 -12 4 -17 10 -12
14 17 10 35 51 23 51 -5 0 -11 -3 -11 -7z"/>
<path d="M3927 3264 c-9 -9 4 -35 14 -28 5 3 9 12 9 20 0 14 -12 19 -23 8z"/>
<path d="M3825 3250 c3 -5 8 -10 11 -10 2 0 4 5 4 10 0 6 -5 10 -11 10 -5 0
-7 -4 -4 -10z"/>
<path d="M4043 3253 c-24 -3 -33 -9 -33 -22 0 -11 -9 -21 -21 -24 -12 -3 -18
-10 -15 -15 3 -6 0 -13 -6 -15 -8 -3 -6 -6 5 -6 11 -1 15 -6 11 -13 -5 -7 -3
-8 6 -3 7 4 28 9 47 10 19 1 39 8 44 16 11 17 12 80 2 77 -5 0 -23 -3 -40 -5z"/>
<path d="M9380 3221 c-23 -7 -21 -8 17 -15 46 -8 75 0 52 15 -16 10 -34 10
-69 0z"/>
<path d="M4360 3199 c0 -5 5 -7 10 -4 6 3 10 8 10 11 0 2 -4 4 -10 4 -5 0 -10
-5 -10 -11z"/>
<path d="M9468 3193 c7 -3 16 -2 19 1 4 3 -2 6 -13 5 -11 0 -14 -3 -6 -6z"/>
<path d="M3590 3171 c-6 -12 -7 -21 -1 -21 10 0 24 30 17 37 -2 3 -9 -5 -16
-16z"/>
<path d="M9288 3179 c-26 -15 -23 -47 5 -52 l22 -4 -22 -2 c-27 -1 -30 -13
-37 -146 -3 -55 -7 -119 -10 -143 -3 -37 -2 -42 12 -37 13 5 163 23 205 25 14
0 7 20 -9 20 -9 0 -12 5 -8 12 4 7 3 8 -5 4 -6 -4 -18 -2 -27 4 -8 7 -40 13
-72 13 l-57 -1 45 10 c25 5 78 11 118 15 39 3 72 10 72 15 0 6 6 5 15 -2 8 -7
26 -9 44 -5 27 6 30 9 24 36 l-6 30 82 -2 c44 -2 81 -6 81 -10 0 -4 14 -11 31
-14 32 -7 31 -7 -32 -35 -35 -16 -65 -34 -68 -41 -2 -8 2 -10 15 -5 11 4 41
10 67 13 32 4 51 12 58 24 8 16 22 19 77 20 37 0 61 3 54 6 -18 7 -4 23 21 23
20 0 20 0 1 15 -15 12 -16 14 -3 15 12 0 16 12 18 49 l2 50 -38 4 -38 4 38 1
c33 2 37 5 37 28 0 23 -3 26 -25 22 -26 -5 -35 6 -12 15 6 3 -10 6 -36 6 -26
1 -58 8 -70 16 -13 8 -28 11 -36 6 -9 -6 -5 -10 16 -16 l28 -7 -37 -19 c-40
-20 -50 -34 -20 -25 9 2 35 1 57 -4 38 -7 38 -8 8 -9 -17 0 -38 -8 -46 -16 -8
-8 -18 -11 -21 -7 -4 3 -11 0 -16 -8 -9 -14 -89 -16 -180 -3 -35 5 -41 8 -25
14 17 6 16 8 -8 8 -16 1 -38 -4 -49 -10 -15 -8 -19 -8 -14 0 4 6 0 11 -8 11
-9 0 -16 5 -16 10 0 9 44 15 78 11 6 -1 12 2 12 7 0 5 -21 14 -47 20 -80 18
-137 34 -155 43 -23 12 -69 11 -90 -2z m137 -38 c-11 -5 -38 -11 -60 -14 -22
-3 -32 -3 -22 -1 9 3 17 10 17 15 0 5 19 9 43 8 31 0 37 -2 22 -8z m478 -8
c-7 -2 -21 -2 -30 0 -10 3 -4 5 12 5 17 0 24 -2 18 -5z m-275 -90 c-10 -2 -26
-2 -35 0 -10 3 -2 5 17 5 19 0 27 -2 18 -5z m208 -47 c5 1 29 4 54 7 l45 6
-45 -21 c-25 -11 -48 -25 -51 -30 -4 -6 -9 -6 -14 1 -3 7 -15 9 -25 6 -26 -8
-37 15 -15 32 17 12 16 13 -14 13 -39 0 -32 16 12 28 29 8 32 6 38 -17 3 -14
9 -25 15 -25z m-321 24 c-3 -5 0 -8 7 -5 7 3 27 0 43 -5 29 -10 29 -10 3 -6
-16 2 -28 0 -28 -4 0 -4 -17 -7 -37 -7 -21 -1 -33 1 -26 4 7 2 9 11 6 19 -3 9
2 14 17 14 11 0 18 -4 15 -10z m183 -2 c-4 -19 -20 -28 -48 -28 -25 0 -25 0 5
20 35 23 46 25 43 8z m-208 -58 c0 -5 -12 -10 -27 -10 -22 0 -25 2 -13 10 20
13 40 13 40 0z m0 -40 c12 -8 9 -10 -12 -10 -16 0 -28 5 -28 10 0 13 20 13 40
0z m-171 -74 c-24 -13 -39 -12 -39 3 0 4 14 8 32 9 32 1 32 1 7 -12z m-39 -26
c0 -5 -4 -10 -10 -10 -5 0 -10 5 -10 10 0 6 5 10 10 10 6 0 10 -4 10 -10z"/>
<path d="M1191 3154 c0 -11 3 -14 6 -6 3 7 2 16 -1 19 -3 4 -6 -2 -5 -13z"/>
<path d="M3690 3150 c-12 -8 -11 -10 7 -10 12 0 25 5 28 10 8 13 -15 13 -35 0z"/>
<path d="M4610 3150 c-9 -6 -10 -10 -3 -10 6 0 15 5 18 10 8 12 4 12 -15 0z"/>
<path d="M1161 3134 c0 -11 3 -14 6 -6 3 7 2 16 -1 19 -3 4 -6 -2 -5 -13z"/>
<path d="M1380 3141 c0 -9 24 -21 41 -21 5 0 9 7 9 15 0 9 -9 15 -25 15 -14 0
-25 -4 -25 -9z"/>
<path d="M4060 3130 c-12 -8 -11 -10 8 -10 12 0 22 5 22 10 0 13 -11 13 -30 0z"/>
<path d="M3558 3103 c6 -2 18 -2 25 0 6 3 1 5 -13 5 -14 0 -19 -2 -12 -5z"/>
<path d="M3608 3103 c6 -2 18 -2 25 0 6 3 1 5 -13 5 -14 0 -19 -2 -12 -5z"/>
<path d="M3975 3100 c-44 -6 -39 -7 38 -8 57 -1 86 2 82 8 -7 11 -41 11 -120
0z"/>
<path d="M9678 3103 c7 -3 16 -2 19 1 4 3 -2 6 -13 5 -11 0 -14 -3 -6 -6z"/>
<path d="M683 3093 c15 -2 37 -2 50 0 12 2 0 4 -28 4 -27 0 -38 -2 -22 -4z"/>
<path d="M808 3093 c7 -3 16 -2 19 1 4 3 -2 6 -13 5 -11 0 -14 -3 -6 -6z"/>
<path d="M3815 3093 c16 -3 33 -10 37 -16 6 -9 8 -9 8 1 0 21 48 14 55 -8 3
-11 11 -20 17 -20 6 0 4 9 -4 23 -13 19 -25 22 -79 23 -35 1 -51 -1 -34 -3z"/>
<path d="M3556 3075 c-11 -8 -17 -17 -14 -20 3 -3 16 3 29 14 27 23 14 28 -15
6z"/>
<path d="M3699 3080 c-1 -5 -2 -14 -3 -20 0 -5 -5 -10 -10 -9 -5 0 -13 -5 -17
-13 -7 -10 -9 -10 -9 0 0 6 -7 12 -15 12 -16 0 -21 -15 -7 -23 4 -2 2 -2 -5
-1 -7 2 -15 -1 -18 -6 -4 -6 6 -10 22 -10 23 0 28 -5 29 -25 2 -19 -3 -25 -20
-26 -20 0 -20 -1 -1 -9 11 -5 29 -9 40 -9 15 -1 16 2 7 11 -7 7 -12 19 -12 28
1 12 2 12 11 -2 11 -19 39 -25 39 -8 0 6 5 10 11 10 5 0 7 -4 4 -10 -3 -5 -1
-10 4 -10 6 0 11 8 11 19 0 31 40 34 84 5 31 -21 40 -23 47 -12 5 7 7 19 4 26
-2 6 0 12 5 12 6 0 10 -3 10 -7 0 -5 15 -8 32 -7 27 1 34 5 36 24 3 20 2 22
-11 12 -11 -9 -17 -10 -22 -2 -3 6 -10 8 -15 5 -4 -3 -10 2 -14 10 -6 17 -61
21 -71 5 -3 -5 -19 -10 -34 -10 -15 0 -33 -6 -40 -12 -11 -11 -13 -10 -9 2 9
27 18 65 12 53 -3 -7 -13 -13 -22 -14 -12 0 -13 -2 -4 -6 9 -3 4 -10 -13 -19
-35 -18 -38 -18 -25 5 5 11 10 24 10 30 0 14 -20 14 -21 1z"/>
<path d="M497 3062 c-114 -8 -205 -17 -202 -20 3 -3 58 -5 123 -4 64 1 153 -4
197 -12 76 -13 78 -14 30 -15 -136 -3 -246 -14 -230 -24 10 -5 45 -7 79 -3 33
3 102 9 151 12 50 3 110 11 135 16 25 6 57 10 73 10 20 1 27 6 27 21 0 14 -4
17 -17 12 -19 -8 -26 -8 -91 1 -23 3 -45 10 -48 15 -3 5 -8 8 -12 8 -4 -1
-100 -9 -215 -17z m143 -12 c0 -5 -12 -10 -27 -9 -25 0 -26 1 -8 9 27 12 35
12 35 0z m145 -19 c3 -5 -14 -9 -39 -8 -24 1 -39 5 -33 9 17 11 65 10 72 -1z"/>
<path d="M3956 3066 c3 -9 11 -16 16 -16 13 0 5 23 -10 28 -7 2 -10 -2 -6 -12z"/>
<path d="M9237 3073 c-11 -10 -8 -43 3 -43 6 0 10 11 10 25 0 26 -2 29 -13 18z"/>
<path d="M3648 3063 c6 -2 18 -2 25 0 6 3 1 5 -13 5 -14 0 -19 -2 -12 -5z"/>
<path d="M1133 3048 c-17 -23 -25 -44 -9 -24 9 11 22 23 28 28 9 5 9 8 2 8 -6
0 -16 -6 -21 -12z"/>
<path d="M3495 3039 c-4 -6 -5 -12 -2 -15 2 -3 7 2 10 11 7 17 1 20 -8 4z"/>
<path d="M4108 3042 c-10 -2 -18 -8 -18 -13 0 -11 11 -11 30 1 18 11 11 18
-12 12z"/>
<path d="M3545 3029 c-11 -16 -1 -19 13 -3 7 8 8 14 3 14 -5 0 -13 -5 -16 -11z"/>
<path d="M3470 2952 c-22 -38 -40 -71 -40 -74 0 -4 12 -9 28 -11 25 -4 25 -4
-5 -6 -18 0 -33 -6 -33 -11 0 -6 11 -8 28 -4 38 10 69 23 56 23 -7 1 2 16 20
35 36 39 56 63 56 69 0 3 -11 7 -24 9 -17 3 -23 1 -19 -8 4 -10 -22 -74 -30
-74 -5 0 1 99 7 109 4 6 5 11 2 11 -3 0 -23 -31 -46 -68z"/>
<path d="M966 2995 c-4 -10 1 -15 15 -15 18 0 19 -2 4 -30 -21 -40 -18 -50 5
-21 26 30 26 15 0 -24 -22 -34 -25 -45 -10 -45 6 0 10 6 10 14 0 8 26 43 58
77 31 34 48 57 36 51 -11 -6 -26 -18 -34 -26 -18 -23 -40 -20 -40 6 0 12 -3
18 -7 15 -3 -4 -12 -2 -18 3 -9 8 -14 6 -19 -5z"/>
<path d="M3995 3000 c-3 -5 1 -10 9 -10 8 0 18 5 21 10 3 6 -1 10 -9 10 -8 0
-18 -4 -21 -10z"/>
<path d="M815 2990 c-3 -5 1 -10 10 -10 9 0 13 5 10 10 -3 6 -8 10 -10 10 -2
0 -7 -4 -10 -10z"/>
<path d="M3604 2993 c11 -11 46 -14 46 -3 0 6 -12 10 -27 10 -14 0 -23 -3 -19
-7z"/>
<path d="M767 2984 c-3 -4 -37 -8 -74 -9 -192 -6 -198 -6 -178 -15 13 -6 15
-9 5 -9 -12 -1 -13 -3 -1 -10 11 -7 9 -10 -7 -15 -28 -9 -63 10 -56 29 5 12
-2 15 -29 15 -19 0 -50 2 -68 5 -25 4 -29 3 -14 -3 16 -8 10 -11 -35 -19 -36
-7 -45 -11 -26 -12 37 -1 24 -17 -19 -24 -16 -3 24 -4 90 -2 85 2 103 0 60 -5
-39 -4 5 -6 122 -6 101 1 183 4 183 8 0 4 17 9 38 11 20 2 12 3 -18 1 -30 -2
-62 1 -70 6 -10 7 10 10 62 10 48 0 80 4 84 12 5 8 2 9 -10 5 -14 -6 -16 -3
-11 13 6 19 -13 29 -28 14z m-172 -34 c-27 -12 -35 -12 -35 0 0 6 12 10 28 9
24 0 25 -1 7 -9z m-212 -17 c-13 -2 -33 -2 -45 0 -13 2 -3 4 22 4 25 0 35 -2
23 -4z m240 -10 c-13 -2 -33 -2 -45 0 -13 2 -3 4 22 4 25 0 35 -2 23 -4z"/>
<path d="M918 2983 c7 -3 16 -2 19 1 4 3 -2 6 -13 5 -11 0 -14 -3 -6 -6z"/>
<path d="M1151 2964 c0 -11 3 -14 6 -6 3 7 2 16 -1 19 -3 4 -6 -2 -5 -13z"/>
<path d="M830 2956 c0 -2 7 -6 15 -10 8 -3 15 -1 15 4 0 6 -7 10 -15 10 -8 0
-15 -2 -15 -4z"/>
<path d="M913 2949 c11 -7 23 -7 35 0 14 9 11 10 -18 10 -29 0 -32 -1 -17 -10z"/>
<path d="M3712 2930 c0 -14 2 -19 5 -12 2 6 2 18 0 25 -3 6 -5 1 -5 -13z"/>
<path d="M875 2920 c3 -5 23 -10 43 -10 28 0 33 3 22 10 -20 13 -73 13 -65 0z"/>
<path d="M3410 2895 c-8 -9 -8 -15 -2 -15 12 0 26 19 19 26 -2 2 -10 -2 -17
-11z"/>
<path d="M4490 2900 c-18 -12 -2 -12 25 0 13 6 15 9 5 9 -8 0 -22 -4 -30 -9z"/>
<path d="M595 2890 c-71 -4 -148 -8 -169 -9 -22 0 -36 -4 -33 -8 4 -3 2 -12
-4 -20 -8 -8 -8 -13 -1 -13 6 0 12 5 14 10 2 7 42 8 118 3 71 -5 113 -12 110
-18 -3 -5 -18 -9 -35 -8 -16 1 -61 -1 -98 -4 -56 -4 -66 -7 -56 -19 6 -8 23
-14 38 -15 14 0 20 -3 14 -6 -30 -12 -9 -20 40 -15 28 2 49 1 45 -2 -6 -7 -54
-12 -235 -23 -84 -5 -110 -18 -50 -26 27 -3 25 -4 -12 -5 -37 -2 -42 0 -37 15
6 15 5 15 -12 -1 -11 -9 -33 -21 -48 -26 -22 -7 -10 -9 51 -9 44 1 88 1 98 0
28 -2 9 -21 -21 -21 -15 0 -33 -4 -41 -9 -21 -13 54 -19 129 -10 36 5 93 8
128 9 35 0 71 4 80 9 29 15 126 25 117 12 -5 -9 20 -11 94 -10 56 1 101 5 101
9 0 5 -37 6 -82 4 -82 -3 -82 -3 -24 6 81 13 93 29 14 18 -84 -11 -99 -4 -18
9 36 6 75 13 88 16 18 5 22 2 23 -16 0 -12 13 11 29 52 20 51 26 78 20 86 -6
7 -8 19 -5 27 5 11 -2 14 -25 13 -18 -1 -35 -7 -39 -14 -6 -8 -15 -9 -33 -2
-41 16 -133 19 -273 11z m128 -27 c-7 -2 -21 -2 -30 0 -10 3 -4 5 12 5 17 0
24 -2 18 -5z m213 -71 c-18 -16 -18 -16 -6 6 6 13 14 21 18 18 3 -4 -2 -14
-12 -24z m-360 11 c-7 -7 -87 -5 -95 3 -2 2 20 4 49 4 29 0 50 -3 46 -7z m330
-12 c-4 -6 -14 -7 -23 -4 -15 6 -14 7 3 13 22 9 29 6 20 -9z m-458 -82 c-17
-7 -38 -7 -60 0 -30 8 -28 9 27 9 50 0 56 -1 33 -9z m59 5 c-3 -3 -12 -4 -19
-1 -8 3 -5 6 6 6 11 1 17 -2 13 -5z"/>
<path d="M9543 2882 c-13 -2 -23 -8 -23 -13 0 -9 37 -3 49 7 8 7 -4 10 -26 6z"/>
<path d="M9448 2873 c12 -2 30 -2 40 0 9 3 -1 5 -23 4 -22 0 -30 -2 -17 -4z"/>
<path d="M253 2863 c9 -2 25 -2 35 0 9 3 1 5 -18 5 -19 0 -27 -2 -17 -5z"/>
<path d="M338 2843 c7 -3 16 -2 19 1 4 3 -2 6 -13 5 -11 0 -14 -3 -6 -6z"/>
<path d="M355 2774 l-50 -12 40 0 c22 0 60 3 85 7 l45 7 -35 5 c-19 2 -57 -1
-85 -7z"/>
<path d="M160 2740 c0 -5 5 -10 11 -10 5 0 7 5 4 10 -3 6 -8 10 -11 10 -2 0
-4 -4 -4 -10z"/>
<path d="M93 2683 c9 -2 25 -2 35 0 9 3 1 5 -18 5 -19 0 -27 -2 -17 -5z"/>
<path d="M178 2653 c12 -2 32 -2 45 0 12 2 2 4 -23 4 -25 0 -35 -2 -22 -4z"/>
<path d="M88 2623 c6 -2 18 -2 25 0 6 3 1 5 -13 5 -14 0 -19 -2 -12 -5z"/>
<path d="M168 2623 c7 -3 16 -2 19 1 4 3 -2 6 -13 5 -11 0 -14 -3 -6 -6z"/>
<path d="M8 2533 c7 -3 16 -2 19 1 4 3 -2 6 -13 5 -11 0 -14 -3 -6 -6z"/>
<path d="M88 2533 c7 -3 16 -2 19 1 4 3 -2 6 -13 5 -11 0 -14 -3 -6 -6z"/>
<path d="M1270 2250 c0 -5 5 -10 11 -10 5 0 7 5 4 10 -3 6 -8 10 -11 10 -2 0
-4 -4 -4 -10z"/>
<path d="M9014 2023 c-1 -21 1 -30 3 -21 2 9 10 15 18 12 8 -3 22 -1 32 5 16
9 16 10 -6 11 -13 0 -29 7 -35 15 -9 12 -11 8 -12 -22z"/>
<path d="M9103 2053 c9 -2 25 -2 35 0 9 3 1 5 -18 5 -19 0 -27 -2 -17 -5z"/>
<path d="M9445 1885 c-39 -18 -31 -18 25 -1 25 8 36 15 25 15 -11 0 -33 -6
-50 -14z"/>
<path d="M9338 1883 c7 -3 16 -2 19 1 4 3 -2 6 -13 5 -11 0 -14 -3 -6 -6z"/>
<path d="M9375 1860 c-13 -6 -15 -9 -5 -9 8 0 22 4 30 9 18 12 2 12 -25 0z"/>
<path d="M9680 1860 c0 -5 7 -10 16 -10 8 0 12 5 9 10 -3 6 -10 10 -16 10 -5
0 -9 -4 -9 -10z"/>
<path d="M9941 1821 c-11 -20 -5 -31 16 -31 17 0 43 24 43 39 0 19 -49 12 -59
-8z"/>
<path d="M1095 1550 c3 -5 8 -10 11 -10 2 0 4 5 4 10 0 6 -5 10 -11 10 -5 0
-7 -4 -4 -10z"/>
<path d="M0 1285 c0 -18 11 -18 75 -1 l50 14 -62 1 c-50 1 -63 -2 -63 -14z"/>
<path d="M1628 1273 c7 -3 16 -2 19 1 4 3 -2 6 -13 5 -11 0 -14 -3 -6 -6z"/>
<path d="M1568 1263 c6 -2 18 -2 25 0 6 3 1 5 -13 5 -14 0 -19 -2 -12 -5z"/>
<path d="M1513 1253 c9 -2 23 -2 30 0 6 3 -1 5 -18 5 -16 0 -22 -2 -12 -5z"/>
<path d="M1335 1225 c-60 -12 -101 -23 -90 -23 11 -1 72 10 135 22 63 13 104
24 90 24 -14 0 -74 -10 -135 -23z"/>
<path d="M1183 1193 c9 -2 23 -2 30 0 6 3 -1 5 -18 5 -16 0 -22 -2 -12 -5z"/>
<path d="M1128 1183 c6 -2 18 -2 25 0 6 3 1 5 -13 5 -14 0 -19 -2 -12 -5z"/>
<path d="M1073 1173 c9 -2 23 -2 30 0 6 3 -1 5 -18 5 -16 0 -22 -2 -12 -5z"/>
<path d="M1013 1163 c9 -2 23 -2 30 0 6 3 -1 5 -18 5 -16 0 -22 -2 -12 -5z"/>
<path d="M968 1153 c7 -3 16 -2 19 1 4 3 -2 6 -13 5 -11 0 -14 -3 -6 -6z"/>
<path d="M903 1143 c9 -2 23 -2 30 0 6 3 -1 5 -18 5 -16 0 -22 -2 -12 -5z"/>
<path d="M848 1133 c6 -2 18 -2 25 0 6 3 1 5 -13 5 -14 0 -19 -2 -12 -5z"/>
<path d="M798 1123 c6 -2 18 -2 25 0 6 3 1 5 -13 5 -14 0 -19 -2 -12 -5z"/>
<path d="M748 1113 c7 -3 16 -2 19 1 4 3 -2 6 -13 5 -11 0 -14 -3 -6 -6z"/>
<path d="M688 1103 c6 -2 18 -2 25 0 6 3 1 5 -13 5 -14 0 -19 -2 -12 -5z"/>
<path d="M518 1073 c7 -3 16 -2 19 1 4 3 -2 6 -13 5 -11 0 -14 -3 -6 -6z"/>
<path d="M758 1023 c7 -3 16 -2 19 1 4 3 -2 6 -13 5 -11 0 -14 -3 -6 -6z"/>
<path d="M868 623 c6 -2 18 -2 25 0 6 3 1 5 -13 5 -14 0 -19 -2 -12 -5z"/>
<path d="M1025 580 c-18 -8 -17 -9 8 -9 16 -1 26 3 22 9 -3 6 -7 10 -8 9 -1 0
-11 -4 -22 -9z"/>
<path d="M1160 536 c0 -2 9 -6 20 -9 11 -3 20 -1 20 4 0 5 -9 9 -20 9 -11 0
-20 -2 -20 -4z"/>
<path d="M1180 465 c-10 -12 -10 -15 4 -15 9 0 16 7 16 15 0 8 -2 15 -4 15 -2
0 -9 -7 -16 -15z"/>
<path d="M1105 450 c17 -7 17 -9 3 -9 -19 -1 -26 -21 -7 -21 19 0 50 21 44 31
-4 5 -18 9 -33 8 -24 0 -25 -1 -7 -9z"/>
<path d="M1000 420 c-8 -6 -28 -8 -45 -5 -20 3 -24 2 -11 -3 14 -6 6 -11 -35
-20 -36 -9 -56 -9 -63 -2 -13 13 -46 13 -46 1 0 -5 10 -12 23 -15 12 -3 -5 -3
-38 -1 -33 1 -51 1 -40 -2 11 -3 22 -9 26 -14 6 -10 121 12 188 36 24 8 52 15
62 15 11 0 19 5 19 10 0 13 -21 13 -40 0z"/>
<path d="M448 403 c7 -3 16 -2 19 1 4 3 -2 6 -13 5 -11 0 -14 -3 -6 -6z"/>
<path d="M1018 363 c7 -3 16 -2 19 1 4 3 -2 6 -13 5 -11 0 -14 -3 -6 -6z"/>
<path d="M1238 357 c-21 -6 -38 -15 -38 -20 0 -5 8 -6 18 -2 9 4 34 11 55 15
21 4 41 10 44 14 9 9 -36 5 -79 -7z"/>
<path d="M728 343 c7 -3 16 -2 19 1 4 3 -2 6 -13 5 -11 0 -14 -3 -6 -6z"/>
<path d="M1568 323 c6 -2 18 -2 25 0 6 3 1 5 -13 5 -14 0 -19 -2 -12 -5z"/>
<path d="M1208 303 c7 -3 16 -2 19 1 4 3 -2 6 -13 5 -11 0 -14 -3 -6 -6z"/>
<path d="M633 293 c9 -2 23 -2 30 0 6 3 -1 5 -18 5 -16 0 -22 -2 -12 -5z"/>
<path d="M1288 293 c7 -3 16 -2 19 1 4 3 -2 6 -13 5 -11 0 -14 -3 -6 -6z"/>
<path d="M1795 290 c-18 -8 -17 -9 7 -9 15 -1 30 4 33 9 7 12 -12 12 -40 0z"/>
<path d="M545 280 c-11 -5 -37 -9 -57 -9 -20 -1 -40 -6 -44 -12 -5 -8 5 -9 33
-4 54 9 133 34 108 34 -11 0 -29 -4 -40 -9z"/>
<path d="M1512 275 c-16 -19 -11 -19 24 0 23 12 25 15 9 15 -11 -1 -26 -7 -33
-15z"/>
<path d="M225 210 c-3 -5 -1 -10 4 -10 6 0 11 5 11 10 0 6 -2 10 -4 10 -3 0
-8 -4 -11 -10z"/>
<path d="M1640 210 c-13 -9 -13 -10 0 -10 8 0 22 5 30 10 13 9 13 10 0 10 -8
0 -22 -5 -30 -10z"/>
<path d="M1550 190 c-12 -8 -10 -10 10 -9 14 0 34 4 45 9 17 7 16 9 -10 9 -16
0 -37 -4 -45 -9z"/>
<path d="M1480 170 c-13 -9 -13 -10 0 -10 8 0 22 5 30 10 13 9 13 10 0 10 -8
0 -22 -5 -30 -10z"/>
<path d="M2650 170 c-11 -8 -7 -9 15 -4 37 8 45 14 19 14 -10 0 -26 -5 -34
-10z"/>
<path d="M2480 160 c0 -5 -10 -10 -22 -10 -12 0 -19 -3 -15 -6 9 -9 57 5 57
16 0 6 -4 10 -10 10 -5 0 -10 -4 -10 -10z"/>
<path d="M465 140 c-16 -7 -17 -9 -3 -9 9 -1 20 4 23 9 7 11 7 11 -20 0z"/>
<path d="M2920 140 c0 -5 5 -10 11 -10 5 0 7 5 4 10 -3 6 -8 10 -11 10 -2 0
-4 -4 -4 -10z"/>
<path d="M1730 130 c8 -5 24 -10 35 -10 17 0 17 2 5 10 -8 5 -24 10 -35 10
-17 0 -17 -2 -5 -10z"/>
<path d="M2323 113 c9 -2 23 -2 30 0 6 3 -1 5 -18 5 -16 0 -22 -2 -12 -5z"/>
<path d="M3390 100 c-10 -6 -2 -9 27 -7 24 1 37 5 30 9 -16 10 -39 10 -57 -2z"/>
<path d="M2225 90 l-20 -9 20 0 c11 0 29 4 40 9 l20 9 -20 0 c-11 0 -29 -4
-40 -9z"/>
<path d="M3340 86 c0 -2 6 -9 13 -15 10 -8 14 -7 14 4 0 8 -6 15 -14 15 -7 0
-13 -2 -13 -4z"/>
<path d="M3508 52 c10 -7 1 -11 -30 -17 -24 -4 -38 -9 -31 -12 16 -6 73 10 74
22 0 5 -5 11 -13 13 -11 3 -11 2 0 -6z"/>
<path d="M3288 43 c6 -2 18 -2 25 0 6 3 1 5 -13 5 -14 0 -19 -2 -12 -5z"/>
<path d="M2638 27 c-40 -16 -34 -27 12 -27 43 0 43 0 34 24 -7 18 -8 18 -46 3z"/>
<path d="M2980 10 c0 -5 9 -10 20 -10 11 0 20 5 20 10 0 6 -9 10 -20 10 -11 0
-20 -4 -20 -10z"/>
</g>
</svg>
